IntelOneMono-LightItalic.ufo
<glyph name="exclam" format="2">
  <advance width="614"/>
  <unicode hex="0021"/>
  <outline>
    <contour>
      <point x="323" y="227" type="line"/>
      <point x="289" y="227" type="line"/>
      <point x="386" y="710" type="line"/>
      <point x="505" y="710" type="line"/>
    </contour>
    <contour>
      <point x="189" y="30" type="qcurve"/>
      <point x="189" y="58"/>
      <point x="229" y="93"/>
      <point x="261" y="93" type="qcurve"/>
      <point x="286" y="93"/>
      <point x="317" y="68"/>
      <point x="317" y="48" type="qcurve"/>
      <point x="317" y="21"/>
      <point x="277" y="-15"/>
      <point x="245" y="-15" type="qcurve"/>
      <point x="219" y="-15"/>
      <point x="189" y="10"/>
    </contour>
  </outline>
</glyph>
<glyph name="dollar" format="2">
  <advance width="614"/>
  <unicode hex="0024"/>
  <outline>
    <contour>
      <point x="257" y="1" type="qcurve"/>
      <point x="213" y="-142" type="line"/>
      <point x="160" y="-142" type="line"/>
      <point x="206" y="7" type="line"/>
      <point x="167" y="14"/>
      <point x="89" y="44"/>
      <point x="44" y="69" type="qcurve"/>
      <point x="70" y="118" type="line"/>
      <point x="115" y="93"/>
      <point x="192" y="62"/>
      <point x="227" y="55" type="qcurve"/>
      <point x="315" y="327" type="line"/>
      <point x="246" y="362"/>
      <point x="183" y="439"/>
      <point x="183" y="492" type="qcurve"/>
      <point x="183" y="562"/>
      <point x="303" y="655"/>
      <point x="400" y="655" type="qcurve"/>
      <point x="414" y="655"/>
      <point x="427" y="655"/>
      <point x="432" y="654" type="qcurve"/>
      <point x="477" y="797" type="line"/>
      <point x="530" y="797" type="line"/>
      <point x="483" y="649" type="line"/>
      <point x="510" y="645"/>
      <point x="568" y="629"/>
      <point x="612" y="614" type="qcurve"/>
      <point x="594" y="562" type="line"/>
      <point x="557" y="578"/>
      <point x="493" y="597"/>
      <point x="463" y="601" type="qcurve"/>
      <point x="382" y="354" type="line"/>
      <point x="454" y="316"/>
      <point x="517" y="240"/>
      <point x="517" y="182" type="qcurve"/>
      <point x="517" y="97"/>
      <point x="392" y="0"/>
      <point x="285" y="0" type="qcurve"/>
      <point x="273" y="0"/>
      <point x="262" y="0"/>
    </contour>
    <contour>
      <point x="400" y="606" type="qcurve"/>
      <point x="327" y="606"/>
      <point x="244" y="547"/>
      <point x="244" y="496" type="qcurve"/>
      <point x="244" y="457"/>
      <point x="292" y="402"/>
      <point x="344" y="374" type="qcurve"/>
      <point x="419" y="606" type="line"/>
      <point x="414" y="606"/>
      <point x="405" y="606"/>
    </contour>
    <contour>
      <point x="285" y="49" type="qcurve"/>
      <point x="365" y="49"/>
      <point x="456" y="119"/>
      <point x="456" y="180" type="qcurve"/>
      <point x="456" y="219"/>
      <point x="406" y="280"/>
      <point x="353" y="308" type="qcurve"/>
      <point x="270" y="49" type="line"/>
      <point x="274" y="49"/>
      <point x="281" y="49"/>
    </contour>
  </outline>
</glyph>
<glyph name="ampersand" format="2">
  <advance width="614"/>
  <unicode hex="0026"/>
  <outline>
    <contour>
      <point x="308" y="324" type="line"/>
      <point x="229" y="300"/>
      <point x="153" y="266"/>
      <point x="131" y="244" type="qcurve"/>
      <point x="112" y="225"/>
      <point x="94" y="171"/>
      <point x="94" y="130" type="qcurve"/>
      <point x="94" y="89"/>
      <point x="137" y="47"/>
      <point x="177" y="47" type="qcurve"/>
      <point x="230" y="47"/>
      <point x="305" y="107"/>
      <point x="364" y="194" type="qcurve"/>
    </contour>
    <contour>
      <point x="31" y="124" type="qcurve"/>
      <point x="31" y="174"/>
      <point x="58" y="249"/>
      <point x="87" y="278" type="qcurve"/>
      <point x="113" y="304"/>
      <point x="203" y="344"/>
      <point x="289" y="368" type="qcurve"/>
      <point x="269" y="408"/>
      <point x="243" y="487"/>
      <point x="243" y="517" type="qcurve"/>
      <point x="243" y="583"/>
      <point x="344" y="669"/>
      <point x="423" y="669" type="qcurve"/>
      <point x="453" y="669"/>
      <point x="527" y="659"/>
      <point x="581" y="647" type="qcurve"/>
      <point x="566" y="596" type="line"/>
      <point x="517" y="608"/>
      <point x="448" y="618"/>
      <point x="418" y="618" type="qcurve"/>
      <point x="369" y="618"/>
      <point x="305" y="560"/>
      <point x="305" y="515" type="qcurve"/>
      <point x="305" y="496"/>
      <point x="316" y="455"/>
      <point x="327" y="429" type="qcurve"/>
      <point x="408" y="243" type="line"/>
      <point x="532" y="439" type="line"/>
      <point x="584" y="417" type="line"/>
      <point x="435" y="191" type="line"/>
      <point x="520" y="0" type="line"/>
      <point x="451" y="0" type="line"/>
      <point x="392" y="139" type="line"/>
      <point x="330" y="54"/>
      <point x="237" y="-5"/>
      <point x="168" y="-5" type="qcurve"/>
      <point x="102" y="-5"/>
      <point x="31" y="61"/>
    </contour>
  </outline>
</glyph>
<glyph name="parenleft" format="2">
  <advance width="614"/>
  <unicode hex="0028"/>
  <outline>
    <contour>
      <point x="136" y="228" type="qcurve"/>
      <point x="136" y="396"/>
      <point x="390" y="689"/>
      <point x="636" y="803" type="qcurve"/>
      <point x="661" y="760" type="line"/>
      <point x="432" y="647"/>
      <point x="198" y="378"/>
      <point x="198" y="228" type="qcurve"/>
      <point x="198" y="135"/>
      <point x="305" y="-28"/>
      <point x="414" y="-102" type="qcurve"/>
      <point x="381" y="-145" type="line"/>
      <point x="259" y="-67"/>
      <point x="136" y="121"/>
    </contour>
  </outline>
</glyph>
<glyph name="parenright" format="2">
  <advance width="614"/>
  <unicode hex="0029"/>
  <outline>
    <contour>
      <point x="535" y="430" type="qcurve"/>
      <point x="535" y="262"/>
      <point x="281" y="-31"/>
      <point x="35" y="-145" type="qcurve"/>
      <point x="10" y="-102" type="line"/>
      <point x="239" y="11"/>
      <point x="473" y="280"/>
      <point x="473" y="430" type="qcurve"/>
      <point x="473" y="523"/>
      <point x="366" y="686"/>
      <point x="257" y="760" type="qcurve"/>
      <point x="290" y="803" type="line"/>
      <point x="412" y="725"/>
      <point x="535" y="537"/>
    </contour>
  </outline>
</glyph>
<glyph name="five" format="2">
  <advance width="614"/>
  <unicode hex="0035"/>
  <outline>
    <contour>
      <point x="372" y="420" type="qcurve"/>
      <point x="448" y="420"/>
      <point x="538" y="341"/>
      <point x="538" y="272" type="qcurve"/>
      <point x="538" y="157"/>
      <point x="352" y="17"/>
      <point x="179" y="2" type="qcurve"/>
      <point x="32" y="-10" type="line"/>
      <point x="42" y="42" type="line"/>
      <point x="164" y="53" type="line"/>
      <point x="313" y="66"/>
      <point x="473" y="180"/>
      <point x="473" y="270" type="qcurve"/>
      <point x="473" y="315"/>
      <point x="412" y="368"/>
      <point x="361" y="368" type="qcurve"/>
      <point x="320" y="368"/>
      <point x="232" y="340"/>
      <point x="172" y="307" type="qcurve"/>
      <point x="133" y="311" type="line"/>
      <point x="132" y="316" type="line"/>
      <point x="256" y="655" type="line"/>
      <point x="614" y="655" type="line"/>
      <point x="599" y="604" type="line"/>
      <point x="295" y="604" type="line"/>
      <point x="208" y="374" type="line"/>
      <point x="250" y="397"/>
      <point x="332" y="420"/>
    </contour>
  </outline>
</glyph>
<glyph name="six" format="2">
  <advance width="614"/>
  <unicode hex="0036"/>
  <outline>
    <contour>
      <point x="566" y="653" type="line"/>
      <point x="391" y="530" type="line"/>
      <point x="354" y="504"/>
      <point x="292" y="454"/>
      <point x="267" y="430" type="qcurve"/>
      <point x="401" y="424"/>
      <point x="534" y="334"/>
      <point x="534" y="249" type="qcurve"/>
      <point x="534" y="147"/>
      <point x="364" y="-15"/>
      <point x="254" y="-15" type="qcurve"/>
      <point x="171" y="-15"/>
      <point x="75" y="80"/>
      <point x="75" y="165" type="qcurve"/>
      <point x="75" y="264"/>
      <point x="210" y="460"/>
      <point x="346" y="557" type="qcurve"/>
      <point x="483" y="655" type="line"/>
      <point x="566" y="655" type="line"/>
    </contour>
    <contour>
      <point x="230" y="391" type="qcurve"/>
      <point x="182" y="336"/>
      <point x="135" y="224"/>
      <point x="135" y="162" type="qcurve"/>
      <point x="135" y="103"/>
      <point x="199" y="36"/>
      <point x="255" y="36" type="qcurve"/>
      <point x="340" y="36"/>
      <point x="474" y="169"/>
      <point x="474" y="247" type="qcurve"/>
      <point x="474" y="318"/>
      <point x="362" y="384"/>
    </contour>
  </outline>
</glyph>
<glyph name="seven" format="2">
  <advance width="614"/>
  <unicode hex="0037"/>
  <outline>
    <contour>
      <point x="646" y="618" type="line"/>
      <point x="175" y="0" type="line"/>
      <point x="101" y="0" type="line"/>
      <point x="101" y="2" type="line"/>
      <point x="562" y="595" type="line"/>
      <point x="562" y="600" type="line"/>
      <point x="165" y="600" type="line"/>
      <point x="181" y="655" type="line"/>
      <point x="646" y="655" type="line"/>
    </contour>
  </outline>
</glyph>
<glyph name="colon" format="2">
  <advance width="614"/>
  <unicode hex="003A"/>
  <outline>
    <contour>
      <point x="432" y="421" type="qcurve"/>
      <point x="432" y="384"/>
      <point x="385" y="335"/>
      <point x="346" y="335" type="qcurve"/>
      <point x="316" y="335"/>
      <point x="282" y="363"/>
      <point x="282" y="388" type="qcurve"/>
      <point x="282" y="422"/>
      <point x="330" y="472"/>
      <point x="367" y="472" type="qcurve"/>
      <point x="399" y="472"/>
      <point x="432" y="446"/>
    </contour>
    <contour>
      <point x="332" y="71" type="qcurve"/>
      <point x="332" y="34"/>
      <point x="285" y="-15"/>
      <point x="246" y="-15" type="qcurve"/>
      <point x="216" y="-15"/>
      <point x="182" y="13"/>
      <point x="182" y="38" type="qcurve"/>
      <point x="182" y="72"/>
      <point x="231" y="122"/>
      <point x="267" y="122" type="qcurve"/>
      <point x="299" y="122"/>
      <point x="332" y="96"/>
    </contour>
  </outline>
</glyph>
<glyph name="less" format="2">
  <advance width="614"/>
  <unicode hex="003C"/>
  <outline>
    <contour>
      <point x="92" y="294" type="line"/>
      <point x="107" y="349" type="line"/>
      <point x="628" y="552" type="line"/>
      <point x="612" y="493" type="line"/>
      <point x="149" y="317" type="line"/>
      <point x="511" y="142" type="line"/>
      <point x="496" y="91" type="line"/>
    </contour>
  </outline>
</glyph>
<glyph name="equal" format="2">
  <advance width="614"/>
  <unicode hex="003D"/>
  <outline>
    <contour>
      <point x="572" y="392" type="line"/>
      <point x="134" y="392" type="line"/>
      <point x="149" y="443" type="line"/>
      <point x="587" y="443" type="line"/>
    </contour>
    <contour>
      <point x="520" y="209" type="line"/>
      <point x="82" y="209" type="line"/>
      <point x="97" y="261" type="line"/>
      <point x="535" y="261" type="line"/>
    </contour>
  </outline>
</glyph>
<glyph name="greater" format="2">
  <advance width="614"/>
  <unicode hex="003E"/>
  <outline>
    <contour>
      <point x="575" y="349" type="line"/>
      <point x="560" y="294" type="line"/>
      <point x="39" y="91" type="line"/>
      <point x="55" y="150" type="line"/>
      <point x="518" y="326" type="line"/>
      <point x="156" y="501" type="line"/>
      <point x="171" y="552" type="line"/>
    </contour>
  </outline>
</glyph>
<glyph name="A" format="2">
  <advance width="614"/>
  <unicode hex="0041"/>
  <outline>
    <contour>
      <point x="171" y="201" type="line"/>
      <point x="47" y="0" type="line"/>
      <point x="-20" y="0" type="line"/>
      <point x="393" y="655" type="line"/>
      <point x="467" y="655" type="line"/>
      <point x="502" y="0" type="line"/>
      <point x="442" y="0" type="line"/>
      <point x="432" y="201" type="line"/>
    </contour>
    <contour>
      <point x="414" y="596" type="line"/>
      <point x="202" y="252" type="line"/>
      <point x="430" y="252" type="line"/>
    </contour>
  </outline>
</glyph>
<glyph name="B" format="2">
  <advance width="614"/>
  <unicode hex="0042"/>
  <outline>
    <contour>
      <point x="37" y="0" type="line"/>
      <point x="225" y="655" type="line"/>
      <point x="444" y="655" type="line"/>
      <point x="527" y="655"/>
      <point x="617" y="589"/>
      <point x="617" y="529" type="qcurve"/>
      <point x="617" y="457"/>
      <point x="514" y="360"/>
      <point x="413" y="338" type="qcurve"/>
      <point x="413" y="334" type="line"/>
      <point x="479" y="321"/>
      <point x="548" y="249"/>
      <point x="548" y="194" type="qcurve"/>
      <point x="548" y="106"/>
      <point x="405" y="0"/>
      <point x="281" y="0" type="qcurve"/>
    </contour>
    <contour>
      <point x="551" y="519" type="qcurve"/>
      <point x="551" y="561"/>
      <point x="492" y="606"/>
      <point x="436" y="606" type="qcurve"/>
      <point x="270" y="606" type="line"/>
      <point x="199" y="359" type="line"/>
      <point x="317" y="364" type="line"/>
      <point x="423" y="369"/>
      <point x="551" y="457"/>
    </contour>
    <contour>
      <point x="485" y="198" type="qcurve"/>
      <point x="485" y="248"/>
      <point x="400" y="308"/>
      <point x="323" y="310" type="qcurve"/>
      <point x="186" y="314" type="line"/>
      <point x="110" y="49" type="line"/>
      <point x="297" y="49" type="line"/>
      <point x="380" y="49"/>
      <point x="485" y="135"/>
    </contour>
  </outline>
</glyph>
<glyph name="I" format="2">
  <advance width="614"/>
  <unicode hex="0049"/>
  <outline>
    <contour>
      <point x="73" y="0" type="line"/>
      <point x="81" y="26" type="line"/>
      <point x="219" y="49" type="line"/>
      <point x="391" y="608" type="line"/>
      <point x="253" y="629" type="line"/>
      <point x="261" y="655" type="line"/>
      <point x="597" y="655" type="line"/>
      <point x="589" y="629" type="line"/>
      <point x="452" y="606" type="line"/>
      <point x="280" y="47" type="line"/>
      <point x="416" y="26" type="line"/>
      <point x="409" y="0" type="line"/>
    </contour>
  </outline>
</glyph>
<glyph name="J" format="2">
  <advance width="614"/>
  <unicode hex="004A"/>
  <outline>
    <contour>
      <point x="263" y="-10" type="qcurve"/>
      <point x="197" y="-10"/>
      <point x="96" y="57"/>
      <point x="36" y="138" type="qcurve"/>
      <point x="82" y="175" type="line"/>
      <point x="134" y="102"/>
      <point x="215" y="40"/>
      <point x="266" y="40" type="qcurve"/>
      <point x="327" y="40"/>
      <point x="408" y="111"/>
      <point x="428" y="182" type="qcurve"/>
      <point x="564" y="655" type="line"/>
      <point x="625" y="655" type="line"/>
      <point x="489" y="180" type="line"/>
      <point x="461" y="83"/>
      <point x="349" y="-10"/>
    </contour>
  </outline>
</glyph>
<glyph name="K" format="2">
  <advance width="614"/>
  <unicode hex="004B"/>
  <outline>
    <contour>
      <point x="225" y="655" type="line"/>
      <point x="286" y="655" type="line"/>
      <point x="195" y="338" type="line"/>
      <point x="603" y="655" type="line"/>
      <point x="692" y="655" type="line"/>
      <point x="692" y="653" type="line"/>
      <point x="264" y="326" type="line"/>
      <point x="519" y="2" type="line"/>
      <point x="519" y="0" type="line"/>
      <point x="440" y="0" type="line"/>
      <point x="191" y="324" type="line"/>
      <point x="98" y="0" type="line"/>
      <point x="37" y="0" type="line"/>
    </contour>
  </outline>
</glyph>
<glyph name="O" format="2">
  <advance width="614"/>
  <unicode hex="004F"/>
  <outline>
    <contour>
      <point x="84" y="366" type="qcurve"/>
      <point x="123" y="501"/>
      <point x="300" y="670"/>
      <point x="407" y="670" type="qcurve"/>
      <point x="502" y="670"/>
      <point x="606" y="556"/>
      <point x="606" y="449" type="qcurve"/>
      <point x="606" y="411"/>
      <point x="594" y="327"/>
      <point x="583" y="289" type="qcurve"/>
      <point x="544" y="154"/>
      <point x="367" y="-15"/>
      <point x="260" y="-15" type="qcurve"/>
      <point x="165" y="-15"/>
      <point x="61" y="99"/>
      <point x="61" y="206" type="qcurve"/>
      <point x="61" y="244"/>
      <point x="73" y="328"/>
    </contour>
    <contour>
      <point x="124" y="203" type="qcurve"/>
      <point x="124" y="122"/>
      <point x="196" y="36"/>
      <point x="263" y="36" type="qcurve"/>
      <point x="347" y="36"/>
      <point x="486" y="176"/>
      <point x="519" y="290" type="qcurve"/>
      <point x="531" y="330"/>
      <point x="543" y="415"/>
      <point x="543" y="452" type="qcurve"/>
      <point x="543" y="533"/>
      <point x="471" y="619"/>
      <point x="404" y="619" type="qcurve"/>
      <point x="320" y="619"/>
      <point x="181" y="479"/>
      <point x="148" y="365" type="qcurve"/>
      <point x="136" y="325"/>
      <point x="124" y="240"/>
    </contour>
  </outline>
</glyph>
<glyph name="P" format="2">
  <advance width="614"/>
  <unicode hex="0050"/>
  <outline>
    <contour>
      <point x="37" y="0" type="line"/>
      <point x="225" y="655" type="line"/>
      <point x="440" y="655" type="line"/>
      <point x="529" y="655"/>
      <point x="630" y="567"/>
      <point x="630" y="490" type="qcurve"/>
      <point x="630" y="439"/>
      <point x="593" y="348"/>
      <point x="558" y="313" type="qcurve"/>
      <point x="517" y="272"/>
      <point x="400" y="236"/>
      <point x="306" y="236" type="qcurve"/>
      <point x="166" y="236" type="line"/>
      <point x="98" y="0" type="line"/>
    </contour>
    <contour>
      <point x="564" y="498" type="qcurve"/>
      <point x="564" y="550"/>
      <point x="494" y="604"/>
      <point x="427" y="604" type="qcurve"/>
      <point x="271" y="604" type="line"/>
      <point x="180" y="286" type="line"/>
      <point x="316" y="286" type="line"/>
      <point x="434" y="286"/>
      <point x="564" y="398"/>
    </contour>
  </outline>
</glyph>
<glyph name="Q" format="2">
  <advance width="614"/>
  <unicode hex="0051"/>
  <outline>
    <contour>
      <point x="420" y="40" type="qcurve"/>
      <point x="497" y="-108" type="line"/>
      <point x="448" y="-137" type="line"/>
      <point x="375" y="12" type="line"/>
      <point x="346" y="-2"/>
      <point x="289" y="-15"/>
      <point x="260" y="-15" type="qcurve"/>
      <point x="165" y="-15"/>
      <point x="61" y="99"/>
      <point x="61" y="206" type="qcurve"/>
      <point x="61" y="244"/>
      <point x="73" y="328"/>
      <point x="84" y="366" type="qcurve"/>
      <point x="123" y="501"/>
      <point x="300" y="670"/>
      <point x="407" y="670" type="qcurve"/>
      <point x="502" y="670"/>
      <point x="606" y="556"/>
      <point x="606" y="449" type="qcurve"/>
      <point x="606" y="411"/>
      <point x="594" y="327"/>
      <point x="583" y="289" type="qcurve"/>
      <point x="560" y="209"/>
      <point x="475" y="80"/>
    </contour>
    <contour>
      <point x="124" y="203" type="qcurve"/>
      <point x="124" y="122"/>
      <point x="196" y="36"/>
      <point x="263" y="36" type="qcurve"/>
      <point x="286" y="36"/>
      <point x="331" y="47"/>
      <point x="352" y="58" type="qcurve"/>
      <point x="278" y="206" type="line"/>
      <point x="323" y="231" type="line"/>
      <point x="396" y="87" type="line"/>
      <point x="437" y="121"/>
      <point x="501" y="227"/>
      <point x="519" y="290" type="qcurve"/>
      <point x="531" y="330"/>
      <point x="543" y="415"/>
      <point x="543" y="452" type="qcurve"/>
      <point x="543" y="533"/>
      <point x="471" y="619"/>
      <point x="404" y="619" type="qcurve"/>
      <point x="320" y="619"/>
      <point x="181" y="479"/>
      <point x="148" y="365" type="qcurve"/>
      <point x="136" y="325"/>
      <point x="124" y="240"/>
    </contour>
  </outline>
</glyph>
<glyph name="S" format="2">
  <advance width="614"/>
  <unicode hex="0053"/>
  <outline>
    <contour>
      <point x="284" y="38" type="qcurve"/>
      <point x="367" y="38"/>
      <point x="461" y="111"/>
      <point x="461" y="175" type="qcurve"/>
      <point x="461" y="212"/>
      <point x="418" y="270"/>
      <point x="374" y="295" type="qcurve"/>
      <point x="284" y="345" type="line"/>
      <point x="229" y="376"/>
      <point x="178" y="450"/>
      <point x="178" y="499" type="qcurve"/>
      <point x="178" y="572"/>
      <point x="302" y="668"/>
      <point x="403" y="668" type="qcurve"/>
      <point x="459" y="668"/>
      <point x="556" y="649"/>
      <point x="623" y="625" type="qcurve"/>
      <point x="605" y="571" type="line"/>
      <point x="549" y="595"/>
      <point x="451" y="617"/>
      <point x="403" y="617" type="qcurve"/>
      <point x="327" y="617"/>
      <point x="241" y="556"/>
      <point x="241" y="503" type="qcurve"/>
      <point x="241" y="466"/>
      <point x="277" y="415"/>
      <point x="318" y="392" type="qcurve"/>
      <point x="408" y="341" type="line"/>
      <point x="471" y="305"/>
      <point x="524" y="234"/>
      <point x="524" y="177" type="qcurve"/>
      <point x="524" y="89"/>
      <point x="395" y="-13"/>
      <point x="284" y="-13" type="qcurve"/>
      <point x="220" y="-13"/>
      <point x="104" y="20"/>
      <point x="33" y="59" type="qcurve"/>
      <point x="60" y="110" type="line"/>
      <point x="127" y="72"/>
      <point x="234" y="38"/>
    </contour>
  </outline>
</glyph>
<glyph name="T" format="2">
  <advance width="614"/>
  <unicode hex="0054"/>
  <outline>
    <contour>
      <point x="381" y="604" type="line"/>
      <point x="160" y="604" type="line"/>
      <point x="175" y="655" type="line"/>
      <point x="677" y="655" type="line"/>
      <point x="662" y="604" type="line"/>
      <point x="442" y="604" type="line"/>
      <point x="269" y="0" type="line"/>
      <point x="208" y="0" type="line"/>
    </contour>
  </outline>
</glyph>
<glyph name="X" format="2">
  <advance width="614"/>
  <unicode hex="0058"/>
  <outline>
    <contour>
      <point x="66" y="0" type="line"/>
      <point x="-8" y="0" type="line"/>
      <point x="304" y="343" type="line"/>
      <point x="192" y="655" type="line"/>
      <point x="260" y="655" type="line"/>
      <point x="347" y="386" type="line"/>
      <point x="581" y="655" type="line"/>
      <point x="659" y="655" type="line"/>
      <point x="368" y="333" type="line"/>
      <point x="492" y="0" type="line"/>
      <point x="422" y="0" type="line"/>
      <point x="324" y="290" type="line"/>
    </contour>
  </outline>
</glyph>
<glyph name="Y" format="2">
  <advance width="614"/>
  <unicode hex="0059"/>
  <outline>
    <contour>
      <point x="607" y="655" type="line"/>
      <point x="683" y="655" type="line"/>
      <point x="348" y="267" type="line"/>
      <point x="272" y="0" type="line"/>
      <point x="211" y="0" type="line"/>
      <point x="294" y="288" type="line"/>
      <point x="175" y="655" type="line"/>
      <point x="241" y="655" type="line"/>
      <point x="339" y="337" type="line"/>
    </contour>
  </outline>
</glyph>
<glyph name="Z" format="2">
  <advance width="614"/>
  <unicode hex="005A"/>
  <outline>
    <contour>
      <point x="480" y="0" type="line"/>
      <point x="16" y="0" type="line"/>
      <point x="16" y="29" type="line"/>
      <point x="540" y="601" type="line"/>
      <point x="540" y="604" type="line"/>
      <point x="177" y="604" type="line"/>
      <point x="192" y="655" type="line"/>
      <point x="637" y="655" type="line"/>
      <point x="637" y="626" type="line"/>
      <point x="112" y="53" type="line"/>
      <point x="112" y="50" type="line"/>
      <point x="494" y="50" type="line"/>
    </contour>
  </outline>
</glyph>
<glyph name="bracketleft" format="2">
  <advance width="614"/>
  <unicode hex="005B"/>
  <outline>
    <contour>
      <point x="411" y="-129" type="line"/>
      <point x="102" y="-129" type="line"/>
      <point x="364" y="783" type="line"/>
      <point x="673" y="783" type="line"/>
      <point x="658" y="732" type="line"/>
      <point x="410" y="732" type="line"/>
      <point x="178" y="-78" type="line"/>
      <point x="426" y="-78" type="line"/>
    </contour>
  </outline>
</glyph>
<glyph name="bracketright" format="2">
  <advance width="614"/>
  <unicode hex="005D"/>
  <outline>
    <contour>
      <point x="492" y="732" type="line"/>
      <point x="244" y="732" type="line"/>
      <point x="259" y="783" type="line"/>
      <point x="568" y="783" type="line"/>
      <point x="306" y="-129" type="line"/>
      <point x="-3" y="-129" type="line"/>
      <point x="12" y="-78" type="line"/>
      <point x="260" y="-78" type="line"/>
    </contour>
  </outline>
</glyph>
<glyph name="asciicircum" format="2">
  <advance width="614"/>
  <unicode hex="005E"/>
  <outline>
    <contour>
      <point x="142" y="271" type="line"/>
      <point x="70" y="271" type="line"/>
      <point x="399" y="655" type="line"/>
      <point x="459" y="655" type="line"/>
      <point x="566" y="271" type="line"/>
      <point x="501" y="271" type="line"/>
      <point x="416" y="599" type="line"/>
    </contour>
  </outline>
</glyph>
<glyph name="a" format="2">
  <advance width="614"/>
  <unicode hex="0061"/>
  <outline>
    <contour>
      <point x="514" y="319" type="qcurve"/>
      <point x="437" y="102" type="line"/>
      <point x="434" y="93"/>
      <point x="431" y="79"/>
      <point x="431" y="74" type="qcurve"/>
      <point x="431" y="64"/>
      <point x="446" y="54"/>
      <point x="469" y="50" type="qcurve"/>
      <point x="513" y="44" type="line"/>
      <point x="499" y="-3" type="line"/>
      <point x="450" y="2" type="line"/>
      <point x="413" y="5"/>
      <point x="375" y="38"/>
      <point x="370" y="70" type="qcurve"/>
      <point x="364" y="70" type="line"/>
      <point x="295" y="29"/>
      <point x="194" y="-5"/>
      <point x="141" y="-5" type="qcurve"/>
      <point x="90" y="-5"/>
      <point x="39" y="40"/>
      <point x="39" y="84" type="qcurve"/>
      <point x="39" y="118"/>
      <point x="66" y="182"/>
      <point x="90" y="206" type="qcurve"/>
      <point x="117" y="233"/>
      <point x="203" y="258"/>
      <point x="290" y="266" type="qcurve"/>
      <point x="442" y="280" type="line"/>
      <point x="457" y="323"/>
      <point x="462" y="344"/>
      <point x="462" y="356" type="qcurve"/>
      <point x="462" y="387"/>
      <point x="407" y="415"/>
      <point x="347" y="415" type="qcurve"/>
      <point x="318" y="415"/>
      <point x="218" y="404"/>
      <point x="161" y="395" type="qcurve"/>
      <point x="176" y="448" type="line"/>
      <point x="230" y="457"/>
      <point x="316" y="465"/>
      <point x="363" y="465" type="qcurve"/>
      <point x="444" y="465"/>
      <point x="523" y="418"/>
      <point x="523" y="369" type="qcurve"/>
      <point x="523" y="356"/>
      <point x="519" y="331"/>
    </contour>
    <contour>
      <point x="102" y="94" type="qcurve"/>
      <point x="102" y="67"/>
      <point x="131" y="45"/>
      <point x="164" y="45" type="qcurve"/>
      <point x="212" y="45"/>
      <point x="322" y="87"/>
      <point x="390" y="132" type="qcurve"/>
      <point x="425" y="234" type="line"/>
      <point x="300" y="222" type="line"/>
      <point x="230" y="215"/>
      <point x="156" y="194"/>
      <point x="136" y="174" type="qcurve"/>
      <point x="119" y="157"/>
      <point x="102" y="117"/>
    </contour>
  </outline>
</glyph>
<glyph name="b" format="2">
  <advance width="614"/>
  <unicode hex="0062"/>
  <outline>
    <contour>
      <point x="239" y="710" type="line"/>
      <point x="298" y="710" type="line"/>
      <point x="199" y="365" type="line"/>
      <point x="254" y="420"/>
      <point x="346" y="468"/>
      <point x="397" y="468" type="qcurve"/>
      <point x="470" y="468"/>
      <point x="558" y="376"/>
      <point x="558" y="300" type="qcurve"/>
      <point x="558" y="167"/>
      <point x="373" y="-8"/>
      <point x="226" y="-8" type="qcurve"/>
      <point x="182" y="-8"/>
      <point x="79" y="16"/>
      <point x="44" y="34" type="qcurve"/>
    </contour>
    <contour>
      <point x="496" y="297" type="qcurve"/>
      <point x="496" y="351"/>
      <point x="438" y="418"/>
      <point x="391" y="418" type="qcurve"/>
      <point x="342" y="418"/>
      <point x="254" y="365"/>
      <point x="179" y="296" type="qcurve"/>
      <point x="112" y="63" type="line"/>
      <point x="136" y="52"/>
      <point x="192" y="42"/>
      <point x="227" y="42" type="qcurve"/>
      <point x="348" y="42"/>
      <point x="496" y="191"/>
    </contour>
  </outline>
</glyph>
<glyph name="d" format="2">
  <advance width="614"/>
  <unicode hex="0064"/>
  <outline>
    <contour>
      <point x="448" y="0" type="line"/>
      <point x="399" y="0" type="line"/>
      <point x="417" y="95" type="line"/>
      <point x="361" y="41"/>
      <point x="265" y="-8"/>
      <point x="212" y="-8" type="qcurve"/>
      <point x="142" y="-8"/>
      <point x="56" y="84"/>
      <point x="56" y="160" type="qcurve"/>
      <point x="56" y="293"/>
      <point x="246" y="468"/>
      <point x="396" y="468" type="qcurve"/>
      <point x="428" y="468"/>
      <point x="489" y="457"/>
      <point x="517" y="446" type="qcurve"/>
      <point x="593" y="710" type="line"/>
      <point x="652" y="710" type="line"/>
    </contour>
    <contour>
      <point x="399" y="418" type="qcurve"/>
      <point x="273" y="418"/>
      <point x="118" y="269"/>
      <point x="118" y="163" type="qcurve"/>
      <point x="118" y="109"/>
      <point x="174" y="42"/>
      <point x="218" y="42" type="qcurve"/>
      <point x="270" y="42"/>
      <point x="363" y="96"/>
      <point x="436" y="163" type="qcurve"/>
      <point x="503" y="398" type="line"/>
      <point x="478" y="408"/>
      <point x="427" y="418"/>
    </contour>
  </outline>
</glyph>
<glyph name="e" format="2">
  <advance width="614"/>
  <unicode hex="0065"/>
  <outline>
    <contour>
      <point x="409" y="44" type="qcurve"/>
      <point x="393" y="-5" type="line"/>
      <point x="305" y="-5"/>
      <point x="183" y="10"/>
      <point x="146" y="28" type="qcurve"/>
      <point x="107" y="47"/>
      <point x="74" y="110"/>
      <point x="74" y="158" type="qcurve"/>
      <point x="74" y="219"/>
      <point x="128" y="337"/>
      <point x="177" y="383" type="qcurve"/>
      <point x="224" y="427"/>
      <point x="344" y="475"/>
      <point x="408" y="475" type="qcurve"/>
      <point x="481" y="475"/>
      <point x="567" y="411"/>
      <point x="567" y="358" type="qcurve"/>
      <point x="567" y="287"/>
      <point x="443" y="217"/>
      <point x="307" y="204" type="qcurve"/>
      <point x="138" y="189" type="line"/>
      <point x="137" y="181"/>
      <point x="136" y="167"/>
      <point x="136" y="160" type="qcurve"/>
      <point x="136" y="87"/>
      <point x="266" y="44"/>
    </contour>
    <contour>
      <point x="505" y="358" type="qcurve"/>
      <point x="505" y="387"/>
      <point x="452" y="425"/>
      <point x="408" y="425" type="qcurve"/>
      <point x="321" y="425"/>
      <point x="174" y="316"/>
      <point x="148" y="233" type="qcurve"/>
      <point x="304" y="248" type="line"/>
      <point x="405" y="258"/>
      <point x="505" y="312"/>
    </contour>
  </outline>
</glyph>
<glyph name="h" format="2">
  <advance width="614"/>
  <unicode hex="0068"/>
  <outline>
    <contour>
      <point x="241" y="710" type="line"/>
      <point x="300" y="710" type="line"/>
      <point x="183" y="304" type="line"/>
      <point x="274" y="397"/>
      <point x="378" y="465"/>
      <point x="437" y="465" type="qcurve"/>
      <point x="486" y="465"/>
      <point x="546" y="412"/>
      <point x="546" y="369" type="qcurve"/>
      <point x="546" y="357"/>
      <point x="538" y="316"/>
      <point x="529" y="284" type="qcurve"/>
      <point x="447" y="0" type="line"/>
      <point x="388" y="0" type="line"/>
      <point x="472" y="292" type="line"/>
      <point x="479" y="316"/>
      <point x="485" y="348"/>
      <point x="485" y="360" type="qcurve"/>
      <point x="485" y="385"/>
      <point x="452" y="413"/>
      <point x="422" y="413" type="qcurve"/>
      <point x="376" y="413"/>
      <point x="272" y="335"/>
      <point x="159" y="221" type="qcurve"/>
      <point x="96" y="0" type="line"/>
      <point x="37" y="0" type="line"/>
    </contour>
  </outline>
</glyph>
<glyph name="i" format="2">
  <advance width="614"/>
  <unicode hex="0069"/>
  <outline>
    <contour>
      <point x="478" y="675" type="qcurve"/>
      <point x="478" y="649"/>
      <point x="438" y="614"/>
      <point x="408" y="614" type="qcurve"/>
      <point x="382" y="614"/>
      <point x="351" y="639"/>
      <point x="351" y="661" type="qcurve"/>
      <point x="351" y="686"/>
      <point x="391" y="721"/>
      <point x="421" y="721" type="qcurve"/>
      <point x="449" y="721"/>
      <point x="478" y="697"/>
    </contour>
    <contour>
      <point x="57" y="0" type="line"/>
      <point x="71" y="50" type="line"/>
      <point x="232" y="50" type="line"/>
      <point x="354" y="410" type="line"/>
      <point x="195" y="410" type="line"/>
      <point x="209" y="460" type="line"/>
      <point x="430" y="460" type="line"/>
      <point x="291" y="50" type="line"/>
      <point x="470" y="50" type="line"/>
      <point x="456" y="0" type="line"/>
    </contour>
  </outline>
</glyph>
<glyph name="j" format="2">
  <advance width="614"/>
  <unicode hex="006A"/>
  <outline>
    <contour>
      <point x="531" y="675" type="qcurve"/>
      <point x="531" y="649"/>
      <point x="491" y="614"/>
      <point x="461" y="614" type="qcurve"/>
      <point x="435" y="614"/>
      <point x="404" y="639"/>
      <point x="404" y="661" type="qcurve"/>
      <point x="404" y="686"/>
      <point x="444" y="721"/>
      <point x="474" y="721" type="qcurve"/>
      <point x="502" y="721"/>
      <point x="531" y="697"/>
    </contour>
    <contour>
      <point x="464" y="460" type="line"/>
      <point x="334" y="8" type="line"/>
      <point x="310" y="-76"/>
      <point x="268" y="-157"/>
      <point x="240" y="-180" type="qcurve"/>
      <point x="210" y="-203"/>
      <point x="117" y="-228"/>
      <point x="36" y="-234" type="qcurve"/>
      <point x="-32" y="-239" type="line"/>
      <point x="-32" y="-188" type="line"/>
      <point x="33" y="-184" type="line"/>
      <point x="95" y="-180"/>
      <point x="173" y="-159"/>
      <point x="198" y="-138" type="qcurve"/>
      <point x="223" y="-119"/>
      <point x="259" y="-51"/>
      <point x="277" y="13" type="qcurve"/>
      <point x="391" y="410" type="line"/>
      <point x="180" y="410" type="line"/>
      <point x="194" y="460" type="line"/>
    </contour>
  </outline>
</glyph>
<glyph name="k" format="2">
  <advance width="614"/>
  <unicode hex="006B"/>
  <outline>
    <contour>
      <point x="262" y="710" type="line"/>
      <point x="321" y="710" type="line"/>
      <point x="190" y="256" type="line"/>
      <point x="509" y="460" type="line"/>
      <point x="599" y="460" type="line"/>
      <point x="599" y="458" type="line"/>
      <point x="254" y="237" type="line"/>
      <point x="470" y="2" type="line"/>
      <point x="470" y="0" type="line"/>
      <point x="396" y="0" type="line"/>
      <point x="183" y="230" type="line"/>
      <point x="117" y="0" type="line"/>
      <point x="58" y="0" type="line"/>
    </contour>
  </outline>
</glyph>
<glyph name="m" format="2">
  <advance width="614"/>
  <unicode hex="006D"/>
  <outline>
    <contour>
      <point x="124" y="460" type="line"/>
      <point x="173" y="460" type="line"/>
      <point x="142" y="325" type="line"/>
      <point x="144" y="325" type="line"/>
      <point x="196" y="397"/>
      <point x="278" y="465"/>
      <point x="315" y="465" type="qcurve"/>
      <point x="346" y="465"/>
      <point x="382" y="431"/>
      <point x="382" y="403" type="qcurve"/>
      <point x="382" y="396"/>
      <point x="380" y="382"/>
      <point x="377" y="372" type="qcurve"/>
      <point x="365" y="330" type="line"/>
      <point x="367" y="330" type="line"/>
      <point x="420" y="401"/>
      <point x="499" y="465"/>
      <point x="535" y="465" type="qcurve"/>
      <point x="566" y="465"/>
      <point x="602" y="431"/>
      <point x="602" y="403" type="qcurve"/>
      <point x="602" y="396"/>
      <point x="600" y="382"/>
      <point x="597" y="372" type="qcurve"/>
      <point x="490" y="0" type="line"/>
      <point x="432" y="0" type="line"/>
      <point x="533" y="354" type="line"/>
      <point x="538" y="371"/>
      <point x="541" y="386"/>
      <point x="541" y="391" type="qcurve"/>
      <point x="541" y="403"/>
      <point x="528" y="415"/>
      <point x="515" y="415" type="qcurve"/>
      <point x="491" y="415"/>
      <point x="414" y="339"/>
      <point x="342" y="249" type="qcurve"/>
      <point x="270" y="0" type="line"/>
      <point x="212" y="0" type="line"/>
      <point x="313" y="354" type="line"/>
      <point x="318" y="371"/>
      <point x="321" y="386"/>
      <point x="321" y="391" type="qcurve"/>
      <point x="321" y="403"/>
      <point x="308" y="415"/>
      <point x="295" y="415" type="qcurve"/>
      <point x="271" y="415"/>
      <point x="194" y="339"/>
      <point x="121" y="249" type="qcurve"/>
      <point x="50" y="0" type="line"/>
      <point x="-8" y="0" type="line"/>
    </contour>
  </outline>
</glyph>
<glyph name="n" format="2">
  <advance width="614"/>
  <unicode hex="006E"/>
  <outline>
    <contour>
      <point x="169" y="460" type="line"/>
      <point x="228" y="460" type="line"/>
      <point x="183" y="304" type="line"/>
      <point x="275" y="398"/>
      <point x="377" y="465"/>
      <point x="437" y="465" type="qcurve"/>
      <point x="486" y="465"/>
      <point x="546" y="412"/>
      <point x="546" y="369" type="qcurve"/>
      <point x="546" y="357"/>
      <point x="538" y="316"/>
      <point x="529" y="284" type="qcurve"/>
      <point x="447" y="0" type="line"/>
      <point x="388" y="0" type="line"/>
      <point x="472" y="292" type="line"/>
      <point x="479" y="316"/>
      <point x="485" y="348"/>
      <point x="485" y="360" type="qcurve"/>
      <point x="485" y="385"/>
      <point x="452" y="413"/>
      <point x="422" y="413" type="qcurve"/>
      <point x="376" y="413"/>
      <point x="272" y="334"/>
      <point x="159" y="220" type="qcurve"/>
      <point x="96" y="0" type="line"/>
      <point x="37" y="0" type="line"/>
    </contour>
  </outline>
</glyph>
<glyph name="o" format="2">
  <advance width="614"/>
  <unicode hex="006F"/>
  <outline>
    <contour>
      <point x="58" y="187" type="qcurve"/>
      <point x="58" y="243"/>
      <point x="105" y="351"/>
      <point x="147" y="392" type="qcurve"/>
      <point x="189" y="432"/>
      <point x="296" y="475"/>
      <point x="356" y="475" type="qcurve"/>
      <point x="446" y="475"/>
      <point x="556" y="362"/>
      <point x="556" y="273" type="qcurve"/>
      <point x="556" y="217"/>
      <point x="509" y="109"/>
      <point x="467" y="68" type="qcurve"/>
      <point x="425" y="28"/>
      <point x="318" y="-15"/>
      <point x="258" y="-15" type="qcurve"/>
      <point x="168" y="-15"/>
      <point x="58" y="98"/>
    </contour>
    <contour>
      <point x="118" y="185" type="qcurve"/>
      <point x="118" y="119"/>
      <point x="200" y="34"/>
      <point x="263" y="34" type="qcurve"/>
      <point x="356" y="34"/>
      <point x="496" y="179"/>
      <point x="496" y="275" type="qcurve"/>
      <point x="496" y="341"/>
      <point x="414" y="426"/>
      <point x="351" y="426" type="qcurve"/>
      <point x="258" y="426"/>
      <point x="118" y="281"/>
    </contour>
  </outline>
</glyph>
<glyph name="q" format="2">
  <advance width="614"/>
  <unicode hex="0071"/>
  <outline>
    <contour>
      <point x="382" y="-230" type="line"/>
      <point x="323" y="-230" type="line"/>
      <point x="416" y="93" type="line"/>
      <point x="360" y="39"/>
      <point x="265" y="-8"/>
      <point x="212" y="-8" type="qcurve"/>
      <point x="142" y="-8"/>
      <point x="56" y="84"/>
      <point x="56" y="160" type="qcurve"/>
      <point x="56" y="293"/>
      <point x="246" y="468"/>
      <point x="396" y="468" type="qcurve"/>
      <point x="438" y="468"/>
      <point x="525" y="447"/>
      <point x="570" y="426" type="qcurve"/>
    </contour>
    <contour>
      <point x="399" y="418" type="qcurve"/>
      <point x="273" y="418"/>
      <point x="118" y="269"/>
      <point x="118" y="163" type="qcurve"/>
      <point x="118" y="109"/>
      <point x="174" y="42"/>
      <point x="218" y="42" type="qcurve"/>
      <point x="270" y="42"/>
      <point x="363" y="96"/>
      <point x="436" y="163" type="qcurve"/>
      <point x="503" y="398" type="line"/>
      <point x="478" y="408"/>
      <point x="427" y="418"/>
    </contour>
  </outline>
</glyph>
<glyph name="t" format="2">
  <advance width="614"/>
  <unicode hex="0074"/>
  <outline>
    <contour>
      <point x="346" y="410" type="line"/>
      <point x="276" y="220" type="line"/>
      <point x="264" y="188"/>
      <point x="253" y="139"/>
      <point x="253" y="121" type="qcurve"/>
      <point x="253" y="87"/>
      <point x="296" y="52"/>
      <point x="342" y="50" type="qcurve"/>
      <point x="467" y="43" type="line"/>
      <point x="453" y="-8" type="line"/>
      <point x="348" y="-4" type="line"/>
      <point x="270" y="-1"/>
      <point x="193" y="59"/>
      <point x="193" y="116" type="qcurve"/>
      <point x="193" y="135"/>
      <point x="207" y="193"/>
      <point x="221" y="232" type="qcurve"/>
      <point x="286" y="410" type="line"/>
      <point x="116" y="410" type="line"/>
      <point x="130" y="460" type="line"/>
      <point x="305" y="460" type="line"/>
      <point x="370" y="637" type="line"/>
      <point x="429" y="637" type="line"/>
      <point x="364" y="460" type="line"/>
      <point x="565" y="460" type="line"/>
      <point x="551" y="410" type="line"/>
    </contour>
  </outline>
</glyph>
<glyph name="u" format="2">
  <advance width="614"/>
  <unicode hex="0075"/>
  <outline>
    <contour>
      <point x="445" y="0" type="line"/>
      <point x="386" y="0" type="line"/>
      <point x="431" y="156" type="line"/>
      <point x="339" y="62"/>
      <point x="237" y="-5"/>
      <point x="177" y="-5" type="qcurve"/>
      <point x="128" y="-5"/>
      <point x="68" y="48"/>
      <point x="68" y="91" type="qcurve"/>
      <point x="68" y="103"/>
      <point x="76" y="144"/>
      <point x="85" y="176" type="qcurve"/>
      <point x="167" y="460" type="line"/>
      <point x="226" y="460" type="line"/>
      <point x="142" y="168" type="line"/>
      <point x="135" y="144"/>
      <point x="129" y="112"/>
      <point x="129" y="100" type="qcurve"/>
      <point x="129" y="75"/>
      <point x="162" y="47"/>
      <point x="192" y="47" type="qcurve"/>
      <point x="238" y="47"/>
      <point x="342" y="126"/>
      <point x="455" y="240" type="qcurve"/>
      <point x="518" y="460" type="line"/>
      <point x="577" y="460" type="line"/>
    </contour>
  </outline>
</glyph>
<glyph name="v" format="2">
  <advance width="614"/>
  <unicode hex="0076"/>
  <outline>
    <contour>
      <point x="209" y="0" type="line"/>
      <point x="131" y="460" type="line"/>
      <point x="193" y="460" type="line"/>
      <point x="254" y="59" type="line"/>
      <point x="546" y="460" type="line"/>
      <point x="615" y="460" type="line"/>
      <point x="274" y="0" type="line"/>
    </contour>
  </outline>
</glyph>
<glyph name="x" format="2">
  <advance width="614"/>
  <unicode hex="0078"/>
  <outline>
    <contour>
      <point x="95" y="0" type="line"/>
      <point x="18" y="0" type="line"/>
      <point x="274" y="244" type="line"/>
      <point x="149" y="460" type="line"/>
      <point x="217" y="460" type="line"/>
      <point x="314" y="278" type="line"/>
      <point x="503" y="460" type="line"/>
      <point x="580" y="460" type="line"/>
      <point x="342" y="235" type="line"/>
      <point x="481" y="0" type="line"/>
      <point x="414" y="0" type="line"/>
      <point x="302" y="201" type="line"/>
    </contour>
  </outline>
</glyph>
<glyph name="braceleft" format="2">
  <advance width="614"/>
  <unicode hex="007B"/>
  <outline>
    <contour>
      <point x="129" y="-42" type="qcurve"/>
      <point x="129" y="-17"/>
      <point x="163" y="29"/>
      <point x="210" y="70" type="qcurve"/>
      <point x="275" y="127" type="line"/>
      <point x="311" y="159"/>
      <point x="332" y="183"/>
      <point x="332" y="198" type="qcurve"/>
      <point x="332" y="219"/>
      <point x="223" y="266"/>
      <point x="99" y="301" type="qcurve"/>
      <point x="117" y="361" type="line"/>
      <point x="168" y="374"/>
      <point x="248" y="395"/>
      <point x="279" y="404" type="qcurve"/>
      <point x="353" y="426"/>
      <point x="413" y="460"/>
      <point x="413" y="485" type="qcurve"/>
      <point x="413" y="494"/>
      <point x="403" y="519"/>
      <point x="393" y="537" type="qcurve"/>
      <point x="361" y="594" type="line"/>
      <point x="345" y="623"/>
      <point x="332" y="658"/>
      <point x="332" y="671" type="qcurve"/>
      <point x="332" y="711"/>
      <point x="393" y="758"/>
      <point x="454" y="766" type="qcurve"/>
      <point x="692" y="797" type="line"/>
      <point x="678" y="747" type="line"/>
      <point x="447" y="716" type="line"/>
      <point x="419" y="712"/>
      <point x="391" y="692"/>
      <point x="391" y="675" type="qcurve"/>
      <point x="391" y="666"/>
      <point x="400" y="642"/>
      <point x="410" y="625" type="qcurve"/>
      <point x="443" y="568" type="line"/>
      <point x="463" y="534"/>
      <point x="476" y="500"/>
      <point x="476" y="484" type="qcurve"/>
      <point x="476" y="449"/>
      <point x="416" y="402"/>
      <point x="348" y="378" type="qcurve"/>
      <point x="316" y="366"/>
      <point x="230" y="341"/>
      <point x="177" y="327" type="qcurve"/>
      <point x="177" y="324" type="line"/>
      <point x="220" y="310"/>
      <point x="280" y="290"/>
      <point x="302" y="281" type="qcurve"/>
      <point x="355" y="261"/>
      <point x="395" y="229"/>
      <point x="395" y="202" type="qcurve"/>
      <point x="395" y="181"/>
      <point x="357" y="133"/>
      <point x="308" y="90" type="qcurve"/>
      <point x="243" y="33" type="line"/>
      <point x="210" y="4"/>
      <point x="190" y="-19"/>
      <point x="190" y="-31" type="qcurve"/>
      <point x="190" y="-41"/>
      <point x="207" y="-53"/>
      <point x="225" y="-56" type="qcurve"/>
      <point x="439" y="-87" type="line"/>
      <point x="425" y="-135" type="line"/>
      <point x="204" y="-104" type="line"/>
      <point x="167" y="-99"/>
      <point x="129" y="-67"/>
    </contour>
  </outline>
</glyph>
<glyph name="asciitilde" format="2">
  <advance width="614"/>
  <unicode hex="007E"/>
  <outline>
    <contour>
      <point x="222" y="432" type="qcurve"/>
      <point x="243" y="432"/>
      <point x="293" y="403"/>
      <point x="340" y="365" type="qcurve"/>
      <point x="391" y="324"/>
      <point x="428" y="298"/>
      <point x="441" y="298" type="qcurve"/>
      <point x="458" y="298"/>
      <point x="496" y="343"/>
      <point x="560" y="445" type="qcurve"/>
      <point x="608" y="416" type="line"/>
      <point x="538" y="297"/>
      <point x="477" y="237"/>
      <point x="441" y="237" type="qcurve"/>
      <point x="420" y="237"/>
      <point x="370" y="266"/>
      <point x="323" y="304" type="qcurve"/>
      <point x="272" y="345"/>
      <point x="235" y="371"/>
      <point x="222" y="371" type="qcurve"/>
      <point x="205" y="371"/>
      <point x="167" y="326"/>
      <point x="103" y="224" type="qcurve"/>
      <point x="55" y="253" type="line"/>
      <point x="121" y="364"/>
      <point x="184" y="432"/>
    </contour>
  </outline>
</glyph>
<glyph name="exclamdown" format="2">
  <advance width="614"/>
  <unicode hex="00A1"/>
  <outline>
    <contour>
      <point x="497" y="680" type="qcurve"/>
      <point x="497" y="652"/>
      <point x="457" y="617"/>
      <point x="425" y="617" type="qcurve"/>
      <point x="400" y="617"/>
      <point x="369" y="642"/>
      <point x="369" y="662" type="qcurve"/>
      <point x="369" y="689"/>
      <point x="409" y="725"/>
      <point x="441" y="725" type="qcurve"/>
      <point x="467" y="725"/>
      <point x="497" y="700"/>
    </contour>
    <contour>
      <point x="363" y="483" type="line"/>
      <point x="397" y="483" type="line"/>
      <point x="300" y="0" type="line"/>
      <point x="181" y="0" type="line"/>
    </contour>
  </outline>
</glyph>
<glyph name="cent" format="2">
  <advance width="614"/>
  <unicode hex="00A2"/>
  <outline>
    <contour>
      <point x="234" y="-142" type="line"/>
      <point x="177" y="-142" type="line"/>
      <point x="226" y="1" type="line"/>
      <point x="154" y="9"/>
      <point x="72" y="101"/>
      <point x="72" y="176" type="qcurve"/>
      <point x="72" y="240"/>
      <point x="119" y="354"/>
      <point x="164" y="399" type="qcurve"/>
      <point x="207" y="442"/>
      <point x="318" y="490"/>
      <point x="375" y="490" type="qcurve"/>
      <point x="379" y="490"/>
      <point x="387" y="490"/>
      <point x="391" y="490" type="qcurve"/>
      <point x="440" y="632" type="line"/>
      <point x="497" y="632" type="line"/>
      <point x="446" y="483" type="line"/>
      <point x="476" y="477"/>
      <point x="540" y="448"/>
      <point x="582" y="421" type="qcurve"/>
      <point x="549" y="372" type="line"/>
      <point x="508" y="400"/>
      <point x="449" y="429"/>
      <point x="424" y="435" type="qcurve"/>
      <point x="295" y="51" type="line"/>
      <point x="331" y="55"/>
      <point x="420" y="85"/>
      <point x="479" y="113" type="qcurve"/>
      <point x="502" y="66" type="line"/>
      <point x="440" y="35"/>
      <point x="336" y="4"/>
      <point x="283" y="1" type="qcurve"/>
    </contour>
    <contour>
      <point x="215" y="368" type="qcurve"/>
      <point x="179" y="332"/>
      <point x="136" y="230"/>
      <point x="136" y="182" type="qcurve"/>
      <point x="136" y="126"/>
      <point x="197" y="56"/>
      <point x="250" y="51" type="qcurve"/>
      <point x="381" y="440" type="line"/>
      <point x="335" y="439"/>
      <point x="249" y="402"/>
    </contour>
  </outline>
</glyph>
<glyph name="yen" format="2">
  <advance width="614"/>
  <unicode hex="00A5"/>
  <outline>
    <contour>
      <point x="252" y="140" type="line"/>
      <point x="60" y="140" type="line"/>
      <point x="73" y="188" type="line"/>
      <point x="266" y="188" type="line"/>
      <point x="290" y="274" type="line"/>
      <point x="98" y="274" type="line"/>
      <point x="111" y="322" type="line"/>
      <point x="289" y="322" type="line"/>
      <point x="174" y="655" type="line"/>
      <point x="237" y="655" type="line"/>
      <point x="332" y="340" type="line"/>
      <point x="610" y="655" type="line"/>
      <point x="684" y="655" type="line"/>
      <point x="376" y="322" type="line"/>
      <point x="553" y="322" type="line"/>
      <point x="540" y="274" type="line"/>
      <point x="345" y="274" type="line"/>
      <point x="321" y="188" type="line"/>
      <point x="515" y="188" type="line"/>
      <point x="502" y="140" type="line"/>
      <point x="307" y="140" type="line"/>
      <point x="267" y="0" type="line"/>
      <point x="212" y="0" type="line"/>
    </contour>
  </outline>
</glyph>
<glyph name="section" format="2">
  <advance width="614"/>
  <unicode hex="00A7"/>
  <outline>
    <contour>
      <point x="51" y="194" type="qcurve"/>
      <point x="51" y="237"/>
      <point x="94" y="294"/>
      <point x="144" y="324" type="qcurve"/>
      <point x="171" y="341"/>
      <point x="246" y="378"/>
      <point x="296" y="400" type="qcurve"/>
      <point x="239" y="437"/>
      <point x="196" y="493"/>
      <point x="196" y="535" type="qcurve"/>
      <point x="196" y="602"/>
      <point x="309" y="670"/>
      <point x="422" y="670" type="qcurve"/>
      <point x="466" y="670"/>
      <point x="563" y="660"/>
      <point x="605" y="651" type="qcurve"/>
      <point x="591" y="598" type="line"/>
      <point x="550" y="609"/>
      <point x="467" y="619"/>
      <point x="422" y="619" type="qcurve"/>
      <point x="335" y="619"/>
      <point x="256" y="583"/>
      <point x="256" y="541" type="qcurve"/>
      <point x="256" y="513"/>
      <point x="291" y="474"/>
      <point x="339" y="444" type="qcurve"/>
      <point x="426" y="389" type="line"/>
      <point x="500" y="342"/>
      <point x="554" y="280"/>
      <point x="554" y="236" type="qcurve"/>
      <point x="554" y="193"/>
      <point x="511" y="136"/>
      <point x="461" y="106" type="qcurve"/>
      <point x="434" y="89"/>
      <point x="359" y="52"/>
      <point x="309" y="30" type="qcurve"/>
      <point x="365" y="-5"/>
      <point x="409" y="-63"/>
      <point x="409" y="-105" type="qcurve"/>
      <point x="409" y="-172"/>
      <point x="296" y="-240"/>
      <point x="183" y="-240" type="qcurve"/>
      <point x="139" y="-240"/>
      <point x="42" y="-230"/>
      <point x="0" y="-221" type="qcurve"/>
      <point x="14" y="-168" type="line"/>
      <point x="55" y="-179"/>
      <point x="138" y="-189"/>
      <point x="183" y="-189" type="qcurve"/>
      <point x="270" y="-189"/>
      <point x="349" y="-153"/>
      <point x="349" y="-111" type="qcurve"/>
      <point x="349" y="-83"/>
      <point x="314" y="-44"/>
      <point x="266" y="-14" type="qcurve"/>
      <point x="179" y="41" type="line"/>
      <point x="105" y="88"/>
      <point x="51" y="150"/>
    </contour>
    <contour>
      <point x="113" y="200" type="qcurve"/>
      <point x="113" y="171"/>
      <point x="160" y="125"/>
      <point x="232" y="79" type="qcurve"/>
      <point x="266" y="57" type="line"/>
      <point x="309" y="78"/>
      <point x="375" y="112"/>
      <point x="399" y="125" type="qcurve"/>
      <point x="451" y="155"/>
      <point x="492" y="198"/>
      <point x="492" y="230" type="qcurve"/>
      <point x="492" y="259"/>
      <point x="445" y="305"/>
      <point x="373" y="351" type="qcurve"/>
      <point x="339" y="373" type="line"/>
      <point x="296" y="352"/>
      <point x="230" y="318"/>
      <point x="206" y="305" type="qcurve"/>
      <point x="154" y="275"/>
      <point x="113" y="232"/>
    </contour>
  </outline>
</glyph>
<glyph name="copyright" format="2">
  <advance width="614"/>
  <unicode hex="00A9"/>
  <outline>
    <contour>
      <point x="623" y="546" type="qcurve"/>
      <point x="623" y="501"/>
      <point x="602" y="382"/>
      <point x="581" y="308" type="qcurve"/>
      <point x="525" y="114"/>
      <point x="356" y="-70"/>
      <point x="230" y="-70" type="qcurve"/>
      <point x="136" y="-70"/>
      <point x="48" y="19"/>
      <point x="48" y="112" type="qcurve"/>
      <point x="48" y="158"/>
      <point x="69" y="276"/>
      <point x="89" y="348" type="qcurve"/>
      <point x="145" y="541"/>
      <point x="314" y="725"/>
      <point x="440" y="725" type="qcurve"/>
      <point x="534" y="725"/>
      <point x="623" y="638"/>
    </contour>
    <contour>
      <point x="437" y="680" type="qcurve"/>
      <point x="329" y="680"/>
      <point x="187" y="511"/>
      <point x="134" y="328" type="qcurve"/>
      <point x="114" y="258"/>
      <point x="95" y="152"/>
      <point x="95" y="113" type="qcurve"/>
      <point x="95" y="42"/>
      <point x="161" y="-25"/>
      <point x="233" y="-25" type="qcurve"/>
      <point x="341" y="-25"/>
      <point x="483" y="144"/>
      <point x="536" y="328" type="qcurve"/>
      <point x="556" y="396"/>
      <point x="575" y="505"/>
      <point x="575" y="546" type="qcurve"/>
      <point x="575" y="615"/>
      <point x="509" y="680"/>
    </contour>
    <contour>
      <point x="280" y="97" type="qcurve"/>
      <point x="236" y="97"/>
      <point x="192" y="153"/>
      <point x="192" y="210" type="qcurve"/>
      <point x="192" y="258"/>
      <point x="220" y="371"/>
      <point x="245" y="421" type="qcurve"/>
      <point x="278" y="486"/>
      <point x="360" y="558"/>
      <point x="403" y="558" type="qcurve"/>
      <point x="437" y="558"/>
      <point x="481" y="525"/>
      <point x="508" y="484" type="qcurve"/>
      <point x="472" y="456" type="line"/>
      <point x="449" y="490"/>
      <point x="419" y="515"/>
      <point x="399" y="515" type="qcurve"/>
      <point x="370" y="515"/>
      <point x="309" y="446"/>
      <point x="284" y="386" type="qcurve"/>
      <point x="265" y="342"/>
      <point x="243" y="248"/>
      <point x="243" y="212" type="qcurve"/>
      <point x="243" y="176"/>
      <point x="266" y="140"/>
      <point x="288" y="140" type="qcurve"/>
      <point x="310" y="140"/>
      <point x="356" y="169"/>
      <point x="389" y="202" type="qcurve"/>
      <point x="419" y="172" type="line"/>
      <point x="378" y="131"/>
      <point x="317" y="97"/>
    </contour>
  </outline>
</glyph>
<glyph name="ordfeminine" format="2">
  <advance width="614"/>
  <unicode hex="00AA"/>
  <outline>
    <contour>
      <point x="546" y="578" type="qcurve"/>
      <point x="492" y="409" type="line"/>
      <point x="490" y="402"/>
      <point x="488" y="391"/>
      <point x="488" y="387" type="qcurve"/>
      <point x="488" y="379"/>
      <point x="498" y="371"/>
      <point x="514" y="368" type="qcurve"/>
      <point x="548" y="363" type="line"/>
      <point x="537" y="327" type="line"/>
      <point x="494" y="331" type="line"/>
      <point x="467" y="334"/>
      <point x="439" y="358"/>
      <point x="435" y="384" type="qcurve"/>
      <point x="431" y="384" type="line"/>
      <point x="376" y="352"/>
      <point x="294" y="325"/>
      <point x="251" y="325" type="qcurve"/>
      <point x="207" y="325"/>
      <point x="162" y="360"/>
      <point x="162" y="395" type="qcurve"/>
      <point x="162" y="423"/>
      <point x="181" y="473"/>
      <point x="199" y="491" type="qcurve"/>
      <point x="219" y="511"/>
      <point x="290" y="530"/>
      <point x="367" y="537" type="qcurve"/>
      <point x="485" y="547" type="line"/>
      <point x="498" y="591"/>
      <point x="500" y="602"/>
      <point x="500" y="607" type="qcurve"/>
      <point x="500" y="629"/>
      <point x="455" y="648"/>
      <point x="405" y="648" type="qcurve"/>
      <point x="376" y="648"/>
      <point x="295" y="640"/>
      <point x="253" y="632" type="qcurve"/>
      <point x="266" y="679" type="line"/>
      <point x="314" y="686"/>
      <point x="382" y="692"/>
      <point x="419" y="692" type="qcurve"/>
      <point x="486" y="692"/>
      <point x="553" y="655"/>
      <point x="553" y="617" type="qcurve"/>
      <point x="553" y="608"/>
      <point x="550" y="589"/>
    </contour>
    <contour>
      <point x="216" y="408" type="qcurve"/>
      <point x="216" y="387"/>
      <point x="241" y="370"/>
      <point x="269" y="370" type="qcurve"/>
      <point x="312" y="370"/>
      <point x="402" y="399"/>
      <point x="448" y="428" type="qcurve"/>
      <point x="473" y="508" type="line"/>
      <point x="375" y="499" type="line"/>
      <point x="305" y="492"/>
      <point x="250" y="479"/>
      <point x="240" y="469" type="qcurve"/>
      <point x="230" y="459"/>
      <point x="216" y="424"/>
    </contour>
    <contour>
      <point x="114" y="187" type="line"/>
      <point x="127" y="234" type="line"/>
      <point x="506" y="234" type="line"/>
      <point x="493" y="187" type="line"/>
    </contour>
  </outline>
</glyph>
<glyph name="guillemetleft" format="2">
  <advance width="614"/>
  <unicode hex="00AB"/>
  <outline>
    <contour>
      <point x="248" y="39" type="line"/>
      <point x="232" y="-15" type="line"/>
      <point x="60" y="203" type="line"/>
      <point x="74" y="254" type="line"/>
      <point x="372" y="471" type="line"/>
      <point x="351" y="400" type="line"/>
      <point x="120" y="223" type="line"/>
    </contour>
    <contour>
      <point x="475" y="39" type="line"/>
      <point x="459" y="-15" type="line"/>
      <point x="287" y="183" type="line"/>
      <point x="301" y="234" type="line"/>
      <point x="599" y="471" type="line"/>
      <point x="578" y="400" type="line"/>
      <point x="347" y="204" type="line"/>
    </contour>
  </outline>
</glyph>
<glyph name="degree" format="2">
  <advance width="614"/>
  <unicode hex="00B0"/>
  <outline>
    <contour>
      <point x="592" y="532" type="qcurve"/>
      <point x="592" y="434"/>
      <point x="454" y="293"/>
      <point x="354" y="293" type="qcurve"/>
      <point x="272" y="293"/>
      <point x="173" y="381"/>
      <point x="173" y="453" type="qcurve"/>
      <point x="173" y="551"/>
      <point x="311" y="692"/>
      <point x="411" y="692" type="qcurve"/>
      <point x="493" y="692"/>
      <point x="592" y="604"/>
    </contour>
    <contour>
      <point x="540" y="534" type="qcurve"/>
      <point x="540" y="586"/>
      <point x="472" y="649"/>
      <point x="414" y="649" type="qcurve"/>
      <point x="337" y="649"/>
      <point x="225" y="530"/>
      <point x="225" y="451" type="qcurve"/>
      <point x="225" y="399"/>
      <point x="293" y="336"/>
      <point x="351" y="336" type="qcurve"/>
      <point x="428" y="336"/>
      <point x="540" y="455"/>
    </contour>
  </outline>
</glyph>
<glyph name="mu" format="2">
  <advance width="614"/>
  <unicode hex="00B5"/>
  <outline>
    <contour>
      <point x="183" y="-6" type="qcurve"/>
      <point x="151" y="-6"/>
      <point x="107" y="22"/>
      <point x="98" y="48" type="qcurve"/>
      <point x="32" y="-217" type="line"/>
      <point x="28" y="-230" type="line"/>
      <point x="-31" y="-230" type="line"/>
      <point x="167" y="460" type="line"/>
      <point x="226" y="460" type="line"/>
      <point x="136" y="147" type="line"/>
      <point x="132" y="135"/>
      <point x="129" y="113"/>
      <point x="129" y="103" type="qcurve"/>
      <point x="129" y="75"/>
      <point x="164" y="47"/>
      <point x="200" y="47" type="qcurve"/>
      <point x="242" y="47"/>
      <point x="339" y="121"/>
      <point x="455" y="239" type="qcurve"/>
      <point x="518" y="460" type="line"/>
      <point x="577" y="460" type="line"/>
      <point x="445" y="0" type="line"/>
      <point x="386" y="0" type="line"/>
      <point x="431" y="156" type="line"/>
      <point x="336" y="59"/>
      <point x="239" y="-6"/>
    </contour>
  </outline>
</glyph>
<glyph name="paragraph" format="2">
  <advance width="614"/>
  <unicode hex="00B6"/>
  <outline>
    <contour>
      <point x="453" y="609" type="line"/>
      <point x="363" y="298" type="line"/>
      <point x="359" y="298" type="line"/>
      <point x="255" y="298"/>
      <point x="150" y="366"/>
      <point x="150" y="433" type="qcurve"/>
      <point x="150" y="540"/>
      <point x="296" y="655"/>
      <point x="433" y="655" type="qcurve"/>
      <point x="631" y="655" type="line"/>
      <point x="443" y="0" type="line"/>
      <point x="385" y="0" type="line"/>
      <point x="560" y="609" type="line"/>
    </contour>
  </outline>
</glyph>
<glyph name="questiondown" format="2">
  <advance width="614"/>
  <unicode hex="00BF"/>
  <outline>
    <contour>
      <point x="567" y="680" type="qcurve"/>
      <point x="567" y="652"/>
      <point x="527" y="617"/>
      <point x="495" y="617" type="qcurve"/>
      <point x="470" y="617"/>
      <point x="439" y="642"/>
      <point x="439" y="662" type="qcurve"/>
      <point x="439" y="690"/>
      <point x="479" y="725"/>
      <point x="511" y="725" type="qcurve"/>
      <point x="537" y="725"/>
      <point x="567" y="700"/>
    </contour>
    <contour>
      <point x="439" y="483" type="qcurve"/>
      <point x="475" y="483" type="line"/>
      <point x="469" y="442"/>
      <point x="460" y="393"/>
      <point x="457" y="382" type="qcurve"/>
      <point x="453" y="366"/>
      <point x="431" y="348"/>
      <point x="400" y="336" type="qcurve"/>
      <point x="267" y="285" type="line"/>
      <point x="195" y="257"/>
      <point x="128" y="187"/>
      <point x="128" y="137" type="qcurve"/>
      <point x="128" y="89"/>
      <point x="187" y="36"/>
      <point x="240" y="36" type="qcurve"/>
      <point x="290" y="36"/>
      <point x="391" y="78"/>
      <point x="489" y="137" type="qcurve"/>
      <point x="516" y="92" type="line"/>
      <point x="417" y="30"/>
      <point x="300" y="-15"/>
      <point x="232" y="-15" type="qcurve"/>
      <point x="158" y="-15"/>
      <point x="64" y="65"/>
      <point x="64" y="128" type="qcurve"/>
      <point x="64" y="203"/>
      <point x="152" y="298"/>
      <point x="256" y="339" type="qcurve"/>
      <point x="371" y="384" type="line"/>
      <point x="396" y="394"/>
      <point x="418" y="428"/>
    </contour>
  </outline>
</glyph>
<glyph name="AE" format="2">
  <advance width="614"/>
  <unicode hex="00C6"/>
  <outline>
    <contour>
      <point x="120" y="200" type="line"/>
      <point x="-8" y="0" type="line"/>
      <point x="-75" y="0" type="line"/>
      <point x="351" y="655" type="line"/>
      <point x="713" y="655" type="line"/>
      <point x="698" y="604" type="line"/>
      <point x="470" y="604" type="line"/>
      <point x="399" y="357" type="line"/>
      <point x="599" y="357" type="line"/>
      <point x="585" y="306" type="line"/>
      <point x="385" y="306" type="line"/>
      <point x="312" y="51" type="line"/>
      <point x="540" y="51" type="line"/>
      <point x="525" y="0" type="line"/>
      <point x="236" y="0" type="line"/>
      <point x="293" y="200" type="line"/>
    </contour>
    <contour>
      <point x="378" y="604" type="line"/>
      <point x="152" y="251" type="line"/>
      <point x="308" y="251" type="line"/>
      <point x="409" y="604" type="line"/>
    </contour>
  </outline>
</glyph>
<glyph name="multiply" format="2">
  <advance width="614"/>
  <unicode hex="00D7"/>
  <outline>
    <contour>
      <point x="327" y="288" type="line"/>
      <point x="115" y="123" type="line"/>
      <point x="85" y="166" type="line"/>
      <point x="297" y="331" type="line"/>
      <point x="179" y="497" type="line"/>
      <point x="225" y="528" type="line"/>
      <point x="340" y="365" type="line"/>
      <point x="550" y="529" type="line"/>
      <point x="583" y="488" type="line"/>
      <point x="371" y="323" type="line"/>
      <point x="494" y="151" type="line"/>
      <point x="449" y="117" type="line"/>
    </contour>
  </outline>
</glyph>
<glyph name="Oslash" format="2">
  <advance width="614"/>
  <unicode hex="00D8"/>
  <outline>
    <contour>
      <point x="84" y="366" type="qcurve"/>
      <point x="123" y="501"/>
      <point x="300" y="670"/>
      <point x="407" y="670" type="qcurve"/>
      <point x="453" y="670"/>
      <point x="529" y="638"/>
      <point x="555" y="607" type="qcurve"/>
      <point x="656" y="726" type="line"/>
      <point x="726" y="726" type="line"/>
      <point x="579" y="572" type="line"/>
      <point x="592" y="546"/>
      <point x="606" y="484"/>
      <point x="606" y="449" type="qcurve"/>
      <point x="606" y="411"/>
      <point x="594" y="327"/>
      <point x="583" y="289" type="qcurve"/>
      <point x="544" y="154"/>
      <point x="367" y="-15"/>
      <point x="260" y="-15" type="qcurve"/>
      <point x="215" y="-15"/>
      <point x="140" y="17"/>
      <point x="113" y="47" type="qcurve"/>
      <point x="14" y="-71" type="line"/>
      <point x="-56" y="-71" type="line"/>
      <point x="89" y="81" type="line"/>
      <point x="75" y="106"/>
      <point x="61" y="169"/>
      <point x="61" y="206" type="qcurve"/>
      <point x="61" y="244"/>
      <point x="73" y="328"/>
    </contour>
    <contour>
      <point x="148" y="365" type="qcurve"/>
      <point x="136" y="325"/>
      <point x="124" y="240"/>
      <point x="124" y="203" type="qcurve"/>
      <point x="124" y="183"/>
      <point x="129" y="145"/>
      <point x="134" y="128" type="qcurve"/>
      <point x="515" y="565" type="line"/>
      <point x="498" y="592"/>
      <point x="442" y="619"/>
      <point x="404" y="619" type="qcurve"/>
      <point x="320" y="619"/>
      <point x="181" y="479"/>
    </contour>
    <contour>
      <point x="263" y="36" type="qcurve"/>
      <point x="347" y="36"/>
      <point x="486" y="176"/>
      <point x="519" y="290" type="qcurve"/>
      <point x="531" y="330"/>
      <point x="543" y="415"/>
      <point x="543" y="452" type="qcurve"/>
      <point x="543" y="473"/>
      <point x="538" y="509"/>
      <point x="534" y="524" type="qcurve"/>
      <point x="153" y="89" type="line"/>
      <point x="170" y="63"/>
      <point x="226" y="36"/>
    </contour>
  </outline>
</glyph>
<glyph name="germandbls" format="2">
  <advance width="614"/>
  <unicode hex="00DF"/>
  <outline>
    <contour>
      <point x="264" y="45" type="line"/>
      <point x="360" y="52" type="line"/>
      <point x="419" y="56"/>
      <point x="477" y="111"/>
      <point x="477" y="162" type="qcurve"/>
      <point x="477" y="197"/>
      <point x="414" y="286"/>
      <point x="343" y="351" type="qcurve"/>
      <point x="349" y="374" type="line"/>
      <point x="391" y="404"/>
      <point x="453" y="452"/>
      <point x="475" y="471" type="qcurve"/>
      <point x="520" y="509"/>
      <point x="555" y="563"/>
      <point x="555" y="600" type="qcurve"/>
      <point x="555" y="635"/>
      <point x="502" y="674"/>
      <point x="455" y="674" type="qcurve"/>
      <point x="374" y="674"/>
      <point x="254" y="572"/>
      <point x="228" y="482" type="qcurve"/>
      <point x="90" y="0" type="line"/>
      <point x="31" y="0" type="line"/>
      <point x="169" y="482" type="line"/>
      <point x="203" y="601"/>
      <point x="347" y="725"/>
      <point x="452" y="725" type="qcurve"/>
      <point x="531" y="725"/>
      <point x="618" y="659"/>
      <point x="618" y="601" type="qcurve"/>
      <point x="618" y="560"/>
      <point x="584" y="499"/>
      <point x="544" y="462" type="qcurve"/>
      <point x="521" y="441"/>
      <point x="456" y="392"/>
      <point x="414" y="363" type="qcurve"/>
      <point x="481" y="298"/>
      <point x="540" y="207"/>
      <point x="540" y="165" type="qcurve"/>
      <point x="540" y="88"/>
      <point x="446" y="7"/>
      <point x="351" y="0" type="qcurve"/>
      <point x="264" y="-6" type="line"/>
    </contour>
  </outline>
</glyph>
<glyph name="ae" format="2">
  <advance width="614"/>
  <unicode hex="00E6"/>
  <outline>
    <contour>
      <point x="328" y="217" type="qcurve"/>
      <point x="323" y="197"/>
      <point x="318" y="162"/>
      <point x="318" y="148" type="qcurve"/>
      <point x="318" y="88"/>
      <point x="382" y="44"/>
      <point x="468" y="44" type="qcurve"/>
      <point x="452" y="-5" type="line"/>
      <point x="373" y="-5"/>
      <point x="289" y="25"/>
      <point x="272" y="59" type="qcurve"/>
      <point x="263" y="59" type="line"/>
      <point x="207" y="23"/>
      <point x="140" y="-5"/>
      <point x="101" y="-5" type="qcurve"/>
      <point x="50" y="-5"/>
      <point x="-1" y="40"/>
      <point x="-1" y="84" type="qcurve"/>
      <point x="-1" y="117"/>
      <point x="22" y="178"/>
      <point x="43" y="199" type="qcurve"/>
      <point x="69" y="225"/>
      <point x="171" y="249"/>
      <point x="279" y="257" type="qcurve"/>
      <point x="295" y="315"/>
      <point x="308" y="365"/>
      <point x="308" y="376" type="qcurve"/>
      <point x="308" y="399"/>
      <point x="285" y="420"/>
      <point x="259" y="420" type="qcurve"/>
      <point x="228" y="420"/>
      <point x="166" y="413"/>
      <point x="119" y="405" type="qcurve"/>
      <point x="134" y="456" type="line"/>
      <point x="167" y="463"/>
      <point x="228" y="470"/>
      <point x="258" y="470" type="qcurve"/>
      <point x="311" y="470"/>
      <point x="357" y="434"/>
      <point x="360" y="388" type="qcurve"/>
      <point x="390" y="427"/>
      <point x="463" y="470"/>
      <point x="500" y="470" type="qcurve"/>
      <point x="548" y="470"/>
      <point x="603" y="419"/>
      <point x="603" y="374" type="qcurve"/>
      <point x="603" y="302"/>
      <point x="472" y="231"/>
    </contour>
    <contour>
      <point x="541" y="373" type="qcurve"/>
      <point x="541" y="396"/>
      <point x="515" y="420"/>
      <point x="491" y="420" type="qcurve"/>
      <point x="452" y="420"/>
      <point x="370" y="330"/>
      <point x="343" y="262" type="qcurve"/>
      <point x="442" y="273"/>
      <point x="541" y="328"/>
    </contour>
    <contour>
      <point x="62" y="94" type="qcurve"/>
      <point x="62" y="67"/>
      <point x="91" y="45"/>
      <point x="124" y="45" type="qcurve"/>
      <point x="149" y="45"/>
      <point x="212" y="72"/>
      <point x="259" y="103" type="qcurve"/>
      <point x="258" y="113"/>
      <point x="256" y="135"/>
      <point x="256" y="147" type="qcurve"/>
      <point x="256" y="162"/>
      <point x="261" y="194"/>
      <point x="267" y="212" type="qcurve"/>
      <point x="185" y="204"/>
      <point x="108" y="186"/>
      <point x="89" y="167" type="qcurve"/>
      <point x="76" y="154"/>
      <point x="62" y="116"/>
    </contour>
  </outline>
</glyph>
<glyph name="ccedilla" format="2">
  <advance width="614"/>
  <unicode hex="00E7"/>
  <outline>
    <contour>
      <point x="375" y="425" type="qcurve"/>
      <point x="329" y="425"/>
      <point x="241" y="387"/>
      <point x="207" y="353" type="qcurve"/>
      <point x="171" y="317"/>
      <point x="128" y="215"/>
      <point x="128" y="167" type="qcurve"/>
      <point x="128" y="107"/>
      <point x="199" y="35"/>
      <point x="259" y="35" type="qcurve"/>
      <point x="301" y="35"/>
      <point x="401" y="65"/>
      <point x="471" y="98" type="qcurve"/>
      <point x="494" y="51" type="line"/>
      <point x="427" y="17"/>
      <point x="316" y="-14"/>
      <point x="257" y="-15" type="qcurve"/>
      <point x="225" y="-66" type="line"/>
      <point x="301" y="-78"/>
      <point x="359" y="-112"/>
      <point x="359" y="-151" type="qcurve"/>
      <point x="359" y="-192"/>
      <point x="303" y="-233"/>
      <point x="238" y="-247" type="qcurve"/>
      <point x="206" y="-253"/>
      <point x="122" y="-265"/>
      <point x="68" y="-270" type="qcurve"/>
      <point x="68" y="-221" type="line"/>
      <point x="107" y="-217"/>
      <point x="169" y="-210"/>
      <point x="193" y="-207" type="qcurve"/>
      <point x="249" y="-198"/>
      <point x="295" y="-177"/>
      <point x="295" y="-155" type="qcurve"/>
      <point x="295" y="-135"/>
      <point x="239" y="-116"/>
      <point x="162" y="-108" type="qcurve"/>
      <point x="159" y="-98" type="line"/>
      <point x="214" y="-13" type="line"/>
      <point x="143" y="-4"/>
      <point x="64" y="87"/>
      <point x="64" y="161" type="qcurve"/>
      <point x="64" y="225"/>
      <point x="111" y="339"/>
      <point x="156" y="384" type="qcurve"/>
      <point x="199" y="427"/>
      <point x="310" y="475"/>
      <point x="367" y="475" type="qcurve"/>
      <point x="422" y="475"/>
      <point x="514" y="445"/>
      <point x="574" y="406" type="qcurve"/>
      <point x="541" y="357" type="line"/>
      <point x="482" y="396"/>
      <point x="410" y="425"/>
    </contour>
  </outline>
</glyph>
<glyph name="eth" format="2">
  <advance width="614"/>
  <unicode hex="00F0"/>
  <outline>
    <contour>
      <point x="485" y="658" type="qcurve"/>
      <point x="602" y="739" type="line"/>
      <point x="627" y="701" type="line"/>
      <point x="519" y="626" type="line"/>
      <point x="551" y="589"/>
      <point x="584" y="497"/>
      <point x="584" y="442" type="qcurve"/>
      <point x="584" y="340"/>
      <point x="511" y="138"/>
      <point x="449" y="76" type="qcurve"/>
      <point x="405" y="32"/>
      <point x="300" y="-15"/>
      <point x="246" y="-15" type="qcurve"/>
      <point x="155" y="-15"/>
      <point x="55" y="73"/>
      <point x="55" y="153" type="qcurve"/>
      <point x="55" y="269"/>
      <point x="210" y="426"/>
      <point x="336" y="426" type="qcurve"/>
      <point x="387" y="426"/>
      <point x="473" y="399"/>
      <point x="518" y="369" type="qcurve"/>
      <point x="522" y="389"/>
      <point x="525" y="428"/>
      <point x="525" y="447" type="qcurve"/>
      <point x="525" y="488"/>
      <point x="498" y="563"/>
      <point x="473" y="594" type="qcurve"/>
      <point x="324" y="491" type="line"/>
      <point x="298" y="530" type="line"/>
      <point x="439" y="627" type="line"/>
      <point x="414" y="647"/>
      <point x="352" y="675"/>
      <point x="315" y="684" type="qcurve"/>
      <point x="338" y="725" type="line"/>
      <point x="381" y="715"/>
      <point x="455" y="682"/>
    </contour>
    <contour>
      <point x="345" y="376" type="qcurve"/>
      <point x="246" y="376"/>
      <point x="116" y="248"/>
      <point x="116" y="157" type="qcurve"/>
      <point x="116" y="100"/>
      <point x="183" y="35"/>
      <point x="242" y="35" type="qcurve"/>
      <point x="283" y="35"/>
      <point x="365" y="73"/>
      <point x="400" y="108" type="qcurve"/>
      <point x="436" y="144"/>
      <point x="492" y="255"/>
      <point x="508" y="320" type="qcurve"/>
      <point x="464" y="350"/>
      <point x="390" y="376"/>
    </contour>
  </outline>
</glyph>
<glyph name="divide" format="2">
  <advance width="614"/>
  <unicode hex="00F7"/>
  <outline>
    <contour>
      <point x="449" y="533" type="qcurve"/>
      <point x="449" y="505"/>
      <point x="411" y="466"/>
      <point x="382" y="466" type="qcurve"/>
      <point x="359" y="466"/>
      <point x="335" y="485"/>
      <point x="335" y="503" type="qcurve"/>
      <point x="335" y="532"/>
      <point x="372" y="570"/>
      <point x="402" y="570" type="qcurve"/>
      <point x="425" y="570"/>
      <point x="449" y="551"/>
    </contour>
    <contour>
      <point x="561" y="301" type="line"/>
      <point x="93" y="301" type="line"/>
      <point x="108" y="352" type="line"/>
      <point x="576" y="352" type="line"/>
    </contour>
    <contour>
      <point x="336" y="149" type="qcurve"/>
      <point x="336" y="121"/>
      <point x="298" y="82"/>
      <point x="269" y="82" type="qcurve"/>
      <point x="246" y="82"/>
      <point x="222" y="101"/>
      <point x="222" y="119" type="qcurve"/>
      <point x="222" y="148"/>
      <point x="259" y="186"/>
      <point x="289" y="186" type="qcurve"/>
      <point x="312" y="186"/>
      <point x="336" y="167"/>
    </contour>
  </outline>
</glyph>
<glyph name="Aogonek" format="2">
  <advance width="614"/>
  <unicode hex="0104"/>
  <outline>
    <contour>
      <point x="171" y="201" type="line"/>
      <point x="47" y="0" type="line"/>
      <point x="-20" y="0" type="line"/>
      <point x="393" y="655" type="line"/>
      <point x="467" y="655" type="line"/>
      <point x="502" y="0" type="line"/>
      <point x="488" y="0" type="line"/>
      <point x="432" y="-57"/>
      <point x="380" y="-131"/>
      <point x="380" y="-158" type="qcurve"/>
      <point x="380" y="-173"/>
      <point x="405" y="-186"/>
      <point x="436" y="-188" type="qcurve"/>
      <point x="501" y="-192" type="line"/>
      <point x="485" y="-235" type="line"/>
      <point x="410" y="-231" type="line"/>
      <point x="360" y="-228"/>
      <point x="318" y="-201"/>
      <point x="318" y="-170" type="qcurve"/>
      <point x="318" y="-136"/>
      <point x="375" y="-64"/>
      <point x="447" y="0" type="qcurve"/>
      <point x="442" y="0" type="line"/>
      <point x="432" y="201" type="line"/>
    </contour>
    <contour>
      <point x="414" y="596" type="line"/>
      <point x="202" y="252" type="line"/>
      <point x="430" y="252" type="line"/>
    </contour>
  </outline>
</glyph>
<glyph name="aogonek" format="2">
  <advance width="614"/>
  <unicode hex="0105"/>
  <outline>
    <contour>
      <point x="256" y="-170" type="qcurve"/>
      <point x="256" y="-135"/>
      <point x="319" y="-57"/>
      <point x="402" y="16" type="qcurve"/>
      <point x="389" y="24"/>
      <point x="373" y="50"/>
      <point x="370" y="70" type="qcurve"/>
      <point x="364" y="70" type="line"/>
      <point x="295" y="29"/>
      <point x="194" y="-5"/>
      <point x="141" y="-5" type="qcurve"/>
      <point x="90" y="-5"/>
      <point x="39" y="40"/>
      <point x="39" y="84" type="qcurve"/>
      <point x="39" y="118"/>
      <point x="66" y="182"/>
      <point x="90" y="206" type="qcurve"/>
      <point x="117" y="233"/>
      <point x="203" y="258"/>
      <point x="290" y="266" type="qcurve"/>
      <point x="442" y="280" type="line"/>
      <point x="456" y="322" type="line"/>
      <point x="459" y="332"/>
      <point x="462" y="349"/>
      <point x="462" y="356" type="qcurve"/>
      <point x="462" y="387"/>
      <point x="407" y="415"/>
      <point x="347" y="415" type="qcurve"/>
      <point x="318" y="415"/>
      <point x="218" y="404"/>
      <point x="161" y="395" type="qcurve"/>
      <point x="176" y="448" type="line"/>
      <point x="230" y="457"/>
      <point x="316" y="465"/>
      <point x="363" y="465" type="qcurve"/>
      <point x="444" y="465"/>
      <point x="523" y="418"/>
      <point x="523" y="369" type="qcurve"/>
      <point x="523" y="356"/>
      <point x="519" y="331"/>
      <point x="514" y="319" type="qcurve"/>
      <point x="437" y="102" type="line"/>
      <point x="434" y="93"/>
      <point x="431" y="79"/>
      <point x="431" y="74" type="qcurve"/>
      <point x="431" y="64"/>
      <point x="446" y="54"/>
      <point x="469" y="50" type="qcurve"/>
      <point x="513" y="44" type="line"/>
      <point x="499" y="-3" type="line"/>
      <point x="477" y="-1"/>
      <point x="441" y="3"/>
      <point x="431" y="5" type="qcurve"/>
      <point x="373" y="-54"/>
      <point x="318" y="-130"/>
      <point x="318" y="-158" type="qcurve"/>
      <point x="318" y="-173"/>
      <point x="343" y="-186"/>
      <point x="374" y="-188" type="qcurve"/>
      <point x="439" y="-192" type="line"/>
      <point x="423" y="-235" type="line"/>
      <point x="348" y="-231" type="line"/>
      <point x="298" y="-228"/>
      <point x="256" y="-201"/>
    </contour>
    <contour>
      <point x="102" y="94" type="qcurve"/>
      <point x="102" y="67"/>
      <point x="131" y="45"/>
      <point x="164" y="45" type="qcurve"/>
      <point x="212" y="45"/>
      <point x="322" y="87"/>
      <point x="390" y="132" type="qcurve"/>
      <point x="425" y="234" type="line"/>
      <point x="300" y="222" type="line"/>
      <point x="230" y="215"/>
      <point x="156" y="194"/>
      <point x="136" y="174" type="qcurve"/>
      <point x="119" y="157"/>
      <point x="102" y="117"/>
    </contour>
  </outline>
</glyph>
<glyph name="dcroat" format="2">
  <advance width="614"/>
  <unicode hex="0111"/>
  <outline>
    <contour>
      <point x="428" y="0" type="line"/>
      <point x="379" y="0" type="line"/>
      <point x="397" y="94" type="line"/>
      <point x="342" y="38"/>
      <point x="258" y="-8"/>
      <point x="212" y="-8" type="qcurve"/>
      <point x="142" y="-8"/>
      <point x="56" y="79"/>
      <point x="56" y="150" type="qcurve"/>
      <point x="56" y="271"/>
      <point x="239" y="428"/>
      <point x="384" y="428" type="qcurve"/>
      <point x="409" y="428"/>
      <point x="460" y="417"/>
      <point x="486" y="406" type="qcurve"/>
      <point x="523" y="535" type="line"/>
      <point x="322" y="535" type="line"/>
      <point x="336" y="583" type="line"/>
      <point x="537" y="583" type="line"/>
      <point x="573" y="710" type="line"/>
      <point x="632" y="710" type="line"/>
      <point x="596" y="583" type="line"/>
      <point x="681" y="583" type="line"/>
      <point x="667" y="535" type="line"/>
      <point x="582" y="535" type="line"/>
    </contour>
    <contour>
      <point x="387" y="378" type="qcurve"/>
      <point x="266" y="378"/>
      <point x="118" y="247"/>
      <point x="118" y="153" type="qcurve"/>
      <point x="118" y="103"/>
      <point x="174" y="42"/>
      <point x="218" y="42" type="qcurve"/>
      <point x="260" y="42"/>
      <point x="341" y="92"/>
      <point x="416" y="163" type="qcurve"/>
      <point x="472" y="358" type="line"/>
      <point x="450" y="368"/>
      <point x="408" y="378"/>
    </contour>
  </outline>
</glyph>
<glyph name="Hbar" format="2">
  <advance width="614"/>
  <unicode hex="0126"/>
  <outline>
    <contour>
      <point x="191" y="477" type="line"/>
      <point x="105" y="477" type="line"/>
      <point x="117" y="521" type="line"/>
      <point x="204" y="521" type="line"/>
      <point x="242" y="655" type="line"/>
      <point x="303" y="655" type="line"/>
      <point x="265" y="521" type="line"/>
      <point x="517" y="521" type="line"/>
      <point x="555" y="655" type="line"/>
      <point x="616" y="655" type="line"/>
      <point x="578" y="521" type="line"/>
      <point x="663" y="521" type="line"/>
      <point x="651" y="477" type="line"/>
      <point x="565" y="477" type="line"/>
      <point x="428" y="0" type="line"/>
      <point x="367" y="0" type="line"/>
      <point x="449" y="285" type="line"/>
      <point x="197" y="285" type="line"/>
      <point x="115" y="0" type="line"/>
      <point x="54" y="0" type="line"/>
    </contour>
    <contour>
      <point x="252" y="477" type="line"/>
      <point x="211" y="336" type="line"/>
      <point x="463" y="336" type="line"/>
      <point x="504" y="477" type="line"/>
    </contour>
  </outline>
</glyph>
<glyph name="hbar" format="2">
  <advance width="614"/>
  <unicode hex="0127"/>
  <outline>
    <contour>
      <point x="480" y="583" type="line"/>
      <point x="466" y="535" type="line"/>
      <point x="267" y="535" type="line"/>
      <point x="190" y="269" type="line"/>
      <point x="281" y="362"/>
      <point x="380" y="428"/>
      <point x="436" y="428" type="qcurve"/>
      <point x="480" y="428"/>
      <point x="535" y="375"/>
      <point x="535" y="332" type="qcurve"/>
      <point x="535" y="320"/>
      <point x="527" y="279"/>
      <point x="518" y="247" type="qcurve"/>
      <point x="448" y="0" type="line"/>
      <point x="389" y="0" type="line"/>
      <point x="461" y="255" type="line"/>
      <point x="468" y="281"/>
      <point x="474" y="311"/>
      <point x="474" y="323" type="qcurve"/>
      <point x="474" y="348"/>
      <point x="446" y="376"/>
      <point x="421" y="376" type="qcurve"/>
      <point x="378" y="376"/>
      <point x="282" y="303"/>
      <point x="166" y="186" type="qcurve"/>
      <point x="113" y="0" type="line"/>
      <point x="54" y="0" type="line"/>
      <point x="208" y="535" type="line"/>
      <point x="121" y="535" type="line"/>
      <point x="135" y="583" type="line"/>
      <point x="222" y="583" type="line"/>
      <point x="258" y="710" type="line"/>
      <point x="317" y="710" type="line"/>
      <point x="281" y="583" type="line"/>
    </contour>
  </outline>
</glyph>
<glyph name="Iogonek" format="2">
  <advance width="614"/>
  <unicode hex="012E"/>
  <outline>
    <contour>
      <point x="73" y="0" type="line"/>
      <point x="81" y="26" type="line"/>
      <point x="219" y="49" type="line"/>
      <point x="391" y="608" type="line"/>
      <point x="253" y="629" type="line"/>
      <point x="261" y="655" type="line"/>
      <point x="597" y="655" type="line"/>
      <point x="589" y="629" type="line"/>
      <point x="452" y="606" type="line"/>
      <point x="280" y="47" type="line"/>
      <point x="416" y="26" type="line"/>
      <point x="409" y="0" type="line"/>
      <point x="260" y="0" type="line"/>
      <point x="205" y="-56"/>
      <point x="153" y="-130"/>
      <point x="153" y="-157" type="qcurve"/>
      <point x="153" y="-172"/>
      <point x="178" y="-185"/>
      <point x="209" y="-187" type="qcurve"/>
      <point x="274" y="-191" type="line"/>
      <point x="258" y="-234" type="line"/>
      <point x="183" y="-230" type="line"/>
      <point x="133" y="-227"/>
      <point x="91" y="-200"/>
      <point x="91" y="-169" type="qcurve"/>
      <point x="91" y="-135"/>
      <point x="147" y="-63"/>
      <point x="218" y="0" type="qcurve"/>
    </contour>
  </outline>
</glyph>
<glyph name="lslash" format="2">
  <advance width="614"/>
  <unicode hex="0142"/>
  <outline>
    <contour>
      <point x="267" y="335" type="line"/>
      <point x="99" y="262" type="line"/>
      <point x="115" y="317" type="line"/>
      <point x="288" y="392" type="line"/>
      <point x="386" y="660" type="line"/>
      <point x="187" y="660" type="line"/>
      <point x="202" y="710" type="line"/>
      <point x="463" y="710" type="line"/>
      <point x="355" y="413" type="line"/>
      <point x="537" y="492" type="line"/>
      <point x="521" y="437" type="line"/>
      <point x="334" y="356" type="line"/>
      <point x="291" y="236" type="line"/>
      <point x="278" y="200"/>
      <point x="267" y="151"/>
      <point x="267" y="127" type="qcurve"/>
      <point x="267" y="86"/>
      <point x="306" y="50"/>
      <point x="352" y="48" type="qcurve"/>
      <point x="468" y="44" type="line"/>
      <point x="453" y="-7" type="line"/>
      <point x="345" y="-4" type="line"/>
      <point x="274" y="-2"/>
      <point x="206" y="59"/>
      <point x="206" y="119" type="qcurve"/>
      <point x="206" y="145"/>
      <point x="219" y="203"/>
      <point x="234" y="244" type="qcurve"/>
    </contour>
  </outline>
</glyph>
<glyph name="oe" format="2">
  <advance width="614"/>
  <unicode hex="0153"/>
  <outline>
    <contour>
      <point x="276" y="94" type="qcurve"/>
      <point x="243" y="41"/>
      <point x="162" y="-15"/>
      <point x="118" y="-15" type="qcurve"/>
      <point x="69" y="-15"/>
      <point x="14" y="60"/>
      <point x="14" y="126" type="qcurve"/>
      <point x="14" y="205"/>
      <point x="76" y="367"/>
      <point x="127" y="418" type="qcurve"/>
      <point x="155" y="446"/>
      <point x="217" y="475"/>
      <point x="250" y="475" type="qcurve"/>
      <point x="293" y="475"/>
      <point x="343" y="417"/>
      <point x="347" y="362" type="qcurve"/>
      <point x="380" y="416"/>
      <point x="464" y="475"/>
      <point x="507" y="475" type="qcurve"/>
      <point x="555" y="475"/>
      <point x="610" y="421"/>
      <point x="610" y="374" type="qcurve"/>
      <point x="610" y="302"/>
      <point x="479" y="231"/>
      <point x="335" y="217" type="qcurve"/>
      <point x="330" y="200"/>
      <point x="325" y="165"/>
      <point x="325" y="148" type="qcurve"/>
      <point x="325" y="88"/>
      <point x="389" y="44"/>
      <point x="475" y="44" type="qcurve"/>
      <point x="459" y="-5" type="line"/>
      <point x="370" y="-5"/>
      <point x="287" y="40"/>
    </contour>
    <contour>
      <point x="548" y="373" type="qcurve"/>
      <point x="548" y="398"/>
      <point x="522" y="425"/>
      <point x="498" y="425" type="qcurve"/>
      <point x="459" y="425"/>
      <point x="376" y="332"/>
      <point x="349" y="262" type="qcurve"/>
      <point x="448" y="273"/>
      <point x="548" y="328"/>
    </contour>
    <contour>
      <point x="175" y="388" type="qcurve"/>
      <point x="133" y="346"/>
      <point x="75" y="192"/>
      <point x="75" y="125" type="qcurve"/>
      <point x="75" y="82"/>
      <point x="106" y="35"/>
      <point x="134" y="35" type="qcurve"/>
      <point x="151" y="35"/>
      <point x="185" y="52"/>
      <point x="203" y="70" type="qcurve"/>
      <point x="246" y="113"/>
      <point x="304" y="265"/>
      <point x="304" y="333" type="qcurve"/>
      <point x="304" y="376"/>
      <point x="274" y="425"/>
      <point x="246" y="425" type="qcurve"/>
      <point x="229" y="425"/>
      <point x="193" y="406"/>
    </contour>
  </outline>
</glyph>
<glyph name="Scedilla" format="2">
  <advance width="614"/>
  <unicode hex="015E"/>
  <outline>
    <contour>
      <point x="284" y="38" type="qcurve"/>
      <point x="367" y="38"/>
      <point x="461" y="111"/>
      <point x="461" y="175" type="qcurve"/>
      <point x="461" y="212"/>
      <point x="418" y="270"/>
      <point x="374" y="295" type="qcurve"/>
      <point x="284" y="345" type="line"/>
      <point x="229" y="376"/>
      <point x="178" y="450"/>
      <point x="178" y="499" type="qcurve"/>
      <point x="178" y="572"/>
      <point x="302" y="668"/>
      <point x="403" y="668" type="qcurve"/>
      <point x="459" y="668"/>
      <point x="556" y="649"/>
      <point x="623" y="625" type="qcurve"/>
      <point x="605" y="571" type="line"/>
      <point x="549" y="595"/>
      <point x="451" y="617"/>
      <point x="403" y="617" type="qcurve"/>
      <point x="327" y="617"/>
      <point x="241" y="556"/>
      <point x="241" y="503" type="qcurve"/>
      <point x="241" y="466"/>
      <point x="277" y="415"/>
      <point x="318" y="392" type="qcurve"/>
      <point x="408" y="341" type="line"/>
      <point x="471" y="305"/>
      <point x="524" y="234"/>
      <point x="524" y="177" type="qcurve"/>
      <point x="524" y="89"/>
      <point x="395" y="-13"/>
      <point x="284" y="-13" type="qcurve"/>
      <point x="258" y="-13" type="line"/>
      <point x="226" y="-66" type="line"/>
      <point x="302" y="-78"/>
      <point x="360" y="-112"/>
      <point x="360" y="-151" type="qcurve"/>
      <point x="360" y="-192"/>
      <point x="304" y="-233"/>
      <point x="239" y="-247" type="qcurve"/>
      <point x="207" y="-253"/>
      <point x="123" y="-265"/>
      <point x="69" y="-270" type="qcurve"/>
      <point x="69" y="-221" type="line"/>
      <point x="108" y="-217"/>
      <point x="170" y="-210"/>
      <point x="194" y="-207" type="qcurve"/>
      <point x="250" y="-198"/>
      <point x="296" y="-177"/>
      <point x="296" y="-155" type="qcurve"/>
      <point x="296" y="-135"/>
      <point x="240" y="-116"/>
      <point x="163" y="-108" type="qcurve"/>
      <point x="160" y="-98" type="line"/>
      <point x="218" y="-9" type="line"/>
      <point x="173" y="-2"/>
      <point x="85" y="30"/>
      <point x="33" y="59" type="qcurve"/>
      <point x="60" y="110" type="line"/>
      <point x="127" y="72"/>
      <point x="234" y="38"/>
    </contour>
  </outline>
</glyph>
<glyph name="ohorn" format="2">
  <advance width="614"/>
  <unicode hex="01A1"/>
  <outline>
    <contour>
      <point x="58" y="180" type="qcurve"/>
      <point x="58" y="235"/>
      <point x="106" y="340"/>
      <point x="150" y="380" type="qcurve"/>
      <point x="191" y="419"/>
      <point x="298" y="460"/>
      <point x="358" y="460" type="qcurve"/>
      <point x="474" y="460" type="line"/>
      <point x="532" y="460"/>
      <point x="582" y="501"/>
      <point x="606" y="572" type="qcurve"/>
      <point x="664" y="572" type="line"/>
      <point x="635" y="480"/>
      <point x="568" y="418"/>
      <point x="495" y="418" type="qcurve"/>
      <point x="491" y="418"/>
      <point x="485" y="418"/>
      <point x="481" y="418" type="qcurve"/>
      <point x="477" y="412" type="line"/>
      <point x="517" y="381"/>
      <point x="556" y="309"/>
      <point x="556" y="266" type="qcurve"/>
      <point x="556" y="211"/>
      <point x="509" y="105"/>
      <point x="466" y="65" type="qcurve"/>
      <point x="424" y="26"/>
      <point x="318" y="-15"/>
      <point x="258" y="-15" type="qcurve"/>
      <point x="168" y="-15"/>
      <point x="58" y="94"/>
    </contour>
    <contour>
      <point x="118" y="178" type="qcurve"/>
      <point x="118" y="115"/>
      <point x="200" y="34"/>
      <point x="263" y="34" type="qcurve"/>
      <point x="356" y="34"/>
      <point x="496" y="175"/>
      <point x="496" y="268" type="qcurve"/>
      <point x="496" y="330"/>
      <point x="415" y="411"/>
      <point x="353" y="411" type="qcurve"/>
      <point x="259" y="411"/>
      <point x="118" y="271"/>
    </contour>
  </outline>
</glyph>
<glyph name="uhorn" format="2">
  <advance width="614"/>
  <unicode hex="01B0"/>
  <outline>
    <contour>
      <point x="445" y="0" type="line"/>
      <point x="386" y="0" type="line"/>
      <point x="431" y="156" type="line"/>
      <point x="339" y="62"/>
      <point x="237" y="-5"/>
      <point x="177" y="-5" type="qcurve"/>
      <point x="128" y="-5"/>
      <point x="68" y="48"/>
      <point x="68" y="91" type="qcurve"/>
      <point x="68" y="103"/>
      <point x="76" y="144"/>
      <point x="85" y="176" type="qcurve"/>
      <point x="167" y="460" type="line"/>
      <point x="226" y="460" type="line"/>
      <point x="142" y="168" type="line"/>
      <point x="135" y="144"/>
      <point x="129" y="112"/>
      <point x="129" y="100" type="qcurve"/>
      <point x="129" y="75"/>
      <point x="162" y="47"/>
      <point x="192" y="47" type="qcurve"/>
      <point x="238" y="47"/>
      <point x="342" y="126"/>
      <point x="455" y="240" type="qcurve"/>
      <point x="518" y="460" type="line"/>
      <point x="537" y="460" type="line"/>
      <point x="604" y="460"/>
      <point x="655" y="500"/>
      <point x="679" y="572" type="qcurve"/>
      <point x="737" y="572" type="line"/>
      <point x="712" y="486"/>
      <point x="642" y="421"/>
      <point x="565" y="419" type="qcurve"/>
    </contour>
  </outline>
</glyph>
<glyph name="Oogonek" format="2">
  <advance width="614"/>
  <unicode hex="01EA"/>
  <outline>
    <contour>
      <point x="97" y="-175" type="qcurve"/>
      <point x="97" y="-143"/>
      <point x="150" y="-73"/>
      <point x="218" y="-12" type="qcurve"/>
      <point x="142" y="0"/>
      <point x="61" y="112"/>
      <point x="61" y="206" type="qcurve"/>
      <point x="61" y="244"/>
      <point x="73" y="328"/>
      <point x="84" y="366" type="qcurve"/>
      <point x="123" y="501"/>
      <point x="300" y="670"/>
      <point x="407" y="670" type="qcurve"/>
      <point x="502" y="670"/>
      <point x="606" y="556"/>
      <point x="606" y="449" type="qcurve"/>
      <point x="606" y="411"/>
      <point x="594" y="327"/>
      <point x="583" y="289" type="qcurve"/>
      <point x="544" y="153"/>
      <point x="366" y="-15"/>
      <point x="257" y="-15" type="qcurve"/>
      <point x="207" y="-68"/>
      <point x="159" y="-137"/>
      <point x="159" y="-163" type="qcurve"/>
      <point x="159" y="-178"/>
      <point x="184" y="-191"/>
      <point x="215" y="-193" type="qcurve"/>
      <point x="280" y="-197" type="line"/>
      <point x="264" y="-240" type="line"/>
      <point x="189" y="-236" type="line"/>
      <point x="139" y="-233"/>
      <point x="97" y="-206"/>
    </contour>
    <contour>
      <point x="124" y="203" type="qcurve"/>
      <point x="124" y="122"/>
      <point x="196" y="36"/>
      <point x="263" y="36" type="qcurve"/>
      <point x="347" y="36"/>
      <point x="486" y="176"/>
      <point x="519" y="290" type="qcurve"/>
      <point x="531" y="330"/>
      <point x="543" y="415"/>
      <point x="543" y="452" type="qcurve"/>
      <point x="543" y="533"/>
      <point x="471" y="619"/>
      <point x="404" y="619" type="qcurve"/>
      <point x="320" y="619"/>
      <point x="181" y="479"/>
      <point x="148" y="365" type="qcurve"/>
      <point x="136" y="325"/>
      <point x="124" y="240"/>
    </contour>
  </outline>
</glyph>
<glyph name="dotlessj" format="2">
  <advance width="614"/>
  <unicode hex="0237"/>
  <outline>
    <contour>
      <point x="464" y="460" type="line"/>
      <point x="334" y="8" type="line"/>
      <point x="310" y="-76"/>
      <point x="268" y="-157"/>
      <point x="240" y="-180" type="qcurve"/>
      <point x="210" y="-203"/>
      <point x="117" y="-228"/>
      <point x="36" y="-234" type="qcurve"/>
      <point x="-32" y="-239" type="line"/>
      <point x="-32" y="-188" type="line"/>
      <point x="33" y="-184" type="line"/>
      <point x="95" y="-180"/>
      <point x="173" y="-159"/>
      <point x="198" y="-138" type="qcurve"/>
      <point x="223" y="-119"/>
      <point x="259" y="-51"/>
      <point x="277" y="13" type="qcurve"/>
      <point x="391" y="410" type="line"/>
      <point x="180" y="410" type="line"/>
      <point x="194" y="460" type="line"/>
    </contour>
  </outline>
</glyph>
<glyph name="ringhalfleft" format="2">
  <advance width="614"/>
  <unicode hex="02BF"/>
  <outline>
    <contour>
      <point x="289" y="645" type="qcurve"/>
      <point x="332" y="688"/>
      <point x="459" y="725"/>
      <point x="560" y="725" type="qcurve"/>
      <point x="542" y="663" type="line"/>
      <point x="421" y="663"/>
      <point x="304" y="571"/>
      <point x="304" y="475" type="qcurve"/>
      <point x="304" y="426"/>
      <point x="382" y="377"/>
      <point x="460" y="377" type="qcurve"/>
      <point x="442" y="315" type="line"/>
      <point x="334" y="315"/>
      <point x="226" y="398"/>
      <point x="226" y="480" type="qcurve"/>
      <point x="226" y="530"/>
      <point x="258" y="614"/>
    </contour>
  </outline>
</glyph>
<glyph name="verticallinemod" format="2">
  <advance width="614"/>
  <unicode hex="02C8"/>
  <outline>
    <contour>
      <point x="483" y="715" type="line"/>
      <point x="371" y="323" type="line"/>
      <point x="297" y="323" type="line"/>
      <point x="409" y="715" type="line"/>
    </contour>
  </outline>
</glyph>
<glyph name="gravecmb" format="2">
  <unicode hex="0300"/>
  <outline>
    <contour>
      <point x="21" y="734" type="line"/>
      <point x="172" y="563" type="line"/>
      <point x="141" y="535" type="line"/>
      <point x="-24" y="694" type="line"/>
    </contour>
  </outline>
</glyph>
<glyph name="circumflexcmb" format="2">
  <unicode hex="0302"/>
  <outline>
    <contour>
      <point x="-65" y="536" type="line"/>
      <point x="-89" y="567" type="line"/>
      <point x="123" y="741" type="line"/>
      <point x="159" y="741" type="line"/>
      <point x="276" y="558" type="line"/>
      <point x="241" y="536" type="line"/>
      <point x="129" y="682" type="line"/>
    </contour>
  </outline>
</glyph>
<glyph name="tildecmb" format="2">
  <unicode hex="0303"/>
  <outline>
    <contour>
      <point x="175" y="536" type="qcurve"/>
      <point x="154" y="536"/>
      <point x="118" y="571"/>
      <point x="93" y="613" type="qcurve"/>
      <point x="72" y="648"/>
      <point x="54" y="670"/>
      <point x="44" y="670" type="qcurve"/>
      <point x="29" y="670"/>
      <point x="-16" y="614"/>
      <point x="-66" y="536" type="qcurve"/>
      <point x="-106" y="556" type="line"/>
      <point x="-44" y="655"/>
      <point x="19" y="726"/>
      <point x="51" y="726" type="qcurve"/>
      <point x="72" y="726"/>
      <point x="108" y="691"/>
      <point x="133" y="649" type="qcurve"/>
      <point x="154" y="614"/>
      <point x="172" y="592"/>
      <point x="182" y="592" type="qcurve"/>
      <point x="197" y="592"/>
      <point x="240" y="646"/>
      <point x="292" y="726" type="qcurve"/>
      <point x="333" y="707" type="line"/>
      <point x="271" y="608"/>
      <point x="207" y="536"/>
    </contour>
  </outline>
</glyph>
<glyph name="dieresiscmb" format="2">
  <unicode hex="0308"/>
  <outline>
    <contour>
      <point x="44" y="620" type="qcurve"/>
      <point x="44" y="592"/>
      <point x="9" y="556"/>
      <point x="-21" y="556" type="qcurve"/>
      <point x="-43" y="556"/>
      <point x="-66" y="574"/>
      <point x="-66" y="591" type="qcurve"/>
      <point x="-66" y="617"/>
      <point x="-28" y="655"/>
      <point x="-1" y="655" type="qcurve"/>
      <point x="21" y="655"/>
      <point x="44" y="637"/>
    </contour>
    <contour>
      <point x="280" y="620" type="qcurve"/>
      <point x="280" y="591"/>
      <point x="244" y="556"/>
      <point x="215" y="556" type="qcurve"/>
      <point x="194" y="556"/>
      <point x="171" y="574"/>
      <point x="171" y="591" type="qcurve"/>
      <point x="171" y="617"/>
      <point x="209" y="655"/>
      <point x="236" y="655" type="qcurve"/>
      <point x="257" y="655"/>
      <point x="280" y="636"/>
    </contour>
  </outline>
</glyph>
<glyph name="ringcmb" format="2">
  <unicode hex="030A"/>
  <outline>
    <contour>
      <point x="-21" y="633" type="qcurve"/>
      <point x="-21" y="693"/>
      <point x="70" y="772"/>
      <point x="141" y="772" type="qcurve"/>
      <point x="199" y="772"/>
      <point x="265" y="721"/>
      <point x="265" y="675" type="qcurve"/>
      <point x="265" y="615"/>
      <point x="174" y="536"/>
      <point x="103" y="536" type="qcurve"/>
      <point x="45" y="536"/>
      <point x="-21" y="587"/>
    </contour>
    <contour>
      <point x="27" y="634" type="qcurve"/>
      <point x="27" y="607"/>
      <point x="70" y="580"/>
      <point x="113" y="580" type="qcurve"/>
      <point x="157" y="580"/>
      <point x="217" y="634"/>
      <point x="217" y="674" type="qcurve"/>
      <point x="217" y="701"/>
      <point x="174" y="728"/>
      <point x="131" y="728" type="qcurve"/>
      <point x="87" y="728"/>
      <point x="27" y="674"/>
    </contour>
  </outline>
</glyph>
<glyph name="caroncmb" format="2">
  <unicode hex="030C"/>
  <outline>
    <contour>
      <point x="75" y="536" type="line"/>
      <point x="-42" y="719" type="line"/>
      <point x="-7" y="741" type="line"/>
      <point x="105" y="595" type="line"/>
      <point x="299" y="741" type="line"/>
      <point x="323" y="710" type="line"/>
      <point x="111" y="536" type="line"/>
    </contour>
  </outline>
</glyph>
<glyph name="commaaboverightcmb" format="2">
  <unicode hex="0315"/>
  <outline>
    <contour>
      <point x="112" y="486" type="line"/>
      <point x="73" y="486" type="line"/>
      <point x="138" y="710" type="line"/>
      <point x="208" y="710" type="line"/>
    </contour>
  </outline>
</glyph>
<glyph name="dieresisbelowcmb" format="2">
  <unicode hex="0324"/>
  <outline>
    <contour>
      <point x="-165" y="-130" type="qcurve"/>
      <point x="-165" y="-158"/>
      <point x="-200" y="-194"/>
      <point x="-230" y="-194" type="qcurve"/>
      <point x="-252" y="-194"/>
      <point x="-275" y="-176"/>
      <point x="-275" y="-159" type="qcurve"/>
      <point x="-275" y="-133"/>
      <point x="-237" y="-95"/>
      <point x="-210" y="-95" type="qcurve"/>
      <point x="-188" y="-95"/>
      <point x="-165" y="-113"/>
    </contour>
    <contour>
      <point x="71" y="-130" type="qcurve"/>
      <point x="71" y="-159"/>
      <point x="35" y="-194"/>
      <point x="6" y="-194" type="qcurve"/>
      <point x="-15" y="-194"/>
      <point x="-38" y="-176"/>
      <point x="-38" y="-159" type="qcurve"/>
      <point x="-38" y="-133"/>
      <point x="0" y="-95"/>
      <point x="27" y="-95" type="qcurve"/>
      <point x="48" y="-95"/>
      <point x="71" y="-114"/>
    </contour>
  </outline>
</glyph>
<glyph name="hcedilla" format="2">
  <advance width="614"/>
  <unicode hex="1E29"/>
  <outline>
    <contour>
      <point x="241" y="710" type="line"/>
      <point x="300" y="710" type="line"/>
      <point x="183" y="304" type="line"/>
      <point x="274" y="397"/>
      <point x="378" y="465"/>
      <point x="437" y="465" type="qcurve"/>
      <point x="486" y="465"/>
      <point x="546" y="412"/>
      <point x="546" y="369" type="qcurve"/>
      <point x="546" y="357"/>
      <point x="538" y="316"/>
      <point x="529" y="284" type="qcurve"/>
      <point x="447" y="0" type="line"/>
      <point x="388" y="0" type="line"/>
      <point x="472" y="292" type="line"/>
      <point x="479" y="316"/>
      <point x="485" y="348"/>
      <point x="485" y="360" type="qcurve"/>
      <point x="485" y="385"/>
      <point x="452" y="413"/>
      <point x="422" y="413" type="qcurve"/>
      <point x="376" y="413"/>
      <point x="272" y="335"/>
      <point x="159" y="221" type="qcurve"/>
      <point x="96" y="0" type="line"/>
      <point x="89" y="0" type="line"/>
      <point x="51" y="-61" type="line"/>
      <point x="127" y="-73"/>
      <point x="185" y="-107"/>
      <point x="185" y="-146" type="qcurve"/>
      <point x="185" y="-187"/>
      <point x="129" y="-228"/>
      <point x="64" y="-242" type="qcurve"/>
      <point x="32" y="-248"/>
      <point x="-52" y="-260"/>
      <point x="-106" y="-265" type="qcurve"/>
      <point x="-106" y="-216" type="line"/>
      <point x="-67" y="-212"/>
      <point x="-5" y="-205"/>
      <point x="19" y="-202" type="qcurve"/>
      <point x="75" y="-193"/>
      <point x="121" y="-172"/>
      <point x="121" y="-150" type="qcurve"/>
      <point x="121" y="-130"/>
      <point x="65" y="-111"/>
      <point x="-12" y="-103" type="qcurve"/>
      <point x="-15" y="-93" type="line"/>
      <point x="45" y="0" type="line"/>
      <point x="37" y="0" type="line"/>
    </contour>
  </outline>
</glyph>
<glyph name="uni1E9E" format="2">
  <advance width="614"/>
  <unicode hex="1E9E"/>
  <outline>
    <contour>
      <point x="478" y="178" type="qcurve"/>
      <point x="478" y="212"/>
      <point x="424" y="282"/>
      <point x="356" y="336" type="qcurve"/>
      <point x="362" y="356" type="line"/>
      <point x="562" y="568" type="line"/>
      <point x="525" y="595"/>
      <point x="458" y="619"/>
      <point x="419" y="619" type="qcurve"/>
      <point x="344" y="619"/>
      <point x="242" y="526"/>
      <point x="216" y="433" type="qcurve"/>
      <point x="92" y="0" type="line"/>
      <point x="31" y="0" type="line"/>
      <point x="155" y="434" type="line"/>
      <point x="189" y="552"/>
      <point x="322" y="670"/>
      <point x="422" y="670" type="qcurve"/>
      <point x="478" y="670"/>
      <point x="577" y="628"/>
      <point x="630" y="583" type="qcurve"/>
      <point x="631" y="569" type="line"/>
      <point x="426" y="351" type="line"/>
      <point x="486" y="300"/>
      <point x="541" y="216"/>
      <point x="541" y="173" type="qcurve"/>
      <point x="541" y="94"/>
      <point x="432" y="-6"/>
      <point x="342" y="-6" type="qcurve"/>
      <point x="320" y="-6"/>
      <point x="275" y="-1"/>
      <point x="255" y="4" type="qcurve"/>
      <point x="269" y="55" type="line"/>
      <point x="291" y="50"/>
      <point x="329" y="45"/>
      <point x="346" y="45" type="qcurve"/>
      <point x="403" y="45"/>
      <point x="478" y="121"/>
    </contour>
  </outline>
</glyph>
<glyph name="endash" format="2">
  <advance width="614"/>
  <unicode hex="2013"/>
  <outline>
    <contour>
      <point x="99" y="299" type="line"/>
      <point x="115" y="354" type="line"/>
      <point x="569" y="354" type="line"/>
      <point x="553" y="299" type="line"/>
    </contour>
  </outline>
</glyph>
<glyph name="quoteright" format="2">
  <advance width="614"/>
  <unicode hex="2019"/>
  <outline>
    <contour>
      <point x="320" y="456" type="qcurve"/>
      <point x="257" y="456" type="line"/>
      <point x="257" y="458" type="line"/>
      <point x="335" y="531"/>
      <point x="411" y="641"/>
      <point x="432" y="710" type="qcurve"/>
      <point x="528" y="710" type="line"/>
      <point x="505" y="628"/>
      <point x="419" y="523"/>
    </contour>
  </outline>
</glyph>
<glyph name="quotedblleft" format="2">
  <advance width="614"/>
  <unicode hex="201C"/>
  <outline>
    <contour>
      <point x="373" y="710" type="qcurve"/>
      <point x="436" y="710" type="line"/>
      <point x="435" y="708" type="line"/>
      <point x="351" y="620"/>
      <point x="294" y="536"/>
      <point x="260" y="446" type="qcurve"/>
      <point x="160" y="446" type="line"/>
      <point x="198" y="546"/>
      <point x="269" y="633"/>
    </contour>
    <contour>
      <point x="618" y="710" type="qcurve"/>
      <point x="681" y="710" type="line"/>
      <point x="680" y="708" type="line"/>
      <point x="596" y="620"/>
      <point x="539" y="536"/>
      <point x="505" y="446" type="qcurve"/>
      <point x="405" y="446" type="line"/>
      <point x="443" y="546"/>
      <point x="514" y="633"/>
    </contour>
  </outline>
</glyph>
<glyph name="dagger" format="2">
  <advance width="614"/>
  <unicode hex="2020"/>
  <outline>
    <contour>
      <point x="616" y="517" type="qcurve"/>
      <point x="593" y="435" type="line"/>
      <point x="573" y="435"/>
      <point x="527" y="440"/>
      <point x="481" y="447" type="qcurve"/>
      <point x="445" y="453"/>
      <point x="409" y="458"/>
      <point x="393" y="459" type="qcurve"/>
      <point x="382" y="420"/>
      <point x="360" y="328"/>
      <point x="339" y="236" type="qcurve"/>
      <point x="318" y="139"/>
      <point x="294" y="41"/>
      <point x="282" y="0" type="qcurve"/>
      <point x="190" y="0" type="line"/>
      <point x="202" y="41"/>
      <point x="234" y="137"/>
      <point x="268" y="233" type="qcurve"/>
      <point x="301" y="326"/>
      <point x="332" y="419"/>
      <point x="344" y="459" type="qcurve"/>
      <point x="327" y="458"/>
      <point x="286" y="453"/>
      <point x="244" y="447" type="qcurve"/>
      <point x="194" y="440"/>
      <point x="147" y="435"/>
      <point x="129" y="435" type="qcurve"/>
      <point x="152" y="517" type="line"/>
      <point x="170" y="517"/>
      <point x="214" y="513"/>
      <point x="259" y="507" type="qcurve"/>
      <point x="298" y="501"/>
      <point x="338" y="497"/>
      <point x="355" y="496" type="qcurve"/>
      <point x="359" y="513"/>
      <point x="366" y="553"/>
      <point x="372" y="593" type="qcurve"/>
      <point x="379" y="642"/>
      <point x="388" y="690"/>
      <point x="394" y="710" type="qcurve"/>
      <point x="486" y="710" type="line"/>
      <point x="480" y="689"/>
      <point x="462" y="640"/>
      <point x="441" y="590" type="qcurve"/>
      <point x="425" y="551"/>
      <point x="410" y="512"/>
      <point x="404" y="496" type="qcurve"/>
      <point x="420" y="497"/>
      <point x="457" y="501"/>
      <point x="495" y="506" type="qcurve"/>
      <point x="545" y="513"/>
      <point x="595" y="517"/>
    </contour>
  </outline>
</glyph>
<glyph name="daggerdbl" format="2">
  <advance width="614"/>
  <unicode hex="2021"/>
  <outline>
    <contour>
      <point x="532" y="277" type="qcurve"/>
      <point x="509" y="195" type="line"/>
      <point x="490" y="195"/>
      <point x="447" y="200"/>
      <point x="404" y="207" type="qcurve"/>
      <point x="372" y="214"/>
      <point x="338" y="218"/>
      <point x="324" y="219" type="qcurve"/>
      <point x="319" y="201"/>
      <point x="311" y="159"/>
      <point x="303" y="117" type="qcurve"/>
      <point x="295" y="69"/>
      <point x="285" y="21"/>
      <point x="279" y="0" type="qcurve"/>
      <point x="193" y="0" type="line"/>
      <point x="199" y="20"/>
      <point x="216" y="68"/>
      <point x="236" y="116" type="qcurve"/>
      <point x="253" y="159"/>
      <point x="269" y="201"/>
      <point x="275" y="219" type="qcurve"/>
      <point x="260" y="218"/>
      <point x="224" y="214"/>
      <point x="188" y="207" type="qcurve"/>
      <point x="142" y="200"/>
      <point x="95" y="195"/>
      <point x="76" y="195" type="qcurve"/>
      <point x="99" y="277" type="line"/>
      <point x="118" y="277"/>
      <point x="161" y="273"/>
      <point x="203" y="266" type="qcurve"/>
      <point x="237" y="261"/>
      <point x="271" y="257"/>
      <point x="286" y="256" type="qcurve"/>
      <point x="344" y="459" type="line"/>
      <point x="328" y="458"/>
      <point x="288" y="453"/>
      <point x="248" y="447" type="qcurve"/>
      <point x="198" y="440"/>
      <point x="149" y="435"/>
      <point x="129" y="435" type="qcurve"/>
      <point x="152" y="517" type="line"/>
      <point x="173" y="517"/>
      <point x="219" y="513"/>
      <point x="264" y="506" type="qcurve"/>
      <point x="301" y="501"/>
      <point x="338" y="497"/>
      <point x="354" y="496" type="qcurve"/>
      <point x="358" y="513"/>
      <point x="366" y="554"/>
      <point x="372" y="594" type="qcurve"/>
      <point x="378" y="642"/>
      <point x="388" y="690"/>
      <point x="394" y="710" type="qcurve"/>
      <point x="486" y="710" type="line"/>
      <point x="480" y="689"/>
      <point x="462" y="641"/>
      <point x="441" y="592" type="qcurve"/>
      <point x="424" y="553"/>
      <point x="409" y="513"/>
      <point x="403" y="496" type="qcurve"/>
      <point x="420" y="497"/>
      <point x="460" y="501"/>
      <point x="502" y="506" type="qcurve"/>
      <point x="550" y="513"/>
      <point x="597" y="517"/>
      <point x="616" y="517" type="qcurve"/>
      <point x="593" y="435" type="line"/>
      <point x="574" y="435"/>
      <point x="530" y="440"/>
      <point x="485" y="447" type="qcurve"/>
      <point x="447" y="453"/>
      <point x="409" y="458"/>
      <point x="392" y="459" type="qcurve"/>
      <point x="334" y="256" type="line"/>
      <point x="349" y="257"/>
      <point x="384" y="261"/>
      <point x="420" y="266" type="qcurve"/>
      <point x="467" y="273"/>
      <point x="513" y="277"/>
    </contour>
  </outline>
</glyph>
<glyph name="bullet" format="2">
  <advance width="614"/>
  <unicode hex="2022"/>
  <outline>
    <contour>
      <point x="208" y="305" type="qcurve"/>
      <point x="208" y="369"/>
      <point x="287" y="454"/>
      <point x="352" y="454" type="qcurve"/>
      <point x="409" y="454"/>
      <point x="468" y="409"/>
      <point x="468" y="366" type="qcurve"/>
      <point x="468" y="301"/>
      <point x="388" y="217"/>
      <point x="324" y="217" type="qcurve"/>
      <point x="267" y="217"/>
      <point x="208" y="262"/>
    </contour>
  </outline>
</glyph>
<glyph name="twodotleader" format="2">
  <advance width="614"/>
  <unicode hex="2025"/>
  <outline>
    <contour>
      <point x="171" y="76" type="qcurve"/>
      <point x="171" y="38"/>
      <point x="125" y="-15"/>
      <point x="90" y="-15" type="qcurve"/>
      <point x="62" y="-15"/>
      <point x="34" y="8"/>
      <point x="34" y="31" type="qcurve"/>
      <point x="34" y="68"/>
      <point x="81" y="122"/>
      <point x="115" y="122" type="qcurve"/>
      <point x="143" y="122"/>
      <point x="171" y="99"/>
    </contour>
    <contour>
      <point x="478" y="76" type="qcurve"/>
      <point x="478" y="38"/>
      <point x="432" y="-15"/>
      <point x="398" y="-15" type="qcurve"/>
      <point x="370" y="-15"/>
      <point x="341" y="8"/>
      <point x="341" y="31" type="qcurve"/>
      <point x="341" y="68"/>
      <point x="388" y="122"/>
      <point x="423" y="122" type="qcurve"/>
      <point x="450" y="122"/>
      <point x="478" y="98"/>
    </contour>
  </outline>
</glyph>
<glyph name="ellipsis" format="2">
  <advance width="614"/>
  <unicode hex="2026"/>
  <outline>
    <contour>
      <point x="63" y="122" type="qcurve"/>
      <point x="90" y="122"/>
      <point x="116" y="102"/>
      <point x="116" y="81" type="qcurve"/>
      <point x="116" y="40"/>
      <point x="76" y="-15"/>
      <point x="42" y="-15" type="qcurve"/>
      <point x="14" y="-15"/>
      <point x="-12" y="7"/>
      <point x="-12" y="29" type="qcurve"/>
      <point x="-12" y="68"/>
      <point x="30" y="122"/>
    </contour>
    <contour>
      <point x="268" y="122" type="qcurve"/>
      <point x="295" y="122"/>
      <point x="321" y="102"/>
      <point x="321" y="81" type="qcurve"/>
      <point x="321" y="40"/>
      <point x="281" y="-15"/>
      <point x="247" y="-15" type="qcurve"/>
      <point x="219" y="-15"/>
      <point x="193" y="7"/>
      <point x="193" y="29" type="qcurve"/>
      <point x="193" y="68"/>
      <point x="235" y="122"/>
    </contour>
    <contour>
      <point x="473" y="122" type="qcurve"/>
      <point x="500" y="122"/>
      <point x="526" y="102"/>
      <point x="526" y="81" type="qcurve"/>
      <point x="526" y="40"/>
      <point x="486" y="-15"/>
      <point x="452" y="-15" type="qcurve"/>
      <point x="424" y="-15"/>
      <point x="398" y="7"/>
      <point x="398" y="29" type="qcurve"/>
      <point x="398" y="68"/>
      <point x="440" y="122"/>
    </contour>
  </outline>
</glyph>
<glyph name="Euro" format="2">
  <advance width="614"/>
  <unicode hex="20AC"/>
  <outline>
    <contour>
      <point x="126" y="233" type="qcurve"/>
      <point x="37" y="233" type="line"/>
      <point x="51" y="281" type="line"/>
      <point x="138" y="281" type="line"/>
      <point x="164" y="374" type="line"/>
      <point x="77" y="374" type="line"/>
      <point x="91" y="422" type="line"/>
      <point x="178" y="422" type="line"/>
      <point x="216" y="543"/>
      <point x="359" y="670"/>
      <point x="457" y="670" type="qcurve"/>
      <point x="509" y="670"/>
      <point x="591" y="647"/>
      <point x="645" y="617" type="qcurve"/>
      <point x="621" y="569" type="line"/>
      <point x="570" y="597"/>
      <point x="503" y="619"/>
      <point x="465" y="619" type="qcurve"/>
      <point x="385" y="619"/>
      <point x="274" y="521"/>
      <point x="241" y="421" type="qcurve"/>
      <point x="480" y="421" type="line"/>
      <point x="467" y="375" type="line"/>
      <point x="228" y="375" type="line"/>
      <point x="200" y="280" type="line"/>
      <point x="439" y="280" type="line"/>
      <point x="426" y="234" type="line"/>
      <point x="188" y="234" type="line"/>
      <point x="184" y="213"/>
      <point x="180" y="178"/>
      <point x="180" y="162" type="qcurve"/>
      <point x="181" y="99"/>
      <point x="249" y="36"/>
      <point x="315" y="36" type="qcurve"/>
      <point x="356" y="36"/>
      <point x="434" y="61"/>
      <point x="488" y="90" type="qcurve"/>
      <point x="512" y="42" type="line"/>
      <point x="461" y="13"/>
      <point x="359" y="-15"/>
      <point x="308" y="-15" type="qcurve"/>
      <point x="215" y="-15"/>
      <point x="118" y="73"/>
      <point x="118" y="157" type="qcurve"/>
      <point x="118" y="179"/>
      <point x="122" y="214"/>
    </contour>
  </outline>
</glyph>
<glyph name="peso" format="2">
  <advance width="614"/>
  <unicode hex="20B1"/>
  <outline>
    <contour>
      <point x="166" y="425" type="line"/>
      <point x="69" y="425" type="line"/>
      <point x="83" y="473" type="line"/>
      <point x="180" y="473" type="line"/>
      <point x="232" y="655" type="line"/>
      <point x="396" y="655" type="line"/>
      <point x="483" y="655"/>
      <point x="586" y="570"/>
      <point x="586" y="499" type="qcurve"/>
      <point x="586" y="488"/>
      <point x="586" y="477"/>
      <point x="585" y="473" type="qcurve"/>
      <point x="672" y="473" type="line"/>
      <point x="658" y="425" type="line"/>
      <point x="577" y="425" type="line"/>
      <point x="553" y="335"/>
      <point x="395" y="236"/>
      <point x="277" y="236" type="qcurve"/>
      <point x="173" y="236" type="line"/>
      <point x="105" y="0" type="line"/>
      <point x="44" y="0" type="line"/>
    </contour>
    <contour>
      <point x="520" y="498" type="qcurve"/>
      <point x="520" y="550"/>
      <point x="450" y="604"/>
      <point x="383" y="604" type="qcurve"/>
      <point x="279" y="604" type="line"/>
      <point x="239" y="466" type="line"/>
      <point x="518" y="466" type="line"/>
      <point x="519" y="477"/>
      <point x="520" y="492"/>
    </contour>
    <contour>
      <point x="187" y="286" type="line"/>
      <point x="272" y="286" type="line"/>
      <point x="366" y="286"/>
      <point x="490" y="362"/>
      <point x="511" y="432" type="qcurve"/>
      <point x="229" y="432" type="line"/>
    </contour>
  </outline>
</glyph>
<glyph name="uni20BA" format="2">
  <advance width="614"/>
  <unicode hex="20BA"/>
  <outline>
    <contour>
      <point x="119" y="193" type="line"/>
      <point x="-7" y="133" type="line"/>
      <point x="9" y="190" type="line"/>
      <point x="136" y="252" type="line"/>
      <point x="165" y="351" type="line"/>
      <point x="37" y="289" type="line"/>
      <point x="55" y="349" type="line"/>
      <point x="182" y="410" type="line"/>
      <point x="252" y="655" type="line"/>
      <point x="313" y="655" type="line"/>
      <point x="251" y="437" type="line"/>
      <point x="462" y="541" type="line"/>
      <point x="444" y="481" type="line"/>
      <point x="234" y="378" type="line"/>
      <point x="205" y="279" type="line"/>
      <point x="416" y="382" type="line"/>
      <point x="399" y="322" type="line"/>
      <point x="188" y="221" type="line"/>
      <point x="139" y="50" type="line"/>
      <point x="200" y="50" type="line"/>
      <point x="333" y="50"/>
      <point x="502" y="181"/>
      <point x="531" y="308" type="qcurve"/>
      <point x="591" y="304" type="line"/>
      <point x="557" y="155"/>
      <point x="363" y="0"/>
      <point x="209" y="0" type="qcurve"/>
      <point x="64" y="0" type="line"/>
    </contour>
  </outline>
</glyph>
<glyph name="published" format="2">
  <advance width="614"/>
  <unicode hex="2117"/>
  <outline>
    <contour>
      <point x="623" y="546" type="qcurve"/>
      <point x="623" y="501"/>
      <point x="602" y="382"/>
      <point x="581" y="308" type="qcurve"/>
      <point x="525" y="114"/>
      <point x="356" y="-70"/>
      <point x="230" y="-70" type="qcurve"/>
      <point x="136" y="-70"/>
      <point x="48" y="19"/>
      <point x="48" y="112" type="qcurve"/>
      <point x="48" y="158"/>
      <point x="69" y="276"/>
      <point x="89" y="348" type="qcurve"/>
      <point x="145" y="541"/>
      <point x="314" y="725"/>
      <point x="440" y="725" type="qcurve"/>
      <point x="534" y="725"/>
      <point x="623" y="638"/>
    </contour>
    <contour>
      <point x="437" y="680" type="qcurve"/>
      <point x="329" y="680"/>
      <point x="187" y="511"/>
      <point x="134" y="328" type="qcurve"/>
      <point x="114" y="258"/>
      <point x="95" y="152"/>
      <point x="95" y="113" type="qcurve"/>
      <point x="95" y="42"/>
      <point x="161" y="-25"/>
      <point x="233" y="-25" type="qcurve"/>
      <point x="341" y="-25"/>
      <point x="483" y="144"/>
      <point x="536" y="328" type="qcurve"/>
      <point x="556" y="396"/>
      <point x="575" y="505"/>
      <point x="575" y="546" type="qcurve"/>
      <point x="575" y="615"/>
      <point x="509" y="680"/>
    </contour>
    <contour>
      <point x="173" y="105" type="line"/>
      <point x="301" y="550" type="line"/>
      <point x="402" y="550" type="line"/>
      <point x="452" y="550"/>
      <point x="499" y="508"/>
      <point x="499" y="463" type="qcurve"/>
      <point x="499" y="424"/>
      <point x="467" y="332"/>
      <point x="443" y="308" type="qcurve"/>
      <point x="420" y="285"/>
      <point x="354" y="263"/>
      <point x="308" y="263" type="qcurve"/>
      <point x="271" y="263" type="line"/>
      <point x="226" y="105" type="line"/>
    </contour>
    <contour>
      <point x="447" y="460" type="qcurve"/>
      <point x="447" y="483"/>
      <point x="419" y="504"/>
      <point x="387" y="504" type="qcurve"/>
      <point x="341" y="504" type="line"/>
      <point x="286" y="312" type="line"/>
      <point x="327" y="312" type="line"/>
      <point x="354" y="312"/>
      <point x="391" y="324"/>
      <point x="403" y="336" type="qcurve"/>
      <point x="420" y="353"/>
      <point x="447" y="432"/>
    </contour>
  </outline>
</glyph>
<glyph name="trademark" format="2">
  <advance width="614"/>
  <unicode hex="2122"/>
  <outline>
    <contour>
      <point x="251" y="670" type="line"/>
      <point x="158" y="670" type="line"/>
      <point x="169" y="709" type="line"/>
      <point x="397" y="709" type="line"/>
      <point x="386" y="670" type="line"/>
      <point x="296" y="670" type="line"/>
      <point x="219" y="403" type="line"/>
      <point x="174" y="403" type="line"/>
    </contour>
    <contour>
      <point x="616" y="710" type="line"/>
      <point x="684" y="710" type="line"/>
      <point x="608" y="403" type="line"/>
      <point x="566" y="403" type="line"/>
      <point x="638" y="683" type="line"/>
      <point x="511" y="490" type="line"/>
      <point x="501" y="490" type="line"/>
      <point x="483" y="674" type="line"/>
      <point x="396" y="403" type="line"/>
      <point x="354" y="403" type="line"/>
      <point x="454" y="710" type="line"/>
      <point x="517" y="710" type="line"/>
      <point x="530" y="580" type="line"/>
    </contour>
  </outline>
</glyph>
<glyph name="approxequal" format="2">
  <advance width="614"/>
  <unicode hex="2248"/>
  <outline>
    <contour>
      <point x="227" y="558" type="qcurve"/>
      <point x="248" y="558"/>
      <point x="298" y="529"/>
      <point x="345" y="491" type="qcurve"/>
      <point x="396" y="450"/>
      <point x="433" y="424"/>
      <point x="446" y="424" type="qcurve"/>
      <point x="463" y="424"/>
      <point x="501" y="469"/>
      <point x="565" y="571" type="qcurve"/>
      <point x="613" y="542" type="line"/>
      <point x="535" y="414"/>
      <point x="476" y="363"/>
      <point x="446" y="363" type="qcurve"/>
      <point x="425" y="363"/>
      <point x="375" y="392"/>
      <point x="328" y="430" type="qcurve"/>
      <point x="277" y="471"/>
      <point x="240" y="497"/>
      <point x="227" y="497" type="qcurve"/>
      <point x="210" y="497"/>
      <point x="172" y="452"/>
      <point x="108" y="350" type="qcurve"/>
      <point x="60" y="379" type="line"/>
      <point x="139" y="504"/>
      <point x="190" y="558"/>
    </contour>
    <contour>
      <point x="195" y="295" type="qcurve"/>
      <point x="216" y="295"/>
      <point x="266" y="266"/>
      <point x="313" y="228" type="qcurve"/>
      <point x="364" y="187"/>
      <point x="401" y="161"/>
      <point x="414" y="161" type="qcurve"/>
      <point x="431" y="161"/>
      <point x="469" y="206"/>
      <point x="533" y="308" type="qcurve"/>
      <point x="581" y="279" type="line"/>
      <point x="503" y="151"/>
      <point x="444" y="100"/>
      <point x="414" y="100" type="qcurve"/>
      <point x="393" y="100"/>
      <point x="343" y="129"/>
      <point x="296" y="167" type="qcurve"/>
      <point x="245" y="208"/>
      <point x="208" y="234"/>
      <point x="195" y="234" type="qcurve"/>
      <point x="178" y="234"/>
      <point x="140" y="189"/>
      <point x="76" y="87" type="qcurve"/>
      <point x="28" y="116" type="line"/>
      <point x="107" y="241"/>
      <point x="158" y="295"/>
    </contour>
  </outline>
</glyph>
<glyph name="notequal" format="2">
  <advance width="614"/>
  <unicode hex="2260"/>
  <outline>
    <contour>
      <point x="204" y="209" type="line"/>
      <point x="82" y="209" type="line"/>
      <point x="97" y="261" type="line"/>
      <point x="251" y="261" type="line"/>
      <point x="321" y="338" type="line"/>
      <point x="368" y="392" type="line"/>
      <point x="134" y="392" type="line"/>
      <point x="149" y="443" type="line"/>
      <point x="413" y="443" type="line"/>
      <point x="546" y="596" type="line"/>
      <point x="610" y="596" type="line"/>
      <point x="472" y="443" type="line"/>
      <point x="587" y="443" type="line"/>
      <point x="572" y="392" type="line"/>
      <point x="426" y="392" type="line"/>
      <point x="376" y="337" type="line"/>
      <point x="310" y="261" type="line"/>
      <point x="535" y="261" type="line"/>
      <point x="520" y="209" type="line"/>
      <point x="264" y="209" type="line"/>
      <point x="145" y="73" type="line"/>
      <point x="81" y="73" type="line"/>
    </contour>
  </outline>
</glyph>
<glyph name="lessequal" format="2">
  <advance width="614"/>
  <unicode hex="2264"/>
  <outline>
    <contour>
      <point x="145" y="412" type="line"/>
      <point x="160" y="467" type="line"/>
      <point x="641" y="670" type="line"/>
      <point x="625" y="611" type="line"/>
      <point x="198" y="435" type="line"/>
      <point x="524" y="260" type="line"/>
      <point x="509" y="209" type="line"/>
    </contour>
    <contour>
      <point x="450" y="0" type="line"/>
      <point x="27" y="0" type="line"/>
      <point x="42" y="51" type="line"/>
      <point x="465" y="51" type="line"/>
    </contour>
  </outline>
</glyph>
<glyph name="lightarcdnrightbxd" format="2">
  <advance width="614"/>
  <unicode hex="256D"/>
  <outline>
    <contour>
      <point x="338" y="-420" type="line"/>
      <point x="277" y="-420" type="line"/>
      <point x="277" y="23" type="line" smooth="yes"/>
      <point x="277" y="198"/>
      <point x="440" y="361"/>
      <point x="614" y="361" type="qcurve" smooth="yes"/>
      <point x="634" y="361" type="line"/>
      <point x="634" y="300" type="line"/>
      <point x="614" y="300" type="line" smooth="yes"/>
      <point x="471" y="300"/>
      <point x="338" y="167"/>
      <point x="338" y="23" type="qcurve" smooth="yes"/>
    </contour>
  </outline>
</glyph>
<glyph name="lightarcuprightbxd" format="2">
  <advance width="614"/>
  <unicode hex="2570"/>
  <outline>
    <contour>
      <point x="277" y="637" type="qcurve" smooth="yes"/>
      <point x="277" y="1080" type="line"/>
      <point x="338" y="1080" type="line"/>
      <point x="338" y="637" type="line" smooth="yes"/>
      <point x="338" y="494"/>
      <point x="471" y="361"/>
      <point x="614" y="361" type="qcurve" smooth="yes"/>
      <point x="634" y="361" type="line"/>
      <point x="634" y="300" type="line"/>
      <point x="614" y="300" type="line" smooth="yes"/>
      <point x="439" y="300"/>
      <point x="277" y="462"/>
    </contour>
  </outline>
</glyph>
<glyph name="uni2610" format="2">
  <advance width="614"/>
  <unicode hex="2610"/>
  <outline>
    <contour>
      <point x="518" y="70" type="line"/>
      <point x="4" y="70" type="line"/>
      <point x="152" y="585" type="line"/>
      <point x="666" y="585" type="line"/>
    </contour>
    <contour>
      <point x="198" y="534" type="line"/>
      <point x="80" y="121" type="line"/>
      <point x="472" y="121" type="line"/>
      <point x="590" y="534" type="line"/>
    </contour>
  </outline>
</glyph>
<glyph name="uni2611" format="2">
  <advance width="614"/>
  <unicode hex="2611"/>
  <outline>
    <contour>
      <point x="616" y="732" type="line"/>
      <point x="682" y="732" type="line"/>
      <point x="584" y="585" type="line"/>
      <point x="666" y="585" type="line"/>
      <point x="518" y="70" type="line"/>
      <point x="4" y="70" type="line"/>
      <point x="152" y="585" type="line"/>
      <point x="522" y="585" type="line"/>
    </contour>
    <contour>
      <point x="554" y="539" type="line"/>
      <point x="321" y="189" type="line"/>
      <point x="269" y="189" type="line"/>
      <point x="225" y="428" type="line"/>
      <point x="281" y="428" type="line"/>
      <point x="309" y="252" type="line"/>
      <point x="493" y="539" type="line"/>
      <point x="195" y="539" type="line"/>
      <point x="73" y="116" type="line"/>
      <point x="475" y="116" type="line"/>
      <point x="597" y="539" type="line"/>
    </contour>
  </outline>
</glyph>
<glyph name="uni2612" format="2">
  <advance width="614"/>
  <unicode hex="2612"/>
  <outline>
    <contour>
      <point x="518" y="70" type="line"/>
      <point x="4" y="70" type="line"/>
      <point x="152" y="585" type="line"/>
      <point x="666" y="585" type="line"/>
    </contour>
    <contour>
      <point x="560" y="539" type="line"/>
      <point x="232" y="539" type="line"/>
      <point x="345" y="361" type="line"/>
    </contour>
    <contour>
      <point x="301" y="330" type="line"/>
      <point x="185" y="505" type="line"/>
      <point x="85" y="156" type="line"/>
    </contour>
    <contour>
      <point x="585" y="498" type="line"/>
      <point x="373" y="323" type="line"/>
      <point x="485" y="150" type="line"/>
    </contour>
    <contour>
      <point x="329" y="292" type="line"/>
      <point x="110" y="116" type="line"/>
      <point x="439" y="116" type="line"/>
    </contour>
  </outline>
</glyph>
<glyph name="uni2713" format="2">
  <advance width="614"/>
  <unicode hex="2713"/>
  <outline>
    <contour>
      <point x="567" y="598" type="line"/>
      <point x="633" y="598" type="line"/>
      <point x="260" y="55" type="line"/>
      <point x="178" y="55" type="line"/>
      <point x="90" y="312" type="line"/>
      <point x="151" y="312" type="line"/>
      <point x="222" y="88" type="line"/>
    </contour>
  </outline>
</glyph>
<glyph name="uniE0A0" format="2">
  <advance width="614"/>
  <unicode hex="E0A0"/>
  <outline>
    <contour>
      <point x="58" y="241" type="line"/>
      <point x="281" y="1020" type="line"/>
      <point x="336" y="1020" type="line"/>
      <point x="126" y="286" type="line"/>
    </contour>
    <contour>
      <point x="-114" y="-360" type="line"/>
      <point x="-68" y="-198" type="line" smooth="yes"/>
      <point x="-18" y="-23"/>
      <point x="91" y="110"/>
      <point x="227" y="171" type="qcurve" smooth="yes"/>
      <point x="320" y="212"/>
      <point x="393" y="284"/>
      <point x="426" y="396" type="qcurve" smooth="yes"/>
      <point x="461" y="520" type="line"/>
      <point x="300" y="520" type="line"/>
      <point x="301" y="524" type="line"/>
      <point x="547" y="728" type="line"/>
      <point x="551" y="728" type="line"/>
      <point x="678" y="524" type="line"/>
      <point x="677" y="520" type="line"/>
      <point x="516" y="520" type="line"/>
      <point x="479" y="389" type="line" smooth="yes"/>
      <point x="444" y="267"/>
      <point x="352" y="175"/>
      <point x="245" y="126" type="qcurve" smooth="yes"/>
      <point x="126" y="73"/>
      <point x="36" y="-29"/>
      <point x="-16" y="-209" type="qcurve" smooth="yes"/>
      <point x="-59" y="-360" type="line"/>
    </contour>
  </outline>
</glyph>
<glyph name="uniE0A1" format="2">
  <advance width="614"/>
  <unicode hex="E0A1"/>
  <outline>
    <contour>
      <point x="188" y="373" type="line"/>
      <point x="313" y="808" type="line"/>
      <point x="374" y="808" type="line"/>
      <point x="263" y="423" type="line"/>
      <point x="522" y="423" type="line"/>
      <point x="508" y="373" type="line"/>
    </contour>
    <contour>
      <point x="201" y="232" type="line"/>
      <point x="92" y="-163" type="line"/>
      <point x="34" y="-163" type="line"/>
      <point x="159" y="272" type="line"/>
      <point x="258" y="272" type="line"/>
      <point x="317" y="-106" type="line"/>
      <point x="421" y="272" type="line"/>
      <point x="479" y="272" type="line"/>
      <point x="354" y="-163" type="line"/>
      <point x="263" y="-163" type="line"/>
    </contour>
  </outline>
</glyph>
<glyph name="uniE0B1" format="2">
  <advance width="614"/>
  <unicode hex="E0B1"/>
  <outline>
    <contour>
      <point x="274" y="655" type="line"/>
      <point x="580" y="329" type="line"/>
      <point x="579" y="326" type="line"/>
      <point x="579" y="325" type="line"/>
      <point x="106" y="0" type="line"/>
      <point x="16" y="0" type="line"/>
      <point x="17" y="4" type="line"/>
      <point x="495" y="336" type="line"/>
      <point x="203" y="651" type="line"/>
      <point x="204" y="655" type="line"/>
    </contour>
  </outline>
</glyph>
<glyph name="uniE0B3" format="2">
  <advance width="614"/>
  <unicode hex="E0B3"/>
  <outline>
    <contour>
      <point x="396" y="0" type="line"/>
      <point x="90" y="326" type="line"/>
      <point x="91" y="329" type="line"/>
      <point x="91" y="330" type="line"/>
      <point x="564" y="655" type="line"/>
      <point x="654" y="655" type="line"/>
      <point x="653" y="651" type="line"/>
      <point x="175" y="319" type="line"/>
      <point x="467" y="4" type="line"/>
      <point x="466" y="0" type="line"/>
    </contour>
  </outline>
</glyph>
<glyph name="ampersand_ampersand.liga" format="2">
  <advance width="614"/>
  <outline>
    <contour>
      <point x="-547" y="124" type="qcurve" smooth="yes"/>
      <point x="-547" y="174"/>
      <point x="-520" y="249"/>
      <point x="-491" y="278" type="qcurve" smooth="yes"/>
      <point x="-467" y="302"/>
      <point x="-374" y="342"/>
      <point x="-281" y="368" type="qcurve"/>
      <point x="-312" y="449"/>
      <point x="-325" y="499"/>
      <point x="-325" y="517" type="qcurve" smooth="yes"/>
      <point x="-325" y="583"/>
      <point x="-224" y="669"/>
      <point x="-145" y="669" type="qcurve" smooth="yes"/>
      <point x="-115" y="669"/>
      <point x="-41" y="659"/>
      <point x="13" y="647" type="qcurve"/>
      <point x="-2" y="596" type="line"/>
      <point x="-51" y="608"/>
      <point x="-120" y="618"/>
      <point x="-150" y="618" type="qcurve" smooth="yes"/>
      <point x="-199" y="618"/>
      <point x="-263" y="560"/>
      <point x="-263" y="515" type="qcurve" smooth="yes"/>
      <point x="-263" y="500"/>
      <point x="-253" y="462"/>
      <point x="-241" y="429" type="qcurve" smooth="yes"/>
      <point x="-167" y="236" type="line"/>
      <point x="-56" y="439" type="line"/>
      <point x="-4" y="417" type="line"/>
      <point x="-141" y="182" type="line"/>
      <point x="-68" y="0" type="line"/>
      <point x="-137" y="0" type="line"/>
      <point x="-184" y="129" type="line"/>
      <point x="-241" y="54"/>
      <point x="-340" y="-5"/>
      <point x="-410" y="-5" type="qcurve" smooth="yes"/>
      <point x="-476" y="-5"/>
      <point x="-547" y="61"/>
    </contour>
    <contour>
      <point x="-447" y="244" type="qcurve" smooth="yes"/>
      <point x="-466" y="225"/>
      <point x="-484" y="171"/>
      <point x="-484" y="130" type="qcurve" smooth="yes"/>
      <point x="-484" y="89"/>
      <point x="-441" y="47"/>
      <point x="-401" y="47" type="qcurve" smooth="yes"/>
      <point x="-346" y="47"/>
      <point x="-263" y="109"/>
      <point x="-209" y="186" type="qcurve"/>
      <point x="-263" y="323" type="line"/>
      <point x="-350" y="297"/>
      <point x="-427" y="264"/>
    </contour>
    <contour>
      <point x="-8" y="124" type="qcurve" smooth="yes"/>
      <point x="-8" y="174"/>
      <point x="19" y="249"/>
      <point x="48" y="278" type="qcurve" smooth="yes"/>
      <point x="72" y="302"/>
      <point x="166" y="342"/>
      <point x="260" y="368" type="qcurve"/>
      <point x="228" y="440"/>
      <point x="214" y="495"/>
      <point x="214" y="517" type="qcurve" smooth="yes"/>
      <point x="214" y="583"/>
      <point x="315" y="669"/>
      <point x="394" y="669" type="qcurve" smooth="yes"/>
      <point x="424" y="669"/>
      <point x="498" y="659"/>
      <point x="552" y="647" type="qcurve"/>
      <point x="537" y="596" type="line"/>
      <point x="488" y="608"/>
      <point x="419" y="618"/>
      <point x="389" y="618" type="qcurve" smooth="yes"/>
      <point x="340" y="618"/>
      <point x="276" y="560"/>
      <point x="276" y="515" type="qcurve" smooth="yes"/>
      <point x="276" y="496"/>
      <point x="287" y="455"/>
      <point x="298" y="429" type="qcurve" smooth="yes"/>
      <point x="379" y="243" type="line"/>
      <point x="503" y="439" type="line"/>
      <point x="555" y="417" type="line"/>
      <point x="406" y="191" type="line"/>
      <point x="491" y="0" type="line"/>
      <point x="422" y="0" type="line"/>
      <point x="363" y="139" type="line"/>
      <point x="302" y="58"/>
      <point x="201" y="-5"/>
      <point x="129" y="-5" type="qcurve" smooth="yes"/>
      <point x="63" y="-5"/>
      <point x="-8" y="61"/>
    </contour>
    <contour>
      <point x="92" y="244" type="qcurve" smooth="yes"/>
      <point x="73" y="225"/>
      <point x="55" y="171"/>
      <point x="55" y="130" type="qcurve" smooth="yes"/>
      <point x="55" y="89"/>
      <point x="98" y="47"/>
      <point x="138" y="47" type="qcurve" smooth="yes"/>
      <point x="194" y="47"/>
      <point x="279" y="112"/>
      <point x="335" y="194" type="qcurve"/>
      <point x="279" y="324" type="line"/>
      <point x="190" y="297"/>
      <point x="112" y="264"/>
    </contour>
  </outline>
</glyph>
<glyph name="asciitilde_asciitilde.liga" format="2">
  <advance width="614"/>
  <outline>
    <contour>
      <point x="260" y="304" type="qcurve" smooth="yes"/>
      <point x="216" y="340"/>
      <point x="167" y="371"/>
      <point x="149" y="371" type="qcurve" smooth="yes"/>
      <point x="130" y="371"/>
      <point x="85" y="343"/>
      <point x="45" y="311" type="qcurve" smooth="yes"/>
      <point x="-5" y="271"/>
      <point x="-64" y="237"/>
      <point x="-90" y="237" type="qcurve" smooth="yes"/>
      <point x="-117" y="237"/>
      <point x="-173" y="268"/>
      <point x="-218" y="304" type="qcurve" smooth="yes"/>
      <point x="-269" y="345"/>
      <point x="-306" y="371"/>
      <point x="-319" y="371" type="qcurve" smooth="yes"/>
      <point x="-341" y="371"/>
      <point x="-389" y="314"/>
      <point x="-446" y="224" type="qcurve"/>
      <point x="-494" y="253" type="line"/>
      <point x="-432" y="355"/>
      <point x="-361" y="432"/>
      <point x="-319" y="432" type="qcurve" smooth="yes"/>
      <point x="-298" y="432"/>
      <point x="-248" y="403"/>
      <point x="-201" y="365" type="qcurve" smooth="yes"/>
      <point x="-157" y="329"/>
      <point x="-108" y="298"/>
      <point x="-90" y="298" type="qcurve" smooth="yes"/>
      <point x="-71" y="298"/>
      <point x="-26" y="326"/>
      <point x="14" y="358" type="qcurve" smooth="yes"/>
      <point x="64" y="398"/>
      <point x="123" y="432"/>
      <point x="149" y="432" type="qcurve" smooth="yes"/>
      <point x="176" y="432"/>
      <point x="232" y="401"/>
      <point x="277" y="365" type="qcurve" smooth="yes"/>
      <point x="328" y="324"/>
      <point x="365" y="298"/>
      <point x="378" y="298" type="qcurve" smooth="yes"/>
      <point x="400" y="298"/>
      <point x="448" y="355"/>
      <point x="505" y="445" type="qcurve"/>
      <point x="553" y="416" type="line"/>
      <point x="491" y="314"/>
      <point x="420" y="237"/>
      <point x="378" y="237" type="qcurve" smooth="yes"/>
      <point x="357" y="237"/>
      <point x="307" y="266"/>
    </contour>
  </outline>
</glyph>
<glyph name="asciitilde_asciitilde_greater" format="2">
  <advance width="614"/>
  <outline>
    <contour>
      <point x="113" y="432" type="qcurve" smooth="yes"/>
      <point x="134" y="432"/>
      <point x="180" y="407"/>
      <point x="211" y="378" type="qcurve" smooth="yes"/>
      <point x="252" y="341"/>
      <point x="274" y="327"/>
      <point x="287" y="327" type="qcurve" smooth="yes"/>
      <point x="299" y="327"/>
      <point x="353" y="334"/>
      <point x="457" y="348" type="qcurve"/>
      <point x="213" y="636" type="line"/>
      <point x="251" y="665" type="line"/>
      <point x="547" y="318" type="line"/>
      <point x="546" y="314" type="line"/>
      <point x="107" y="-11" type="line"/>
      <point x="77" y="27" type="line"/>
      <point x="456" y="306" type="line"/>
      <point x="435" y="302"/>
      <point x="299" y="278"/>
      <point x="281" y="278" type="qcurve" smooth="yes"/>
      <point x="258" y="278"/>
      <point x="222" y="299"/>
      <point x="183" y="334" type="qcurve" smooth="yes"/>
      <point x="160" y="355"/>
      <point x="131" y="371"/>
      <point x="113" y="371" type="qcurve" smooth="yes"/>
      <point x="94" y="371"/>
      <point x="49" y="343"/>
      <point x="9" y="311" type="qcurve" smooth="yes"/>
      <point x="-41" y="271"/>
      <point x="-100" y="237"/>
      <point x="-126" y="237" type="qcurve" smooth="yes"/>
      <point x="-153" y="237"/>
      <point x="-209" y="268"/>
      <point x="-254" y="304" type="qcurve" smooth="yes"/>
      <point x="-305" y="345"/>
      <point x="-342" y="371"/>
      <point x="-355" y="371" type="qcurve" smooth="yes"/>
      <point x="-374" y="371"/>
      <point x="-419" y="343"/>
      <point x="-459" y="311" type="qcurve" smooth="yes"/>
      <point x="-509" y="271"/>
      <point x="-568" y="237"/>
      <point x="-594" y="237" type="qcurve" smooth="yes"/>
      <point x="-621" y="237"/>
      <point x="-677" y="268"/>
      <point x="-722" y="304" type="qcurve" smooth="yes"/>
      <point x="-773" y="345"/>
      <point x="-810" y="371"/>
      <point x="-823" y="371" type="qcurve" smooth="yes"/>
      <point x="-845" y="371"/>
      <point x="-893" y="314"/>
      <point x="-950" y="224" type="qcurve"/>
      <point x="-998" y="253" type="line"/>
      <point x="-936" y="355"/>
      <point x="-865" y="432"/>
      <point x="-823" y="432" type="qcurve" smooth="yes"/>
      <point x="-802" y="432"/>
      <point x="-752" y="403"/>
      <point x="-705" y="365" type="qcurve" smooth="yes"/>
      <point x="-661" y="329"/>
      <point x="-612" y="298"/>
      <point x="-594" y="298" type="qcurve" smooth="yes"/>
      <point x="-575" y="298"/>
      <point x="-530" y="326"/>
      <point x="-490" y="358" type="qcurve" smooth="yes"/>
      <point x="-440" y="398"/>
      <point x="-381" y="432"/>
      <point x="-355" y="432" type="qcurve" smooth="yes"/>
      <point x="-334" y="432"/>
      <point x="-284" y="403"/>
      <point x="-237" y="365" type="qcurve" smooth="yes"/>
      <point x="-193" y="329"/>
      <point x="-144" y="298"/>
      <point x="-126" y="298" type="qcurve" smooth="yes"/>
      <point x="-107" y="298"/>
      <point x="-62" y="326"/>
      <point x="-22" y="358" type="qcurve" smooth="yes"/>
      <point x="28" y="398"/>
      <point x="87" y="432"/>
    </contour>
  </outline>
</glyph>
<glyph name="asciitilde_at.liga" format="2">
  <advance width="614"/>
  <outline>
    <contour>
      <point x="534" y="570" type="qcurve" smooth="yes"/>
      <point x="534" y="629"/>
      <point x="475" y="680"/>
      <point x="403" y="680" type="qcurve" smooth="yes"/>
      <point x="292" y="680"/>
      <point x="174" y="602"/>
      <point x="52" y="419" type="qcurve" smooth="yes"/>
      <point x="-19" y="313"/>
      <point x="-101" y="231"/>
      <point x="-139" y="231" type="qcurve" smooth="yes"/>
      <point x="-158" y="231"/>
      <point x="-205" y="260"/>
      <point x="-259" y="304" type="qcurve" smooth="yes"/>
      <point x="-310" y="345"/>
      <point x="-347" y="371"/>
      <point x="-360" y="371" type="qcurve" smooth="yes"/>
      <point x="-377" y="371"/>
      <point x="-415" y="326"/>
      <point x="-479" y="224" type="qcurve"/>
      <point x="-527" y="253" type="line"/>
      <point x="-463" y="358"/>
      <point x="-398" y="432"/>
      <point x="-360" y="432" type="qcurve" smooth="yes"/>
      <point x="-339" y="432"/>
      <point x="-289" y="403"/>
      <point x="-242" y="365" type="qcurve" smooth="yes"/>
      <point x="-187" y="321"/>
      <point x="-145" y="292"/>
      <point x="-131" y="292" type="qcurve" smooth="yes"/>
      <point x="-107" y="292"/>
      <point x="-42" y="360"/>
      <point x="10" y="439" type="qcurve" smooth="yes"/>
      <point x="129" y="618"/>
      <point x="281" y="725"/>
      <point x="402" y="725" type="qcurve" smooth="yes"/>
      <point x="502" y="725"/>
      <point x="583" y="655"/>
      <point x="583" y="574" type="qcurve" smooth="yes"/>
      <point x="583" y="484"/>
      <point x="508" y="225"/>
      <point x="461" y="178" type="qcurve" smooth="yes"/>
      <point x="436" y="153"/>
      <point x="365" y="129"/>
      <point x="311" y="129" type="qcurve" smooth="yes"/>
      <point x="224" y="129"/>
      <point x="143" y="185"/>
      <point x="143" y="244" type="qcurve" smooth="yes"/>
      <point x="143" y="300"/>
      <point x="187" y="420"/>
      <point x="221" y="454" type="qcurve" smooth="yes"/>
      <point x="252" y="485"/>
      <point x="345" y="515"/>
      <point x="411" y="515" type="qcurve" smooth="yes"/>
      <point x="529" y="515" type="line"/>
      <point x="532" y="535"/>
      <point x="534" y="560"/>
    </contour>
    <contour>
      <point x="199" y="249" type="qcurve" smooth="yes"/>
      <point x="199" y="210"/>
      <point x="250" y="175"/>
      <point x="308" y="175" type="qcurve" smooth="yes"/>
      <point x="351" y="175"/>
      <point x="406" y="194"/>
      <point x="426" y="214" type="qcurve" smooth="yes"/>
      <point x="452" y="240"/>
      <point x="505" y="384"/>
      <point x="522" y="469" type="qcurve"/>
      <point x="395" y="469" type="line" smooth="yes"/>
      <point x="349" y="469"/>
      <point x="288" y="450"/>
      <point x="267" y="429" type="qcurve" smooth="yes"/>
      <point x="241" y="403"/>
      <point x="199" y="293"/>
    </contour>
  </outline>
</glyph>
<glyph name="asciitilde_greater.liga" format="2">
  <advance width="614"/>
  <outline>
    <contour>
      <point x="-1" y="358" type="qcurve" smooth="yes"/>
      <point x="49" y="398"/>
      <point x="108" y="432"/>
      <point x="134" y="432" type="qcurve" smooth="yes"/>
      <point x="155" y="432"/>
      <point x="201" y="407"/>
      <point x="232" y="378" type="qcurve" smooth="yes"/>
      <point x="273" y="341"/>
      <point x="295" y="327"/>
      <point x="308" y="327" type="qcurve" smooth="yes"/>
      <point x="322" y="327"/>
      <point x="389" y="338"/>
      <point x="455" y="351" type="qcurve"/>
      <point x="213" y="636" type="line"/>
      <point x="251" y="665" type="line"/>
      <point x="547" y="318" type="line"/>
      <point x="546" y="314" type="line"/>
      <point x="107" y="-11" type="line"/>
      <point x="77" y="27" type="line"/>
      <point x="462" y="310" type="line"/>
      <point x="388" y="293"/>
      <point x="312" y="278"/>
      <point x="291" y="278" type="qcurve" smooth="yes"/>
      <point x="276" y="278"/>
      <point x="254" y="290"/>
      <point x="204" y="334" type="qcurve" smooth="yes"/>
      <point x="181" y="355"/>
      <point x="152" y="371"/>
      <point x="134" y="371" type="qcurve" smooth="yes"/>
      <point x="115" y="371"/>
      <point x="70" y="343"/>
      <point x="30" y="311" type="qcurve" smooth="yes"/>
      <point x="-20" y="271"/>
      <point x="-79" y="237"/>
      <point x="-105" y="237" type="qcurve" smooth="yes"/>
      <point x="-132" y="237"/>
      <point x="-188" y="268"/>
      <point x="-233" y="304" type="qcurve" smooth="yes"/>
      <point x="-284" y="345"/>
      <point x="-321" y="371"/>
      <point x="-334" y="371" type="qcurve" smooth="yes"/>
      <point x="-356" y="371"/>
      <point x="-404" y="314"/>
      <point x="-461" y="224" type="qcurve"/>
      <point x="-509" y="253" type="line"/>
      <point x="-447" y="355"/>
      <point x="-376" y="432"/>
      <point x="-334" y="432" type="qcurve" smooth="yes"/>
      <point x="-313" y="432"/>
      <point x="-263" y="403"/>
      <point x="-216" y="365" type="qcurve" smooth="yes"/>
      <point x="-172" y="329"/>
      <point x="-123" y="298"/>
      <point x="-105" y="298" type="qcurve" smooth="yes"/>
      <point x="-86" y="298"/>
      <point x="-41" y="326"/>
    </contour>
  </outline>
</glyph>
<glyph name="asciitilde_hyphen.liga" format="2">
  <advance width="614"/>
  <outline>
    <contour>
      <point x="-80" y="247" type="qcurve" smooth="yes"/>
      <point x="-109" y="247"/>
      <point x="-161" y="274"/>
      <point x="-198" y="304" type="qcurve" smooth="yes"/>
      <point x="-249" y="345"/>
      <point x="-286" y="371"/>
      <point x="-299" y="371" type="qcurve" smooth="yes"/>
      <point x="-316" y="371"/>
      <point x="-354" y="326"/>
      <point x="-418" y="224" type="qcurve"/>
      <point x="-466" y="253" type="line"/>
      <point x="-402" y="358"/>
      <point x="-337" y="432"/>
      <point x="-299" y="432" type="qcurve" smooth="yes"/>
      <point x="-278" y="432"/>
      <point x="-228" y="403"/>
      <point x="-181" y="365" type="qcurve" smooth="yes"/>
      <point x="-137" y="329"/>
      <point x="-95" y="302"/>
      <point x="-80" y="302" type="qcurve" smooth="yes"/>
      <point x="-73" y="302"/>
      <point x="-56" y="308"/>
      <point x="-37" y="320" type="qcurve"/>
      <point x="-3" y="339"/>
      <point x="40" y="352"/>
      <point x="61" y="352" type="qcurve" smooth="yes"/>
      <point x="526" y="352" type="line"/>
      <point x="511" y="301" type="line"/>
      <point x="56" y="301" type="line" smooth="yes"/>
      <point x="39" y="301"/>
      <point x="7" y="290"/>
      <point x="-19" y="272" type="qcurve" smooth="yes"/>
      <point x="-42" y="256"/>
      <point x="-67" y="247"/>
    </contour>
  </outline>
</glyph>
<glyph name="backslash_slash.liga" format="2">
  <advance width="614"/>
  <outline>
    <contour>
      <point x="-104" y="0" type="line"/>
      <point x="-271" y="655" type="line"/>
      <point x="-212" y="655" type="line"/>
      <point x="-57" y="53" type="line"/>
      <point x="444" y="655" type="line"/>
      <point x="515" y="655" type="line"/>
      <point x="-28" y="0" type="line"/>
    </contour>
  </outline>
</glyph>
<glyph name="bar_bar_hyphen.start" format="2">
  <advance width="614"/>
  <outline>
    <contour>
      <point x="-800" y="755" type="line"/>
      <point x="-742" y="755" type="line"/>
      <point x="-987" y="-100" type="line"/>
      <point x="-1045" y="-100" type="line"/>
    </contour>
    <contour>
      <point x="659" y="352" type="line"/>
      <point x="644" y="301" type="line"/>
      <point x="-554" y="301" type="line"/>
      <point x="-669" y="-100" type="line"/>
      <point x="-727" y="-100" type="line"/>
      <point x="-482" y="755" type="line"/>
      <point x="-424" y="755" type="line"/>
      <point x="-539" y="352" type="line"/>
    </contour>
  </outline>
</glyph>
<glyph name="bar_braceright.liga" format="2">
  <advance width="614"/>
  <outline>
    <contour>
      <point x="271" y="-9" type="qcurve" smooth="yes"/>
      <point x="271" y="-50"/>
      <point x="209" y="-98"/>
      <point x="149" y="-104" type="qcurve" smooth="yes"/>
      <point x="-172" y="-134" type="line"/>
      <point x="-158" y="-84" type="line"/>
      <point x="156" y="-54" type="line" smooth="yes"/>
      <point x="184" y="-52"/>
      <point x="212" y="-31"/>
      <point x="212" y="-13" type="qcurve" smooth="yes"/>
      <point x="212" y="-4"/>
      <point x="203" y="20"/>
      <point x="193" y="37" type="qcurve" smooth="yes"/>
      <point x="160" y="94" type="line" smooth="yes"/>
      <point x="140" y="128"/>
      <point x="127" y="162"/>
      <point x="127" y="178" type="qcurve" smooth="yes"/>
      <point x="127" y="227"/>
      <point x="267" y="294"/>
      <point x="425" y="335" type="qcurve"/>
      <point x="426" y="338" type="line"/>
      <point x="289" y="382"/>
      <point x="208" y="426"/>
      <point x="208" y="460" type="qcurve" smooth="yes"/>
      <point x="208" y="481"/>
      <point x="246" y="529"/>
      <point x="295" y="572" type="qcurve" smooth="yes"/>
      <point x="360" y="629" type="line" smooth="yes"/>
      <point x="393" y="658"/>
      <point x="413" y="681"/>
      <point x="413" y="693" type="qcurve" smooth="yes"/>
      <point x="413" y="704"/>
      <point x="395" y="717"/>
      <point x="378" y="718" type="qcurve" smooth="yes"/>
      <point x="74" y="740" type="line"/>
      <point x="88" y="788" type="line"/>
      <point x="399" y="766" type="line" smooth="yes"/>
      <point x="435" y="763"/>
      <point x="474" y="730"/>
      <point x="474" y="704" type="qcurve" smooth="yes"/>
      <point x="474" y="679"/>
      <point x="440" y="633"/>
      <point x="393" y="592" type="qcurve" smooth="yes"/>
      <point x="328" y="535" type="line" smooth="yes"/>
      <point x="292" y="503"/>
      <point x="271" y="479"/>
      <point x="271" y="464" type="qcurve" smooth="yes"/>
      <point x="271" y="443"/>
      <point x="380" y="396"/>
      <point x="504" y="361" type="qcurve"/>
      <point x="486" y="301" type="line"/>
      <point x="318" y="259"/>
      <point x="190" y="209"/>
      <point x="190" y="177" type="qcurve" smooth="yes"/>
      <point x="190" y="168"/>
      <point x="200" y="143"/>
      <point x="210" y="125" type="qcurve" smooth="yes"/>
      <point x="242" y="68" type="line" smooth="yes"/>
      <point x="258" y="39"/>
      <point x="271" y="4"/>
    </contour>
    <contour>
      <point x="-380" y="-129" type="line"/>
      <point x="-438" y="-129" type="line"/>
      <point x="-176" y="783" type="line"/>
      <point x="-118" y="783" type="line"/>
    </contour>
  </outline>
</glyph>
<glyph name="bar_equal.start" format="2">
  <advance width="614"/>
  <outline>
    <contour>
      <point x="633" y="261" type="line"/>
      <point x="618" y="209" type="line"/>
      <point x="-284" y="209" type="line"/>
      <point x="-373" y="-101" type="line"/>
      <point x="-431" y="-101" type="line"/>
      <point x="-186" y="755" type="line"/>
      <point x="-128" y="755" type="line"/>
      <point x="-217" y="443" type="line"/>
      <point x="685" y="443" type="line"/>
      <point x="670" y="392" type="line"/>
      <point x="-232" y="392" type="line"/>
      <point x="-269" y="261" type="line"/>
    </contour>
  </outline>
</glyph>
<glyph name="bar_greater.liga" format="2">
  <advance width="614"/>
  <outline>
    <contour>
      <point x="409" y="355" type="line"/>
      <point x="393" y="300" type="line"/>
      <point x="-375" y="-129" type="line"/>
      <point x="-421" y="-129" type="line"/>
      <point x="-159" y="783" type="line"/>
      <point x="-113" y="783" type="line"/>
    </contour>
    <contour>
      <point x="351" y="334" type="line"/>
      <point x="-121" y="714" type="line"/>
      <point x="-338" y="-47" type="line"/>
    </contour>
  </outline>
</glyph>
<glyph name="braceleft_bar.liga" format="2">
  <advance width="614"/>
  <outline>
    <contour>
      <point x="-415" y="-42" type="qcurve" smooth="yes"/>
      <point x="-415" y="-17"/>
      <point x="-381" y="29"/>
      <point x="-334" y="70" type="qcurve" smooth="yes"/>
      <point x="-269" y="127" type="line" smooth="yes"/>
      <point x="-233" y="159"/>
      <point x="-212" y="183"/>
      <point x="-212" y="198" type="qcurve" smooth="yes"/>
      <point x="-212" y="219"/>
      <point x="-321" y="266"/>
      <point x="-445" y="301" type="qcurve"/>
      <point x="-427" y="361" type="line"/>
      <point x="-259" y="403"/>
      <point x="-131" y="453"/>
      <point x="-131" y="485" type="qcurve" smooth="yes"/>
      <point x="-131" y="494"/>
      <point x="-141" y="519"/>
      <point x="-151" y="537" type="qcurve" smooth="yes"/>
      <point x="-183" y="594" type="line" smooth="yes"/>
      <point x="-199" y="623"/>
      <point x="-212" y="658"/>
      <point x="-212" y="671" type="qcurve" smooth="yes"/>
      <point x="-212" y="713"/>
      <point x="-150" y="762"/>
      <point x="-90" y="766" type="qcurve" smooth="yes"/>
      <point x="233" y="788" type="line"/>
      <point x="219" y="738" type="line"/>
      <point x="-97" y="716" type="line" smooth="yes"/>
      <point x="-125" y="714"/>
      <point x="-153" y="693"/>
      <point x="-153" y="675" type="qcurve" smooth="yes"/>
      <point x="-153" y="666"/>
      <point x="-144" y="642"/>
      <point x="-134" y="625" type="qcurve" smooth="yes"/>
      <point x="-101" y="568" type="line" smooth="yes"/>
      <point x="-81" y="534"/>
      <point x="-68" y="500"/>
      <point x="-68" y="484" type="qcurve" smooth="yes"/>
      <point x="-68" y="435"/>
      <point x="-209" y="368"/>
      <point x="-368" y="327" type="qcurve"/>
      <point x="-369" y="324" type="line"/>
      <point x="-229" y="280"/>
      <point x="-149" y="237"/>
      <point x="-149" y="202" type="qcurve" smooth="yes"/>
      <point x="-149" y="181"/>
      <point x="-187" y="133"/>
      <point x="-236" y="90" type="qcurve" smooth="yes"/>
      <point x="-301" y="33" type="line" smooth="yes"/>
      <point x="-334" y="4"/>
      <point x="-354" y="-19"/>
      <point x="-354" y="-31" type="qcurve" smooth="yes"/>
      <point x="-354" y="-42"/>
      <point x="-336" y="-55"/>
      <point x="-319" y="-56" type="qcurve" smooth="yes"/>
      <point x="-16" y="-83" type="line"/>
      <point x="-30" y="-131" type="line"/>
      <point x="-340" y="-104" type="line" smooth="yes"/>
      <point x="-376" y="-101"/>
      <point x="-415" y="-68"/>
    </contour>
    <contour>
      <point x="437" y="783" type="line"/>
      <point x="495" y="783" type="line"/>
      <point x="233" y="-129" type="line"/>
      <point x="175" y="-129" type="line"/>
    </contour>
  </outline>
</glyph>
<glyph name="bracketleft_bar.liga" format="2">
  <advance width="614"/>
  <outline>
    <contour>
      <point x="437" y="783" type="line"/>
      <point x="495" y="783" type="line"/>
      <point x="233" y="-129" type="line"/>
      <point x="175" y="-129" type="line"/>
    </contour>
    <contour>
      <point x="-31" y="-129" type="line"/>
      <point x="-392" y="-129" type="line"/>
      <point x="-130" y="783" type="line"/>
      <point x="231" y="783" type="line"/>
      <point x="216" y="732" type="line"/>
      <point x="-84" y="732" type="line"/>
      <point x="-316" y="-78" type="line"/>
      <point x="-16" y="-78" type="line"/>
    </contour>
  </outline>
</glyph>
<glyph name="breveacute.cap" format="2">
  <outline>
    <contour>
      <point x="407" y="1018" type="line"/>
      <point x="139" y="887" type="line"/>
      <point x="119" y="924" type="line"/>
      <point x="381" y="1068" type="line"/>
    </contour>
    <contour>
      <point x="158" y="781" type="qcurve"/>
      <point x="209" y="781"/>
      <point x="290" y="835"/>
      <point x="327" y="894" type="qcurve"/>
      <point x="370" y="877" type="line"/>
      <point x="327" y="800"/>
      <point x="225" y="731"/>
      <point x="154" y="731" type="qcurve"/>
      <point x="78" y="731"/>
      <point x="13" y="802"/>
      <point x="13" y="885" type="qcurve"/>
      <point x="53" y="894" type="line"/>
      <point x="57" y="835"/>
      <point x="107" y="781"/>
    </contour>
  </outline>
</glyph>
<glyph name="breveacute" format="2">
  <outline>
    <contour>
      <point x="98" y="728" type="line"/>
      <point x="75" y="763" type="line"/>
      <point x="335" y="909" type="line"/>
      <point x="360" y="858" type="line"/>
    </contour>
    <contour>
      <point x="102" y="586" type="qcurve"/>
      <point x="150" y="586"/>
      <point x="233" y="649"/>
      <point x="277" y="720" type="qcurve"/>
      <point x="319" y="703" type="line"/>
      <point x="270" y="614"/>
      <point x="166" y="536"/>
      <point x="96" y="536" type="qcurve"/>
      <point x="24" y="536"/>
      <point x="-36" y="616"/>
      <point x="-36" y="714" type="qcurve"/>
      <point x="3" y="720" type="line"/>
      <point x="8" y="648"/>
      <point x="54" y="586"/>
    </contour>
  </outline>
</glyph>
<glyph name="brevegrave.cap" format="2">
  <outline>
    <contour>
      <point x="80" y="1062" type="line"/>
      <point x="262" y="916" type="line"/>
      <point x="235" y="885" type="line"/>
      <point x="42" y="1016" type="line"/>
    </contour>
    <contour>
      <point x="158" y="781" type="qcurve"/>
      <point x="209" y="781"/>
      <point x="290" y="835"/>
      <point x="327" y="894" type="qcurve"/>
      <point x="370" y="877" type="line"/>
      <point x="327" y="800"/>
      <point x="225" y="731"/>
      <point x="154" y="731" type="qcurve"/>
      <point x="78" y="731"/>
      <point x="13" y="802"/>
      <point x="13" y="885" type="qcurve"/>
      <point x="53" y="894" type="line"/>
      <point x="57" y="835"/>
      <point x="107" y="781"/>
    </contour>
  </outline>
</glyph>
<glyph name="brevetilde.cap" format="2">
  <outline>
    <contour>
      <point x="161" y="1073" type="qcurve"/>
      <point x="183" y="1073"/>
      <point x="215" y="1050"/>
      <point x="238" y="1020" type="qcurve"/>
      <point x="260" y="993"/>
      <point x="276" y="980"/>
      <point x="285" y="980" type="qcurve"/>
      <point x="302" y="980"/>
      <point x="345" y="1027"/>
      <point x="384" y="1084" type="qcurve"/>
      <point x="419" y="1062" type="line"/>
      <point x="367" y="984"/>
      <point x="313" y="928"/>
      <point x="286" y="928" type="qcurve"/>
      <point x="264" y="928"/>
      <point x="230" y="952"/>
      <point x="206" y="981" type="qcurve"/>
      <point x="185" y="1007"/>
      <point x="169" y="1021"/>
      <point x="160" y="1021" type="qcurve"/>
      <point x="144" y="1021"/>
      <point x="104" y="979"/>
      <point x="71" y="930" type="qcurve"/>
      <point x="35" y="948" type="line"/>
      <point x="81" y="1019"/>
      <point x="134" y="1073"/>
    </contour>
    <contour>
      <point x="158" y="781" type="qcurve"/>
      <point x="209" y="781"/>
      <point x="290" y="835"/>
      <point x="327" y="894" type="qcurve"/>
      <point x="370" y="877" type="line"/>
      <point x="327" y="800"/>
      <point x="225" y="731"/>
      <point x="154" y="731" type="qcurve"/>
      <point x="78" y="731"/>
      <point x="13" y="802"/>
      <point x="13" y="885" type="qcurve"/>
      <point x="53" y="894" type="line"/>
      <point x="57" y="835"/>
      <point x="107" y="781"/>
    </contour>
  </outline>
</glyph>
<glyph name="brevetilde" format="2">
  <outline>
    <contour>
      <point x="115" y="904" type="qcurve"/>
      <point x="133" y="904"/>
      <point x="164" y="880"/>
      <point x="189" y="849" type="qcurve"/>
      <point x="211" y="822"/>
      <point x="227" y="809"/>
      <point x="236" y="809" type="qcurve"/>
      <point x="251" y="809"/>
      <point x="292" y="855"/>
      <point x="332" y="913" type="qcurve"/>
      <point x="370" y="892" type="line"/>
      <point x="320" y="815"/>
      <point x="259" y="755"/>
      <point x="228" y="755" type="qcurve"/>
      <point x="211" y="755"/>
      <point x="181" y="778"/>
      <point x="154" y="810" type="qcurve"/>
      <point x="133" y="836"/>
      <point x="117" y="850"/>
      <point x="108" y="850" type="qcurve"/>
      <point x="93" y="850"/>
      <point x="56" y="809"/>
      <point x="22" y="759" type="qcurve"/>
      <point x="-14" y="782" type="line"/>
      <point x="31" y="850"/>
      <point x="86" y="904"/>
    </contour>
    <contour>
      <point x="102" y="586" type="qcurve"/>
      <point x="150" y="586"/>
      <point x="233" y="649"/>
      <point x="277" y="720" type="qcurve"/>
      <point x="319" y="703" type="line"/>
      <point x="270" y="614"/>
      <point x="166" y="536"/>
      <point x="96" y="536" type="qcurve"/>
      <point x="24" y="536"/>
      <point x="-36" y="616"/>
      <point x="-36" y="714" type="qcurve"/>
      <point x="3" y="720" type="line"/>
      <point x="8" y="648"/>
      <point x="54" y="586"/>
    </contour>
  </outline>
</glyph>
<glyph name="caroncmb.cap" format="2">
  <outline>
    <contour>
      <point x="128" y="731" type="line"/>
      <point x="0" y="895" type="line"/>
      <point x="36" y="920" type="line"/>
      <point x="151" y="789" type="line"/>
      <point x="342" y="920" type="line"/>
      <point x="364" y="890" type="line"/>
      <point x="164" y="731" type="line"/>
    </contour>
  </outline>
</glyph>
<glyph name="circumflexcmb.cap" format="2">
  <outline>
    <contour>
      <point x="-9" y="732" type="line"/>
      <point x="-31" y="762" type="line"/>
      <point x="169" y="921" type="line"/>
      <point x="205" y="921" type="line"/>
      <point x="333" y="757" type="line"/>
      <point x="297" y="732" type="line"/>
      <point x="182" y="863" type="line"/>
    </contour>
  </outline>
</glyph>
<glyph name="circumflexgrave.cap" format="2">
  <outline>
    <contour>
      <point x="297" y="1037" type="line"/>
      <point x="424" y="924" type="line"/>
      <point x="397" y="893" type="line"/>
      <point x="256" y="993" type="line"/>
    </contour>
    <contour>
      <point x="-9" y="732" type="line"/>
      <point x="-31" y="762" type="line"/>
      <point x="165" y="901" type="line"/>
      <point x="201" y="901" type="line"/>
      <point x="332" y="758" type="line"/>
      <point x="297" y="732" type="line"/>
      <point x="176" y="844" type="line"/>
    </contour>
  </outline>
</glyph>
<glyph name="circumflexhook.cap" format="2">
  <outline>
    <contour>
      <point x="488" y="984" type="qcurve"/>
      <point x="488" y="945"/>
      <point x="400" y="905"/>
      <point x="293" y="892" type="qcurve"/>
      <point x="288" y="924" type="line"/>
      <point x="289" y="926" type="line"/>
      <point x="365" y="938"/>
      <point x="429" y="959"/>
      <point x="429" y="977" type="qcurve"/>
      <point x="429" y="991"/>
      <point x="363" y="1012"/>
      <point x="275" y="1027" type="qcurve"/>
      <point x="275" y="1030" type="line"/>
      <point x="319" y="1066" type="line"/>
      <point x="410" y="1051"/>
      <point x="488" y="1013"/>
    </contour>
    <contour>
      <point x="-9" y="732" type="line"/>
      <point x="-31" y="762" type="line"/>
      <point x="165" y="901" type="line"/>
      <point x="201" y="901" type="line"/>
      <point x="332" y="758" type="line"/>
      <point x="297" y="732" type="line"/>
      <point x="176" y="844" type="line"/>
    </contour>
  </outline>
</glyph>
<glyph name="circumflexhook" format="2">
  <outline>
    <contour>
      <point x="458" y="812" type="qcurve"/>
      <point x="458" y="773"/>
      <point x="353" y="720"/>
      <point x="250" y="706" type="qcurve"/>
      <point x="244" y="741" type="line"/>
      <point x="245" y="743" type="line"/>
      <point x="327" y="759"/>
      <point x="397" y="788"/>
      <point x="397" y="806" type="qcurve"/>
      <point x="397" y="822"/>
      <point x="336" y="845"/>
      <point x="264" y="858" type="qcurve"/>
      <point x="264" y="861" type="line"/>
      <point x="308" y="897" type="line"/>
      <point x="389" y="884"/>
      <point x="458" y="845"/>
    </contour>
    <contour>
      <point x="-65" y="536" type="line"/>
      <point x="-87" y="567" type="line"/>
      <point x="118" y="731" type="line"/>
      <point x="154" y="731" type="line"/>
      <point x="277" y="558" type="line"/>
      <point x="241" y="536" type="line"/>
      <point x="127" y="672" type="line"/>
    </contour>
  </outline>
</glyph>
<glyph name="circumflextilde" format="2">
  <outline>
    <contour>
      <point x="115" y="904" type="qcurve"/>
      <point x="133" y="904"/>
      <point x="164" y="880"/>
      <point x="189" y="849" type="qcurve"/>
      <point x="211" y="822"/>
      <point x="227" y="809"/>
      <point x="236" y="809" type="qcurve"/>
      <point x="251" y="809"/>
      <point x="292" y="855"/>
      <point x="332" y="913" type="qcurve"/>
      <point x="370" y="892" type="line"/>
      <point x="320" y="815"/>
      <point x="259" y="755"/>
      <point x="228" y="755" type="qcurve"/>
      <point x="211" y="755"/>
      <point x="181" y="778"/>
      <point x="154" y="810" type="qcurve"/>
      <point x="133" y="836"/>
      <point x="117" y="850"/>
      <point x="108" y="850" type="qcurve"/>
      <point x="93" y="850"/>
      <point x="56" y="809"/>
      <point x="22" y="759" type="qcurve"/>
      <point x="-14" y="782" type="line"/>
      <point x="31" y="850"/>
      <point x="86" y="904"/>
    </contour>
    <contour>
      <point x="-65" y="536" type="line"/>
      <point x="-87" y="567" type="line"/>
      <point x="118" y="731" type="line"/>
      <point x="154" y="731" type="line"/>
      <point x="277" y="558" type="line"/>
      <point x="241" y="536" type="line"/>
      <point x="127" y="672" type="line"/>
    </contour>
  </outline>
</glyph>
<glyph name="colon_colon_equal.liga" format="2">
  <advance width="614"/>
  <outline>
    <contour>
      <point x="-710" y="520" type="qcurve" smooth="yes"/>
      <point x="-710" y="483"/>
      <point x="-757" y="434"/>
      <point x="-796" y="434" type="qcurve" smooth="yes"/>
      <point x="-826" y="434"/>
      <point x="-860" y="462"/>
      <point x="-860" y="487" type="qcurve" smooth="yes"/>
      <point x="-860" y="521"/>
      <point x="-812" y="571"/>
      <point x="-775" y="571" type="qcurve" smooth="yes"/>
      <point x="-743" y="571"/>
      <point x="-710" y="545"/>
    </contour>
    <contour>
      <point x="-256" y="520" type="qcurve" smooth="yes"/>
      <point x="-256" y="483"/>
      <point x="-303" y="434"/>
      <point x="-342" y="434" type="qcurve" smooth="yes"/>
      <point x="-372" y="434"/>
      <point x="-406" y="462"/>
      <point x="-406" y="487" type="qcurve" smooth="yes"/>
      <point x="-406" y="521"/>
      <point x="-358" y="571"/>
      <point x="-321" y="571" type="qcurve" smooth="yes"/>
      <point x="-289" y="571"/>
      <point x="-256" y="545"/>
    </contour>
    <contour>
      <point x="431" y="392" type="line"/>
      <point x="13" y="392" type="line"/>
      <point x="28" y="443" type="line"/>
      <point x="446" y="443" type="line"/>
    </contour>
    <contour>
      <point x="379" y="209" type="line"/>
      <point x="-39" y="209" type="line"/>
      <point x="-24" y="261" type="line"/>
      <point x="394" y="261" type="line"/>
    </contour>
    <contour>
      <point x="-810" y="170" type="qcurve" smooth="yes"/>
      <point x="-810" y="133"/>
      <point x="-857" y="84"/>
      <point x="-896" y="84" type="qcurve" smooth="yes"/>
      <point x="-926" y="84"/>
      <point x="-960" y="112"/>
      <point x="-960" y="137" type="qcurve" smooth="yes"/>
      <point x="-960" y="171"/>
      <point x="-911" y="221"/>
      <point x="-875" y="221" type="qcurve" smooth="yes"/>
      <point x="-843" y="221"/>
      <point x="-810" y="195"/>
    </contour>
    <contour>
      <point x="-356" y="170" type="qcurve" smooth="yes"/>
      <point x="-356" y="133"/>
      <point x="-403" y="84"/>
      <point x="-442" y="84" type="qcurve" smooth="yes"/>
      <point x="-472" y="84"/>
      <point x="-506" y="112"/>
      <point x="-506" y="137" type="qcurve" smooth="yes"/>
      <point x="-506" y="171"/>
      <point x="-457" y="221"/>
      <point x="-421" y="221" type="qcurve" smooth="yes"/>
      <point x="-389" y="221"/>
      <point x="-356" y="195"/>
    </contour>
  </outline>
</glyph>
<glyph name="colon_equal.liga" format="2">
  <advance width="614"/>
  <outline>
    <contour>
      <point x="-212" y="520" type="qcurve" smooth="yes"/>
      <point x="-212" y="483"/>
      <point x="-259" y="434"/>
      <point x="-298" y="434" type="qcurve" smooth="yes"/>
      <point x="-328" y="434"/>
      <point x="-362" y="462"/>
      <point x="-362" y="487" type="qcurve" smooth="yes"/>
      <point x="-362" y="521"/>
      <point x="-314" y="571"/>
      <point x="-277" y="571" type="qcurve" smooth="yes"/>
      <point x="-245" y="571"/>
      <point x="-212" y="545"/>
    </contour>
    <contour>
      <point x="409" y="392" type="line"/>
      <point x="-49" y="392" type="line"/>
      <point x="-34" y="443" type="line"/>
      <point x="424" y="443" type="line"/>
    </contour>
    <contour>
      <point x="357" y="209" type="line"/>
      <point x="-101" y="209" type="line"/>
      <point x="-86" y="261" type="line"/>
      <point x="372" y="261" type="line"/>
    </contour>
    <contour>
      <point x="-312" y="170" type="qcurve" smooth="yes"/>
      <point x="-312" y="133"/>
      <point x="-359" y="84"/>
      <point x="-398" y="84" type="qcurve" smooth="yes"/>
      <point x="-428" y="84"/>
      <point x="-462" y="112"/>
      <point x="-462" y="137" type="qcurve" smooth="yes"/>
      <point x="-462" y="171"/>
      <point x="-413" y="221"/>
      <point x="-377" y="221" type="qcurve" smooth="yes"/>
      <point x="-345" y="221"/>
      <point x="-312" y="195"/>
    </contour>
  </outline>
</glyph>
<glyph name="colon_greater.liga" format="2">
  <advance width="614"/>
  <outline>
    <contour>
      <point x="497" y="349" type="line"/>
      <point x="482" y="294" type="line"/>
      <point x="-39" y="91" type="line"/>
      <point x="-23" y="150" type="line"/>
      <point x="440" y="326" type="line"/>
      <point x="78" y="501" type="line"/>
      <point x="93" y="552" type="line"/>
    </contour>
    <contour>
      <point x="-143" y="520" type="qcurve" smooth="yes"/>
      <point x="-143" y="483"/>
      <point x="-190" y="434"/>
      <point x="-229" y="434" type="qcurve" smooth="yes"/>
      <point x="-259" y="434"/>
      <point x="-293" y="462"/>
      <point x="-293" y="487" type="qcurve" smooth="yes"/>
      <point x="-293" y="521"/>
      <point x="-245" y="571"/>
      <point x="-208" y="571" type="qcurve" smooth="yes"/>
      <point x="-176" y="571"/>
      <point x="-143" y="545"/>
    </contour>
    <contour>
      <point x="-243" y="170" type="qcurve" smooth="yes"/>
      <point x="-243" y="133"/>
      <point x="-290" y="84"/>
      <point x="-329" y="84" type="qcurve" smooth="yes"/>
      <point x="-359" y="84"/>
      <point x="-393" y="112"/>
      <point x="-393" y="137" type="qcurve" smooth="yes"/>
      <point x="-393" y="171"/>
      <point x="-344" y="221"/>
      <point x="-308" y="221" type="qcurve" smooth="yes"/>
      <point x="-276" y="221"/>
      <point x="-243" y="195"/>
    </contour>
  </outline>
</glyph>
<glyph name="colon_less.liga" format="2">
  <advance width="614"/>
  <outline>
    <contour>
      <point x="-54" y="294" type="line"/>
      <point x="-39" y="349" type="line"/>
      <point x="482" y="552" type="line"/>
      <point x="466" y="493" type="line"/>
      <point x="3" y="317" type="line"/>
      <point x="365" y="142" type="line"/>
      <point x="350" y="91" type="line"/>
    </contour>
    <contour>
      <point x="-145" y="520" type="qcurve" smooth="yes"/>
      <point x="-145" y="483"/>
      <point x="-192" y="434"/>
      <point x="-231" y="434" type="qcurve" smooth="yes"/>
      <point x="-261" y="434"/>
      <point x="-295" y="462"/>
      <point x="-295" y="487" type="qcurve" smooth="yes"/>
      <point x="-295" y="521"/>
      <point x="-247" y="571"/>
      <point x="-210" y="571" type="qcurve" smooth="yes"/>
      <point x="-178" y="571"/>
      <point x="-145" y="545"/>
    </contour>
    <contour>
      <point x="-245" y="170" type="qcurve" smooth="yes"/>
      <point x="-245" y="133"/>
      <point x="-292" y="84"/>
      <point x="-331" y="84" type="qcurve" smooth="yes"/>
      <point x="-361" y="84"/>
      <point x="-395" y="112"/>
      <point x="-395" y="137" type="qcurve" smooth="yes"/>
      <point x="-395" y="171"/>
      <point x="-346" y="221"/>
      <point x="-310" y="221" type="qcurve" smooth="yes"/>
      <point x="-278" y="221"/>
      <point x="-245" y="195"/>
    </contour>
  </outline>
</glyph>
<glyph name="dieresiscaron.cap" format="2">
  <outline>
    <contour>
      <point x="179" y="886" type="line"/>
      <point x="55" y="1045" type="line"/>
      <point x="88" y="1071" type="line"/>
      <point x="203" y="944" type="line"/>
      <point x="394" y="1071" type="line"/>
      <point x="418" y="1037" type="line"/>
      <point x="215" y="886" type="line"/>
    </contour>
    <contour>
      <point x="87" y="816" type="qcurve"/>
      <point x="87" y="787"/>
      <point x="50" y="751"/>
      <point x="21" y="751" type="qcurve"/>
      <point x="-1" y="751"/>
      <point x="-25" y="769"/>
      <point x="-25" y="786" type="qcurve"/>
      <point x="-25" y="813"/>
      <point x="13" y="852"/>
      <point x="41" y="852" type="qcurve"/>
      <point x="64" y="852"/>
      <point x="87" y="834"/>
    </contour>
    <contour>
      <point x="354" y="816" type="qcurve"/>
      <point x="354" y="787"/>
      <point x="317" y="751"/>
      <point x="288" y="751" type="qcurve"/>
      <point x="266" y="751"/>
      <point x="242" y="769"/>
      <point x="242" y="786" type="qcurve"/>
      <point x="242" y="813"/>
      <point x="280" y="852"/>
      <point x="308" y="852" type="qcurve"/>
      <point x="331" y="852"/>
      <point x="354" y="834"/>
    </contour>
  </outline>
</glyph>
<glyph name="dieresiscaron" format="2">
  <outline>
    <contour>
      <point x="124" y="699" type="line"/>
      <point x="8" y="871" type="line"/>
      <point x="37" y="894" type="line"/>
      <point x="149" y="758" type="line"/>
      <point x="343" y="894" type="line"/>
      <point x="366" y="862" type="line"/>
      <point x="160" y="699" type="line"/>
    </contour>
    <contour>
      <point x="41" y="617" type="qcurve"/>
      <point x="41" y="590"/>
      <point x="7" y="556"/>
      <point x="-21" y="556" type="qcurve"/>
      <point x="-41" y="556"/>
      <point x="-63" y="573"/>
      <point x="-63" y="588" type="qcurve"/>
      <point x="-63" y="613"/>
      <point x="-26" y="649"/>
      <point x="-1" y="649" type="qcurve"/>
      <point x="19" y="649"/>
      <point x="41" y="633"/>
    </contour>
    <contour>
      <point x="277" y="617" type="qcurve"/>
      <point x="277" y="590"/>
      <point x="243" y="556"/>
      <point x="215" y="556" type="qcurve"/>
      <point x="195" y="556"/>
      <point x="174" y="573"/>
      <point x="174" y="588" type="qcurve"/>
      <point x="174" y="613"/>
      <point x="210" y="649"/>
      <point x="236" y="649" type="qcurve"/>
      <point x="255" y="649"/>
      <point x="277" y="632"/>
    </contour>
  </outline>
</glyph>
<glyph name="dieresisgrave.cap" format="2">
  <outline>
    <contour>
      <point x="84" y="1066" type="line"/>
      <point x="267" y="921" type="line"/>
      <point x="239" y="889" type="line"/>
      <point x="47" y="1020" type="line"/>
    </contour>
    <contour>
      <point x="87" y="816" type="qcurve"/>
      <point x="87" y="787"/>
      <point x="50" y="751"/>
      <point x="21" y="751" type="qcurve"/>
      <point x="-1" y="751"/>
      <point x="-25" y="769"/>
      <point x="-25" y="786" type="qcurve"/>
      <point x="-25" y="813"/>
      <point x="13" y="852"/>
      <point x="41" y="852" type="qcurve"/>
      <point x="64" y="852"/>
      <point x="87" y="834"/>
    </contour>
    <contour>
      <point x="354" y="816" type="qcurve"/>
      <point x="354" y="787"/>
      <point x="317" y="751"/>
      <point x="288" y="751" type="qcurve"/>
      <point x="266" y="751"/>
      <point x="242" y="769"/>
      <point x="242" y="786" type="qcurve"/>
      <point x="242" y="813"/>
      <point x="280" y="852"/>
      <point x="308" y="852" type="qcurve"/>
      <point x="331" y="852"/>
      <point x="354" y="834"/>
    </contour>
  </outline>
</glyph>
<glyph name="dollar_greater.liga" format="2">
  <advance width="614"/>
  <outline>
    <contour>
      <point x="-97" y="182" type="qcurve" smooth="yes"/>
      <point x="-97" y="97"/>
      <point x="-222" y="0"/>
      <point x="-329" y="0" type="qcurve" smooth="yes"/>
      <point x="-341" y="0"/>
      <point x="-352" y="0"/>
      <point x="-357" y="1" type="qcurve"/>
      <point x="-401" y="-142" type="line"/>
      <point x="-454" y="-142" type="line"/>
      <point x="-408" y="7" type="line"/>
      <point x="-447" y="14"/>
      <point x="-525" y="44"/>
      <point x="-570" y="69" type="qcurve"/>
      <point x="-544" y="118" type="line"/>
      <point x="-499" y="93"/>
      <point x="-422" y="62"/>
      <point x="-387" y="55" type="qcurve"/>
      <point x="-299" y="327" type="line"/>
      <point x="-368" y="362"/>
      <point x="-431" y="439"/>
      <point x="-431" y="492" type="qcurve" smooth="yes"/>
      <point x="-431" y="562"/>
      <point x="-311" y="655"/>
      <point x="-214" y="655" type="qcurve" smooth="yes"/>
      <point x="-202" y="655"/>
      <point x="-188" y="655"/>
      <point x="-182" y="654" type="qcurve"/>
      <point x="-137" y="797" type="line"/>
      <point x="-84" y="797" type="line"/>
      <point x="-132" y="647" type="line"/>
      <point x="-75" y="637"/>
      <point x="50" y="595"/>
      <point x="110" y="564" type="qcurve" smooth="yes"/>
      <point x="526" y="349" type="line"/>
      <point x="511" y="294" type="line"/>
      <point x="40" y="91" type="line"/>
      <point x="56" y="150" type="line"/>
      <point x="472" y="325" type="line"/>
      <point x="84" y="518" type="line" smooth="yes"/>
      <point x="16" y="552"/>
      <point x="-101" y="593"/>
      <point x="-151" y="601" type="qcurve"/>
      <point x="-232" y="354" type="line"/>
      <point x="-160" y="316"/>
      <point x="-97" y="240"/>
    </contour>
    <contour>
      <point x="-214" y="606" type="qcurve" smooth="yes"/>
      <point x="-287" y="606"/>
      <point x="-370" y="547"/>
      <point x="-370" y="496" type="qcurve" smooth="yes"/>
      <point x="-370" y="457"/>
      <point x="-322" y="402"/>
      <point x="-270" y="374" type="qcurve"/>
      <point x="-195" y="605" type="line"/>
      <point x="-198" y="606"/>
      <point x="-206" y="606"/>
    </contour>
    <contour>
      <point x="-329" y="49" type="qcurve" smooth="yes"/>
      <point x="-249" y="49"/>
      <point x="-158" y="119"/>
      <point x="-158" y="180" type="qcurve" smooth="yes"/>
      <point x="-158" y="219"/>
      <point x="-208" y="280"/>
      <point x="-261" y="308" type="qcurve"/>
      <point x="-344" y="49" type="line"/>
      <point x="-340" y="49"/>
      <point x="-333" y="49"/>
    </contour>
  </outline>
</glyph>
<glyph name="eight.den" format="2">
  <advance width="614"/>
  <outline>
    <contour>
      <point x="427" y="109" type="qcurve"/>
      <point x="427" y="56"/>
      <point x="334" y="-14"/>
      <point x="266" y="-14" type="qcurve"/>
      <point x="204" y="-14"/>
      <point x="132" y="39"/>
      <point x="132" y="85" type="qcurve"/>
      <point x="132" y="128"/>
      <point x="200" y="191"/>
      <point x="256" y="200" type="qcurve"/>
      <point x="256" y="202" type="line"/>
      <point x="229" y="213"/>
      <point x="199" y="254"/>
      <point x="199" y="280" type="qcurve"/>
      <point x="199" y="327"/>
      <point x="282" y="395"/>
      <point x="344" y="395" type="qcurve"/>
      <point x="401" y="395"/>
      <point x="468" y="344"/>
      <point x="468" y="301" type="qcurve"/>
      <point x="468" y="261"/>
      <point x="410" y="203"/>
      <point x="360" y="194" type="qcurve"/>
      <point x="360" y="192" type="line"/>
      <point x="392" y="181"/>
      <point x="427" y="137"/>
    </contour>
    <contour>
      <point x="344" y="354" type="qcurve"/>
      <point x="303" y="354"/>
      <point x="247" y="305"/>
      <point x="247" y="270" type="qcurve"/>
      <point x="247" y="245"/>
      <point x="286" y="214"/>
      <point x="317" y="214" type="qcurve"/>
      <point x="357" y="214"/>
      <point x="418" y="266"/>
      <point x="418" y="299" type="qcurve"/>
      <point x="418" y="325"/>
      <point x="378" y="354"/>
    </contour>
    <contour>
      <point x="295" y="177" type="qcurve"/>
      <point x="248" y="177"/>
      <point x="183" y="125"/>
      <point x="183" y="88" type="qcurve"/>
      <point x="183" y="59"/>
      <point x="227" y="26"/>
      <point x="266" y="26" type="qcurve"/>
      <point x="313" y="26"/>
      <point x="378" y="78"/>
      <point x="378" y="117" type="qcurve"/>
      <point x="378" y="144"/>
      <point x="332" y="177"/>
    </contour>
  </outline>
</glyph>
<glyph name="equal.end" format="2">
  <advance width="614"/>
  <outline>
    <contour>
      <point x="562" y="392" type="line"/>
      <point x="36" y="392" type="line"/>
      <point x="51" y="443" type="line"/>
      <point x="577" y="443" type="line"/>
    </contour>
    <contour>
      <point x="510" y="209" type="line"/>
      <point x="-16" y="209" type="line"/>
      <point x="-1" y="261" type="line"/>
      <point x="525" y="261" type="line"/>
    </contour>
  </outline>
</glyph>
<glyph name="equal.middle" format="2">
  <advance width="614"/>
  <outline>
    <contour>
      <point x="670" y="392" type="line"/>
      <point x="36" y="392" type="line"/>
      <point x="51" y="443" type="line"/>
      <point x="685" y="443" type="line"/>
    </contour>
    <contour>
      <point x="618" y="209" type="line"/>
      <point x="-16" y="209" type="line"/>
      <point x="-1" y="261" type="line"/>
      <point x="633" y="261" type="line"/>
    </contour>
  </outline>
</glyph>
<glyph name="equal_asciitilde.liga" format="2">
  <advance width="614"/>
  <outline>
    <contour>
      <point x="-99" y="558" type="qcurve" smooth="yes"/>
      <point x="-75" y="558"/>
      <point x="-17" y="532"/>
      <point x="49" y="491" type="qcurve" smooth="yes"/>
      <point x="122" y="447"/>
      <point x="166" y="424"/>
      <point x="180" y="424" type="qcurve" smooth="yes"/>
      <point x="203" y="424"/>
      <point x="255" y="485"/>
      <point x="309" y="571" type="qcurve"/>
      <point x="357" y="542" type="line"/>
      <point x="295" y="441"/>
      <point x="224" y="363"/>
      <point x="180" y="363" type="qcurve" smooth="yes"/>
      <point x="153" y="363"/>
      <point x="91" y="392"/>
      <point x="32" y="430" type="qcurve" smooth="yes"/>
      <point x="-28" y="469"/>
      <point x="-81" y="497"/>
      <point x="-99" y="497" type="qcurve" smooth="yes"/>
      <point x="-122" y="497"/>
      <point x="-174" y="436"/>
      <point x="-228" y="350" type="qcurve"/>
      <point x="-276" y="379" type="line"/>
      <point x="-214" y="480"/>
      <point x="-143" y="558"/>
    </contour>
    <contour>
      <point x="-131" y="295" type="qcurve" smooth="yes"/>
      <point x="-107" y="295"/>
      <point x="-49" y="269"/>
      <point x="17" y="228" type="qcurve" smooth="yes"/>
      <point x="90" y="184"/>
      <point x="134" y="161"/>
      <point x="148" y="161" type="qcurve" smooth="yes"/>
      <point x="171" y="161"/>
      <point x="223" y="222"/>
      <point x="277" y="308" type="qcurve"/>
      <point x="325" y="279" type="line"/>
      <point x="263" y="178"/>
      <point x="192" y="100"/>
      <point x="148" y="100" type="qcurve" smooth="yes"/>
      <point x="121" y="100"/>
      <point x="59" y="129"/>
      <point x="0" y="167" type="qcurve" smooth="yes"/>
      <point x="-60" y="206"/>
      <point x="-113" y="234"/>
      <point x="-131" y="234" type="qcurve" smooth="yes"/>
      <point x="-154" y="234"/>
      <point x="-206" y="173"/>
      <point x="-260" y="87" type="qcurve"/>
      <point x="-308" y="116" type="line"/>
      <point x="-246" y="217"/>
      <point x="-175" y="295"/>
    </contour>
  </outline>
</glyph>
<glyph name="equal_bar.end" format="2">
  <advance width="614"/>
  <outline>
    <contour>
      <point x="272" y="209" type="line"/>
      <point x="-630" y="209" type="line"/>
      <point x="-615" y="261" type="line"/>
      <point x="286" y="261" type="line"/>
      <point x="324" y="392" type="line"/>
      <point x="-578" y="392" type="line"/>
      <point x="-563" y="443" type="line"/>
      <point x="339" y="443" type="line"/>
      <point x="428" y="755" type="line"/>
      <point x="486" y="755" type="line"/>
      <point x="241" y="-100" type="line"/>
      <point x="183" y="-100" type="line"/>
    </contour>
  </outline>
</glyph>
<glyph name="equal_bar_bar.liga" format="2">
  <advance width="614"/>
  <outline>
    <contour>
      <point x="110" y="755" type="line"/>
      <point x="168" y="755" type="line"/>
      <point x="-77" y="-100" type="line"/>
      <point x="-135" y="-100" type="line"/>
      <point x="-46" y="209" type="line"/>
      <point x="-1136" y="209" type="line"/>
      <point x="-1121" y="261" type="line"/>
      <point x="-32" y="261" type="line"/>
      <point x="6" y="392" type="line"/>
      <point x="-1084" y="392" type="line"/>
      <point x="-1069" y="443" type="line"/>
      <point x="21" y="443" type="line"/>
    </contour>
    <contour>
      <point x="428" y="755" type="line"/>
      <point x="486" y="755" type="line"/>
      <point x="241" y="-100" type="line"/>
      <point x="183" y="-100" type="line"/>
    </contour>
  </outline>
</glyph>
<glyph name="equal_bar_bar_equal.middle" format="2">
  <advance width="614"/>
  <outline>
    <contour>
      <point x="-194" y="209" type="line"/>
      <point x="-630" y="209" type="line"/>
      <point x="-615" y="261" type="line"/>
      <point x="-180" y="261" type="line"/>
      <point x="-142" y="392" type="line"/>
      <point x="-578" y="392" type="line"/>
      <point x="-563" y="443" type="line"/>
      <point x="-127" y="443" type="line"/>
      <point x="-38" y="755" type="line"/>
      <point x="20" y="755" type="line"/>
      <point x="-225" y="-100" type="line"/>
      <point x="-283" y="-100" type="line"/>
    </contour>
    <contour>
      <point x="280" y="755" type="line"/>
      <point x="338" y="755" type="line"/>
      <point x="249" y="443" type="line"/>
      <point x="685" y="443" type="line"/>
      <point x="670" y="392" type="line"/>
      <point x="234" y="392" type="line"/>
      <point x="196" y="261" type="line"/>
      <point x="633" y="261" type="line"/>
      <point x="618" y="209" type="line"/>
      <point x="182" y="209" type="line"/>
      <point x="93" y="-100" type="line"/>
      <point x="35" y="-100" type="line"/>
    </contour>
  </outline>
</glyph>
